<?xml version="1.0" encoding="us-ascii" standalone="no"?><svg xmlns="http://www.w3.org/2000/svg" xmlns:xlink="http://www.w3.org/1999/xlink" contentStyleType="text/css" height="1127px" preserveAspectRatio="none" style="width:802px;height:1127px;background:#FFFFFF;" version="1.1" viewBox="0 0 802 1127" width="802px" zoomAndPan="magnify"><defs/><g><!--class Klondike--><g id="elem_Klondike"><rect codeLine="2" fill="#F1F1F1" height="48" id="Klondike" rx="2.5" ry="2.5" style="stroke:#181818;stroke-width:0.5;" width="86" x="448.5" y="7"/><ellipse cx="463.5" cy="23" fill="#ADD1B2" rx="11" ry="11" style="stroke:#181818;stroke-width:1.0;"/><path d="M466.2656,18.875 Q466.4219,18.6563 466.6094,18.5469 Q466.7969,18.4375 467.0156,18.4375 Q467.3906,18.4375 467.625,18.7031 Q467.8594,18.9531 467.8594,19.5625 L467.8594,21.0156 Q467.8594,21.625 467.625,21.8906 Q467.3906,22.1563 467.0156,22.1563 Q466.6719,22.1563 466.4688,21.9531 Q466.2656,21.7656 466.1563,21.25 Q466.1094,20.8906 465.9219,20.7031 Q465.5938,20.3281 464.9844,20.1094 Q464.375,19.8906 463.75,19.8906 Q462.9844,19.8906 462.3438,20.2188 Q461.7188,20.5469 461.2188,21.2969 Q460.7344,22.0469 460.7344,23.0781 L460.7344,24.1719 Q460.7344,25.4063 461.625,26.2344 Q462.5156,27.0469 464.1094,27.0469 Q465.0469,27.0469 465.7031,26.7969 Q466.0938,26.6406 466.5156,26.2031 Q466.7813,25.9375 466.9219,25.8594 Q467.0781,25.7813 467.2813,25.7813 Q467.6094,25.7813 467.8594,26.0469 Q468.125,26.2969 468.125,26.6406 Q468.125,26.9844 467.7813,27.3906 Q467.2813,27.9688 466.4844,28.2969 Q465.4063,28.75 464.1094,28.75 Q462.5938,28.75 461.3906,28.125 Q460.4063,27.625 459.7188,26.5625 Q459.0313,25.4844 459.0313,24.2031 L459.0313,23.0469 Q459.0313,21.7188 459.6406,20.5781 Q460.2656,19.4219 461.3594,18.8125 Q462.4531,18.1875 463.6875,18.1875 Q464.4219,18.1875 465.0625,18.3594 Q465.7188,18.5156 466.2656,18.875 Z " fill="#000000"/><text fill="#000000" font-family="sans-serif" font-size="14" lengthAdjust="spacing" textLength="54" x="477.5" y="28.7969">Klondike</text><line style="stroke:#181818;stroke-width:0.5;" x1="449.5" x2="533.5" y1="39" y2="39"/><line style="stroke:#181818;stroke-width:0.5;" x1="449.5" x2="533.5" y1="47" y2="47"/></g><!--class Player--><g id="elem_Player"><rect codeLine="3" fill="#F1F1F1" height="48" id="Player" rx="2.5" ry="2.5" style="stroke:#181818;stroke-width:0.5;" width="72" x="115.5" y="115"/><ellipse cx="130.5" cy="131" fill="#ADD1B2" rx="11" ry="11" style="stroke:#181818;stroke-width:1.0;"/><path d="M133.2656,126.875 Q133.4219,126.6563 133.6094,126.5469 Q133.7969,126.4375 134.0156,126.4375 Q134.3906,126.4375 134.625,126.7031 Q134.8594,126.9531 134.8594,127.5625 L134.8594,129.0156 Q134.8594,129.625 134.625,129.8906 Q134.3906,130.1563 134.0156,130.1563 Q133.6719,130.1563 133.4688,129.9531 Q133.2656,129.7656 133.1563,129.25 Q133.1094,128.8906 132.9219,128.7031 Q132.5938,128.3281 131.9844,128.1094 Q131.375,127.8906 130.75,127.8906 Q129.9844,127.8906 129.3438,128.2188 Q128.7188,128.5469 128.2188,129.2969 Q127.7344,130.0469 127.7344,131.0781 L127.7344,132.1719 Q127.7344,133.4063 128.625,134.2344 Q129.5156,135.0469 131.1094,135.0469 Q132.0469,135.0469 132.7031,134.7969 Q133.0938,134.6406 133.5156,134.2031 Q133.7813,133.9375 133.9219,133.8594 Q134.0781,133.7813 134.2813,133.7813 Q134.6094,133.7813 134.8594,134.0469 Q135.125,134.2969 135.125,134.6406 Q135.125,134.9844 134.7813,135.3906 Q134.2813,135.9688 133.4844,136.2969 Q132.4063,136.75 131.1094,136.75 Q129.5938,136.75 128.3906,136.125 Q127.4063,135.625 126.7188,134.5625 Q126.0313,133.4844 126.0313,132.2031 L126.0313,131.0469 Q126.0313,129.7188 126.6406,128.5781 Q127.2656,127.4219 128.3594,126.8125 Q129.4531,126.1875 130.6875,126.1875 Q131.4219,126.1875 132.0625,126.3594 Q132.7188,126.5156 133.2656,126.875 Z " fill="#000000"/><text fill="#000000" font-family="sans-serif" font-size="14" lengthAdjust="spacing" textLength="40" x="144.5" y="136.7969">Player</text><line style="stroke:#181818;stroke-width:0.5;" x1="116.5" x2="186.5" y1="147" y2="147"/><line style="stroke:#181818;stroke-width:0.5;" x1="116.5" x2="186.5" y1="155" y2="155"/></g><!--class Deck--><g id="elem_Deck"><rect codeLine="4" fill="#F1F1F1" height="48" id="Deck" rx="2.5" ry="2.5" style="stroke:#181818;stroke-width:0.5;" width="64" x="731.5" y="223"/><ellipse cx="746.5" cy="239" fill="#ADD1B2" rx="11" ry="11" style="stroke:#181818;stroke-width:1.0;"/><path d="M749.2656,234.875 Q749.4219,234.6563 749.6094,234.5469 Q749.7969,234.4375 750.0156,234.4375 Q750.3906,234.4375 750.625,234.7031 Q750.8594,234.9531 750.8594,235.5625 L750.8594,237.0156 Q750.8594,237.625 750.625,237.8906 Q750.3906,238.1563 750.0156,238.1563 Q749.6719,238.1563 749.4688,237.9531 Q749.2656,237.7656 749.1563,237.25 Q749.1094,236.8906 748.9219,236.7031 Q748.5938,236.3281 747.9844,236.1094 Q747.375,235.8906 746.75,235.8906 Q745.9844,235.8906 745.3438,236.2188 Q744.7188,236.5469 744.2188,237.2969 Q743.7344,238.0469 743.7344,239.0781 L743.7344,240.1719 Q743.7344,241.4063 744.625,242.2344 Q745.5156,243.0469 747.1094,243.0469 Q748.0469,243.0469 748.7031,242.7969 Q749.0938,242.6406 749.5156,242.2031 Q749.7813,241.9375 749.9219,241.8594 Q750.0781,241.7813 750.2813,241.7813 Q750.6094,241.7813 750.8594,242.0469 Q751.125,242.2969 751.125,242.6406 Q751.125,242.9844 750.7813,243.3906 Q750.2813,243.9688 749.4844,244.2969 Q748.4063,244.75 747.1094,244.75 Q745.5938,244.75 744.3906,244.125 Q743.4063,243.625 742.7188,242.5625 Q742.0313,241.4844 742.0313,240.2031 L742.0313,239.0469 Q742.0313,237.7188 742.6406,236.5781 Q743.2656,235.4219 744.3594,234.8125 Q745.4531,234.1875 746.6875,234.1875 Q747.4219,234.1875 748.0625,234.3594 Q748.7188,234.5156 749.2656,234.875 Z " fill="#000000"/><text fill="#000000" font-family="sans-serif" font-size="14" lengthAdjust="spacing" textLength="32" x="760.5" y="244.7969">Deck</text><line style="stroke:#181818;stroke-width:0.5;" x1="732.5" x2="794.5" y1="255" y2="255"/><line style="stroke:#181818;stroke-width:0.5;" x1="732.5" x2="794.5" y1="263" y2="263"/></g><!--class Pile--><g id="elem_Pile"><rect codeLine="6" fill="#F1F1F1" height="66.6211" id="Pile" rx="2.5" ry="2.5" style="stroke:#181818;stroke-width:0.5;" width="110" x="293.5" y="392"/><ellipse cx="333.25" cy="408" fill="#A9DCDF" rx="11" ry="11" style="stroke:#181818;stroke-width:1.0;"/><path d="M335.4375,409.7656 L331.2969,409.7656 L330.875,410.7969 L331.2969,410.7969 Q331.9063,410.7969 332.1719,411.0313 Q332.4375,411.2656 332.4375,411.6563 Q332.4375,412.0313 332.1719,412.2656 Q331.9063,412.5 331.2969,412.5 L329,412.5 Q328.3906,412.5 328.1406,412.2656 Q327.875,412.0313 327.875,411.6406 Q327.875,411.2656 328.1563,411.0313 Q328.4219,410.7813 329.0469,410.7969 L331.7188,404.1406 L330.6094,404.1406 Q330,404.1406 329.7344,403.9063 Q329.4688,403.6719 329.4688,403.2813 Q329.4688,402.9063 329.7344,402.6719 Q330,402.4375 330.6094,402.4375 L334.2813,402.4375 L337.6719,410.7969 Q338.2656,410.7969 338.4531,410.9375 Q338.8438,411.2031 338.8438,411.6563 Q338.8438,412.0313 338.5781,412.2656 Q338.3281,412.5 337.7188,412.5 L335.4219,412.5 Q334.8125,412.5 334.5469,412.2656 Q334.2813,412.0313 334.2813,411.6406 Q334.2813,411.2656 334.5469,411.0313 Q334.8125,410.7969 335.4219,410.7969 L335.8438,410.7969 L335.4375,409.7656 Z M334.7188,408.0625 L333.3594,404.6875 L331.9844,408.0625 L334.7188,408.0625 Z " fill="#000000"/><text fill="#000000" font-family="sans-serif" font-size="14" font-style="italic" lengthAdjust="spacing" textLength="23" x="352.75" y="413.7969">Pile</text><line style="stroke:#181818;stroke-width:0.5;" x1="294.5" x2="402.5" y1="424" y2="424"/><text fill="#000000" font-family="sans-serif" font-size="14" lengthAdjust="spacing" text-decoration="underline" textLength="98" x="299.5" y="443.1074">maxCards: num</text><line style="stroke:#181818;stroke-width:0.5;" x1="294.5" x2="402.5" y1="450.6211" y2="450.6211"/></g><!--class Stock--><g id="elem_Stock"><rect codeLine="10" fill="#F1F1F1" height="66.6211" id="Stock" rx="2.5" ry="2.5" style="stroke:#181818;stroke-width:0.5;" width="107" x="118" y="519"/><ellipse cx="151" cy="535" fill="#ADD1B2" rx="11" ry="11" style="stroke:#181818;stroke-width:1.0;"/><path d="M153.7656,530.875 Q153.9219,530.6563 154.1094,530.5469 Q154.2969,530.4375 154.5156,530.4375 Q154.8906,530.4375 155.125,530.7031 Q155.3594,530.9531 155.3594,531.5625 L155.3594,533.0156 Q155.3594,533.625 155.125,533.8906 Q154.8906,534.1563 154.5156,534.1563 Q154.1719,534.1563 153.9688,533.9531 Q153.7656,533.7656 153.6563,533.25 Q153.6094,532.8906 153.4219,532.7031 Q153.0938,532.3281 152.4844,532.1094 Q151.875,531.8906 151.25,531.8906 Q150.4844,531.8906 149.8438,532.2188 Q149.2188,532.5469 148.7188,533.2969 Q148.2344,534.0469 148.2344,535.0781 L148.2344,536.1719 Q148.2344,537.4063 149.125,538.2344 Q150.0156,539.0469 151.6094,539.0469 Q152.5469,539.0469 153.2031,538.7969 Q153.5938,538.6406 154.0156,538.2031 Q154.2813,537.9375 154.4219,537.8594 Q154.5781,537.7813 154.7813,537.7813 Q155.1094,537.7813 155.3594,538.0469 Q155.625,538.2969 155.625,538.6406 Q155.625,538.9844 155.2813,539.3906 Q154.7813,539.9688 153.9844,540.2969 Q152.9063,540.75 151.6094,540.75 Q150.0938,540.75 148.8906,540.125 Q147.9063,539.625 147.2188,538.5625 Q146.5313,537.4844 146.5313,536.2031 L146.5313,535.0469 Q146.5313,533.7188 147.1406,532.5781 Q147.7656,531.4219 148.8594,530.8125 Q149.9531,530.1875 151.1875,530.1875 Q151.9219,530.1875 152.5625,530.3594 Q153.2188,530.5156 153.7656,530.875 Z " fill="#000000"/><text fill="#000000" font-family="sans-serif" font-size="14" lengthAdjust="spacing" textLength="35" x="169" y="540.7969">Stock</text><line style="stroke:#181818;stroke-width:0.5;" x1="119" x2="224" y1="551" y2="551"/><text fill="#000000" font-family="sans-serif" font-size="14" lengthAdjust="spacing" text-decoration="underline" textLength="95" x="124" y="570.1074">maxCards = 24</text><line style="stroke:#181818;stroke-width:0.5;" x1="119" x2="224" y1="577.6211" y2="577.6211"/></g><!--class Waste--><g id="elem_Waste"><rect codeLine="13" fill="#F1F1F1" height="66.6211" id="Waste" rx="2.5" ry="2.5" style="stroke:#181818;stroke-width:0.5;" width="107" x="332" y="519"/><ellipse cx="362.75" cy="535" fill="#ADD1B2" rx="11" ry="11" style="stroke:#181818;stroke-width:1.0;"/><path d="M365.5156,530.875 Q365.6719,530.6563 365.8594,530.5469 Q366.0469,530.4375 366.2656,530.4375 Q366.6406,530.4375 366.875,530.7031 Q367.1094,530.9531 367.1094,531.5625 L367.1094,533.0156 Q367.1094,533.625 366.875,533.8906 Q366.6406,534.1563 366.2656,534.1563 Q365.9219,534.1563 365.7188,533.9531 Q365.5156,533.7656 365.4063,533.25 Q365.3594,532.8906 365.1719,532.7031 Q364.8438,532.3281 364.2344,532.1094 Q363.625,531.8906 363,531.8906 Q362.2344,531.8906 361.5938,532.2188 Q360.9688,532.5469 360.4688,533.2969 Q359.9844,534.0469 359.9844,535.0781 L359.9844,536.1719 Q359.9844,537.4063 360.875,538.2344 Q361.7656,539.0469 363.3594,539.0469 Q364.2969,539.0469 364.9531,538.7969 Q365.3438,538.6406 365.7656,538.2031 Q366.0313,537.9375 366.1719,537.8594 Q366.3281,537.7813 366.5313,537.7813 Q366.8594,537.7813 367.1094,538.0469 Q367.375,538.2969 367.375,538.6406 Q367.375,538.9844 367.0313,539.3906 Q366.5313,539.9688 365.7344,540.2969 Q364.6563,540.75 363.3594,540.75 Q361.8438,540.75 360.6406,540.125 Q359.6563,539.625 358.9688,538.5625 Q358.2813,537.4844 358.2813,536.2031 L358.2813,535.0469 Q358.2813,533.7188 358.8906,532.5781 Q359.5156,531.4219 360.6094,530.8125 Q361.7031,530.1875 362.9375,530.1875 Q363.6719,530.1875 364.3125,530.3594 Q364.9688,530.5156 365.5156,530.875 Z " fill="#000000"/><text fill="#000000" font-family="sans-serif" font-size="14" lengthAdjust="spacing" textLength="40" x="380.25" y="540.7969">Waste</text><line style="stroke:#181818;stroke-width:0.5;" x1="333" x2="438" y1="551" y2="551"/><text fill="#000000" font-family="sans-serif" font-size="14" lengthAdjust="spacing" text-decoration="underline" textLength="95" x="338" y="570.1074">maxCards = 24</text><line style="stroke:#181818;stroke-width:0.5;" x1="333" x2="438" y1="577.6211" y2="577.6211"/></g><!--class Tableau--><g id="elem_Tableau"><rect codeLine="16" fill="#F1F1F1" height="66.6211" id="Tableau" rx="2.5" ry="2.5" style="stroke:#181818;stroke-width:0.5;" width="107" x="474" y="519"/><ellipse cx="499.35" cy="535" fill="#ADD1B2" rx="11" ry="11" style="stroke:#181818;stroke-width:1.0;"/><path d="M502.1156,530.875 Q502.2719,530.6563 502.4594,530.5469 Q502.6469,530.4375 502.8656,530.4375 Q503.2406,530.4375 503.475,530.7031 Q503.7094,530.9531 503.7094,531.5625 L503.7094,533.0156 Q503.7094,533.625 503.475,533.8906 Q503.2406,534.1563 502.8656,534.1563 Q502.5219,534.1563 502.3188,533.9531 Q502.1156,533.7656 502.0063,533.25 Q501.9594,532.8906 501.7719,532.7031 Q501.4438,532.3281 500.8344,532.1094 Q500.225,531.8906 499.6,531.8906 Q498.8344,531.8906 498.1938,532.2188 Q497.5688,532.5469 497.0688,533.2969 Q496.5844,534.0469 496.5844,535.0781 L496.5844,536.1719 Q496.5844,537.4063 497.475,538.2344 Q498.3656,539.0469 499.9594,539.0469 Q500.8969,539.0469 501.5531,538.7969 Q501.9438,538.6406 502.3656,538.2031 Q502.6313,537.9375 502.7719,537.8594 Q502.9281,537.7813 503.1313,537.7813 Q503.4594,537.7813 503.7094,538.0469 Q503.975,538.2969 503.975,538.6406 Q503.975,538.9844 503.6313,539.3906 Q503.1313,539.9688 502.3344,540.2969 Q501.2563,540.75 499.9594,540.75 Q498.4438,540.75 497.2406,540.125 Q496.2563,539.625 495.5688,538.5625 Q494.8813,537.4844 494.8813,536.2031 L494.8813,535.0469 Q494.8813,533.7188 495.4906,532.5781 Q496.1156,531.4219 497.2094,530.8125 Q498.3031,530.1875 499.5375,530.1875 Q500.2719,530.1875 500.9125,530.3594 Q501.5688,530.5156 502.1156,530.875 Z " fill="#000000"/><text fill="#000000" font-family="sans-serif" font-size="14" lengthAdjust="spacing" textLength="52" x="515.65" y="540.7969">Tableau</text><line style="stroke:#181818;stroke-width:0.5;" x1="475" x2="580" y1="551" y2="551"/><text fill="#000000" font-family="sans-serif" font-size="14" lengthAdjust="spacing" text-decoration="underline" textLength="95" x="480" y="570.1074">maxCards = 19</text><line style="stroke:#181818;stroke-width:0.5;" x1="475" x2="580" y1="577.6211" y2="577.6211"/></g><!--class Foundation--><g id="elem_Foundation"><rect codeLine="19" fill="#F1F1F1" height="66.6211" id="Foundation" rx="2.5" ry="2.5" style="stroke:#181818;stroke-width:0.5;" width="107" x="616" y="519"/><ellipse cx="632.35" cy="535" fill="#ADD1B2" rx="11" ry="11" style="stroke:#181818;stroke-width:1.0;"/><path d="M635.1156,530.875 Q635.2719,530.6563 635.4594,530.5469 Q635.6469,530.4375 635.8656,530.4375 Q636.2406,530.4375 636.475,530.7031 Q636.7094,530.9531 636.7094,531.5625 L636.7094,533.0156 Q636.7094,533.625 636.475,533.8906 Q636.2406,534.1563 635.8656,534.1563 Q635.5219,534.1563 635.3188,533.9531 Q635.1156,533.7656 635.0063,533.25 Q634.9594,532.8906 634.7719,532.7031 Q634.4438,532.3281 633.8344,532.1094 Q633.225,531.8906 632.6,531.8906 Q631.8344,531.8906 631.1938,532.2188 Q630.5688,532.5469 630.0688,533.2969 Q629.5844,534.0469 629.5844,535.0781 L629.5844,536.1719 Q629.5844,537.4063 630.475,538.2344 Q631.3656,539.0469 632.9594,539.0469 Q633.8969,539.0469 634.5531,538.7969 Q634.9438,538.6406 635.3656,538.2031 Q635.6313,537.9375 635.7719,537.8594 Q635.9281,537.7813 636.1313,537.7813 Q636.4594,537.7813 636.7094,538.0469 Q636.975,538.2969 636.975,538.6406 Q636.975,538.9844 636.6313,539.3906 Q636.1313,539.9688 635.3344,540.2969 Q634.2563,540.75 632.9594,540.75 Q631.4438,540.75 630.2406,540.125 Q629.2563,539.625 628.5688,538.5625 Q627.8813,537.4844 627.8813,536.2031 L627.8813,535.0469 Q627.8813,533.7188 628.4906,532.5781 Q629.1156,531.4219 630.2094,530.8125 Q631.3031,530.1875 632.5375,530.1875 Q633.2719,530.1875 633.9125,530.3594 Q634.5688,530.5156 635.1156,530.875 Z " fill="#000000"/><text fill="#000000" font-family="sans-serif" font-size="14" lengthAdjust="spacing" textLength="72" x="646.65" y="540.7969">Foundation</text><line style="stroke:#181818;stroke-width:0.5;" x1="617" x2="722" y1="551" y2="551"/><text fill="#000000" font-family="sans-serif" font-size="14" lengthAdjust="spacing" text-decoration="underline" textLength="95" x="622" y="570.1074">maxCards = 13</text><line style="stroke:#181818;stroke-width:0.5;" x1="617" x2="722" y1="577.6211" y2="577.6211"/></g><!--class Card--><g id="elem_Card"><rect codeLine="23" fill="#F1F1F1" height="66.6211" id="Card" rx="2.5" ry="2.5" style="stroke:#181818;stroke-width:0.5;" width="131" x="213" y="707"/><ellipse cx="258.75" cy="723" fill="#ADD1B2" rx="11" ry="11" style="stroke:#181818;stroke-width:1.0;"/><path d="M261.5156,718.875 Q261.6719,718.6563 261.8594,718.5469 Q262.0469,718.4375 262.2656,718.4375 Q262.6406,718.4375 262.875,718.7031 Q263.1094,718.9531 263.1094,719.5625 L263.1094,721.0156 Q263.1094,721.625 262.875,721.8906 Q262.6406,722.1563 262.2656,722.1563 Q261.9219,722.1563 261.7188,721.9531 Q261.5156,721.7656 261.4063,721.25 Q261.3594,720.8906 261.1719,720.7031 Q260.8438,720.3281 260.2344,720.1094 Q259.625,719.8906 259,719.8906 Q258.2344,719.8906 257.5938,720.2188 Q256.9688,720.5469 256.4688,721.2969 Q255.9844,722.0469 255.9844,723.0781 L255.9844,724.1719 Q255.9844,725.4063 256.875,726.2344 Q257.7656,727.0469 259.3594,727.0469 Q260.2969,727.0469 260.9531,726.7969 Q261.3438,726.6406 261.7656,726.2031 Q262.0313,725.9375 262.1719,725.8594 Q262.3281,725.7813 262.5313,725.7813 Q262.8594,725.7813 263.1094,726.0469 Q263.375,726.2969 263.375,726.6406 Q263.375,726.9844 263.0313,727.3906 Q262.5313,727.9688 261.7344,728.2969 Q260.6563,728.75 259.3594,728.75 Q257.8438,728.75 256.6406,728.125 Q255.6563,727.625 254.9688,726.5625 Q254.2813,725.4844 254.2813,724.2031 L254.2813,723.0469 Q254.2813,721.7188 254.8906,720.5781 Q255.5156,719.4219 256.6094,718.8125 Q257.7031,718.1875 258.9375,718.1875 Q259.6719,718.1875 260.3125,718.3594 Q260.9688,718.5156 261.5156,718.875 Z " fill="#000000"/><text fill="#000000" font-family="sans-serif" font-size="14" lengthAdjust="spacing" textLength="31" x="279.25" y="728.7969">Card</text><line style="stroke:#181818;stroke-width:0.5;" x1="214" x2="343" y1="739" y2="739"/><text fill="#000000" font-family="sans-serif" font-size="14" lengthAdjust="spacing" textLength="119" x="219" y="758.1074">displayed: boolean</text><line style="stroke:#181818;stroke-width:0.5;" x1="214" x2="343" y1="765.6211" y2="765.6211"/></g><!--class Rank--><g id="elem_Rank"><rect codeLine="27" fill="#F1F1F1" height="141.1055" id="Rank" rx="2.5" ry="2.5" style="stroke:#181818;stroke-width:0.5;" width="65" x="196" y="834"/><ellipse cx="211" cy="850" fill="#EB937F" rx="11" ry="11" style="stroke:#181818;stroke-width:1.0;"/><path d="M209.8594,850.7969 L209.8594,853.2969 L214.1875,853.2969 L214.1875,852.375 Q214.1875,851.7656 214.4219,851.5 Q214.6719,851.2344 215.0469,851.2344 Q215.4219,851.2344 215.6563,851.5 Q215.8906,851.7656 215.8906,852.375 L215.8906,855 L207.8906,855 Q207.2656,855 207,854.7656 Q206.75,854.5313 206.75,854.1406 Q206.75,853.7656 207.0156,853.5313 Q207.2813,853.2969 207.8906,853.2969 L208.1563,853.2969 L208.1563,846.6406 L207.8906,846.6406 Q207.2656,846.6406 207,846.4063 Q206.75,846.1719 206.75,845.7813 Q206.75,845.4063 207,845.1719 Q207.2656,844.9375 207.8906,844.9375 L215.5156,844.9375 L215.5156,847.5313 Q215.5156,848.1406 215.2813,848.4063 Q215.0625,848.6563 214.6719,848.6563 Q214.2969,848.6563 214.0625,848.4063 Q213.8281,848.1406 213.8281,847.5313 L213.8281,846.6406 L209.8594,846.6406 L209.8594,849.0938 L211.3438,849.0938 Q211.3438,848.4375 211.4688,848.25 Q211.7344,847.8438 212.2031,847.8438 Q212.5781,847.8438 212.8125,848.1094 Q213.0469,848.3594 213.0469,848.9688 L213.0469,850.9375 Q213.0469,851.4844 212.9219,851.6719 Q212.6563,852.0625 212.2031,852.0625 Q211.7344,852.0625 211.4688,851.6563 Q211.3438,851.4688 211.3438,850.7969 L209.8594,850.7969 Z " fill="#000000"/><text fill="#000000" font-family="sans-serif" font-size="14" lengthAdjust="spacing" textLength="33" x="225" y="855.7969">Rank</text><line style="stroke:#181818;stroke-width:0.5;" x1="197" x2="260" y1="866" y2="866"/><text fill="#000000" font-family="sans-serif" font-size="14" lengthAdjust="spacing" textLength="9" x="202" y="885.1074">A</text><text fill="#000000" font-family="sans-serif" font-size="14" lengthAdjust="spacing" textLength="8" x="202" y="903.7285">2</text><text fill="#000000" font-family="sans-serif" font-size="14" lengthAdjust="spacing" textLength="12" x="202" y="922.3496">...</text><text fill="#000000" font-family="sans-serif" font-size="14" lengthAdjust="spacing" textLength="47" x="202" y="940.9707">QUEEN</text><text fill="#000000" font-family="sans-serif" font-size="14" lengthAdjust="spacing" textLength="32" x="202" y="959.5918">KING</text><line style="stroke:#181818;stroke-width:0.5;" x1="197" x2="260" y1="967.1055" y2="967.1055"/></g><!--class Suite--><g id="elem_Suite"><rect codeLine="35" fill="#F1F1F1" height="48" id="Suite" rx="2.5" ry="2.5" style="stroke:#181818;stroke-width:0.5;" width="64" x="296.5" y="880.5"/><ellipse cx="311.5" cy="896.5" fill="#A9DCDF" rx="11" ry="11" style="stroke:#181818;stroke-width:1.0;"/><path d="M313.6875,898.2656 L309.5469,898.2656 L309.125,899.2969 L309.5469,899.2969 Q310.1563,899.2969 310.4219,899.5313 Q310.6875,899.7656 310.6875,900.1563 Q310.6875,900.5313 310.4219,900.7656 Q310.1563,901 309.5469,901 L307.25,901 Q306.6406,901 306.3906,900.7656 Q306.125,900.5313 306.125,900.1406 Q306.125,899.7656 306.4063,899.5313 Q306.6719,899.2813 307.2969,899.2969 L309.9688,892.6406 L308.8594,892.6406 Q308.25,892.6406 307.9844,892.4063 Q307.7188,892.1719 307.7188,891.7813 Q307.7188,891.4063 307.9844,891.1719 Q308.25,890.9375 308.8594,890.9375 L312.5313,890.9375 L315.9219,899.2969 Q316.5156,899.2969 316.7031,899.4375 Q317.0938,899.7031 317.0938,900.1563 Q317.0938,900.5313 316.8281,900.7656 Q316.5781,901 315.9688,901 L313.6719,901 Q313.0625,901 312.7969,900.7656 Q312.5313,900.5313 312.5313,900.1406 Q312.5313,899.7656 312.7969,899.5313 Q313.0625,899.2969 313.6719,899.2969 L314.0938,899.2969 L313.6875,898.2656 Z M312.9688,896.5625 L311.6094,893.1875 L310.2344,896.5625 L312.9688,896.5625 Z " fill="#000000"/><text fill="#000000" font-family="sans-serif" font-size="14" font-style="italic" lengthAdjust="spacing" textLength="32" x="325.5" y="902.2969">Suite</text><line style="stroke:#181818;stroke-width:0.5;" x1="297.5" x2="359.5" y1="912.5" y2="912.5"/><line style="stroke:#181818;stroke-width:0.5;" x1="297.5" x2="359.5" y1="920.5" y2="920.5"/></g><!--class Spade--><g id="elem_Spade"><rect codeLine="36" fill="#F1F1F1" height="66.6211" id="Spade" rx="2.5" ry="2.5" style="stroke:#181818;stroke-width:0.5;" width="107" x="7" y="1044"/><ellipse cx="37.3" cy="1060" fill="#ADD1B2" rx="11" ry="11" style="stroke:#181818;stroke-width:1.0;"/><path d="M40.0656,1055.875 Q40.2219,1055.6563 40.4094,1055.5469 Q40.5969,1055.4375 40.8156,1055.4375 Q41.1906,1055.4375 41.425,1055.7031 Q41.6594,1055.9531 41.6594,1056.5625 L41.6594,1058.0156 Q41.6594,1058.625 41.425,1058.8906 Q41.1906,1059.1563 40.8156,1059.1563 Q40.4719,1059.1563 40.2688,1058.9531 Q40.0656,1058.7656 39.9563,1058.25 Q39.9094,1057.8906 39.7219,1057.7031 Q39.3938,1057.3281 38.7844,1057.1094 Q38.175,1056.8906 37.55,1056.8906 Q36.7844,1056.8906 36.1438,1057.2188 Q35.5188,1057.5469 35.0188,1058.2969 Q34.5344,1059.0469 34.5344,1060.0781 L34.5344,1061.1719 Q34.5344,1062.4063 35.425,1063.2344 Q36.3156,1064.0469 37.9094,1064.0469 Q38.8469,1064.0469 39.5031,1063.7969 Q39.8938,1063.6406 40.3156,1063.2031 Q40.5813,1062.9375 40.7219,1062.8594 Q40.8781,1062.7813 41.0813,1062.7813 Q41.4094,1062.7813 41.6594,1063.0469 Q41.925,1063.2969 41.925,1063.6406 Q41.925,1063.9844 41.5813,1064.3906 Q41.0813,1064.9688 40.2844,1065.2969 Q39.2063,1065.75 37.9094,1065.75 Q36.3938,1065.75 35.1906,1065.125 Q34.2063,1064.625 33.5188,1063.5625 Q32.8313,1062.4844 32.8313,1061.2031 L32.8313,1060.0469 Q32.8313,1058.7188 33.4406,1057.5781 Q34.0656,1056.4219 35.1594,1055.8125 Q36.2531,1055.1875 37.4875,1055.1875 Q38.2219,1055.1875 38.8625,1055.3594 Q39.5188,1055.5156 40.0656,1055.875 Z " fill="#000000"/><text fill="#000000" font-family="sans-serif" font-size="14" lengthAdjust="spacing" textLength="41" x="54.7" y="1065.7969">Spade</text><line style="stroke:#181818;stroke-width:0.5;" x1="8" x2="113" y1="1076" y2="1076"/><text fill="#000000" font-family="sans-serif" font-size="14" lengthAdjust="spacing" textLength="95" x="13" y="1095.1074">Color = BLACK</text><line style="stroke:#181818;stroke-width:0.5;" x1="8" x2="113" y1="1102.6211" y2="1102.6211"/></g><!--class Heart--><g id="elem_Heart"><rect codeLine="39" fill="#F1F1F1" height="66.6211" id="Heart" rx="2.5" ry="2.5" style="stroke:#181818;stroke-width:0.5;" width="91" x="149" y="1044"/><ellipse cx="175.25" cy="1060" fill="#ADD1B2" rx="11" ry="11" style="stroke:#181818;stroke-width:1.0;"/><path d="M178.0156,1055.875 Q178.1719,1055.6563 178.3594,1055.5469 Q178.5469,1055.4375 178.7656,1055.4375 Q179.1406,1055.4375 179.375,1055.7031 Q179.6094,1055.9531 179.6094,1056.5625 L179.6094,1058.0156 Q179.6094,1058.625 179.375,1058.8906 Q179.1406,1059.1563 178.7656,1059.1563 Q178.4219,1059.1563 178.2188,1058.9531 Q178.0156,1058.7656 177.9063,1058.25 Q177.8594,1057.8906 177.6719,1057.7031 Q177.3438,1057.3281 176.7344,1057.1094 Q176.125,1056.8906 175.5,1056.8906 Q174.7344,1056.8906 174.0938,1057.2188 Q173.4688,1057.5469 172.9688,1058.2969 Q172.4844,1059.0469 172.4844,1060.0781 L172.4844,1061.1719 Q172.4844,1062.4063 173.375,1063.2344 Q174.2656,1064.0469 175.8594,1064.0469 Q176.7969,1064.0469 177.4531,1063.7969 Q177.8438,1063.6406 178.2656,1063.2031 Q178.5313,1062.9375 178.6719,1062.8594 Q178.8281,1062.7813 179.0313,1062.7813 Q179.3594,1062.7813 179.6094,1063.0469 Q179.875,1063.2969 179.875,1063.6406 Q179.875,1063.9844 179.5313,1064.3906 Q179.0313,1064.9688 178.2344,1065.2969 Q177.1563,1065.75 175.8594,1065.75 Q174.3438,1065.75 173.1406,1065.125 Q172.1563,1064.625 171.4688,1063.5625 Q170.7813,1062.4844 170.7813,1061.2031 L170.7813,1060.0469 Q170.7813,1058.7188 171.3906,1057.5781 Q172.0156,1056.4219 173.1094,1055.8125 Q174.2031,1055.1875 175.4375,1055.1875 Q176.1719,1055.1875 176.8125,1055.3594 Q177.4688,1055.5156 178.0156,1055.875 Z " fill="#000000"/><text fill="#000000" font-family="sans-serif" font-size="14" lengthAdjust="spacing" textLength="34" x="191.75" y="1065.7969">Heart</text><line style="stroke:#181818;stroke-width:0.5;" x1="150" x2="239" y1="1076" y2="1076"/><text fill="#000000" font-family="sans-serif" font-size="14" lengthAdjust="spacing" textLength="79" x="155" y="1095.1074">Color = RED</text><line style="stroke:#181818;stroke-width:0.5;" x1="150" x2="239" y1="1102.6211" y2="1102.6211"/></g><!--class Club--><g id="elem_Club"><rect codeLine="42" fill="#F1F1F1" height="66.6211" id="Club" rx="2.5" ry="2.5" style="stroke:#181818;stroke-width:0.5;" width="107" x="275" y="1044"/><ellipse cx="310.7" cy="1060" fill="#ADD1B2" rx="11" ry="11" style="stroke:#181818;stroke-width:1.0;"/><path d="M313.4656,1055.875 Q313.6219,1055.6563 313.8094,1055.5469 Q313.9969,1055.4375 314.2156,1055.4375 Q314.5906,1055.4375 314.825,1055.7031 Q315.0594,1055.9531 315.0594,1056.5625 L315.0594,1058.0156 Q315.0594,1058.625 314.825,1058.8906 Q314.5906,1059.1563 314.2156,1059.1563 Q313.8719,1059.1563 313.6688,1058.9531 Q313.4656,1058.7656 313.3563,1058.25 Q313.3094,1057.8906 313.1219,1057.7031 Q312.7938,1057.3281 312.1844,1057.1094 Q311.575,1056.8906 310.95,1056.8906 Q310.1844,1056.8906 309.5438,1057.2188 Q308.9188,1057.5469 308.4188,1058.2969 Q307.9344,1059.0469 307.9344,1060.0781 L307.9344,1061.1719 Q307.9344,1062.4063 308.825,1063.2344 Q309.7156,1064.0469 311.3094,1064.0469 Q312.2469,1064.0469 312.9031,1063.7969 Q313.2938,1063.6406 313.7156,1063.2031 Q313.9813,1062.9375 314.1219,1062.8594 Q314.2781,1062.7813 314.4813,1062.7813 Q314.8094,1062.7813 315.0594,1063.0469 Q315.325,1063.2969 315.325,1063.6406 Q315.325,1063.9844 314.9813,1064.3906 Q314.4813,1064.9688 313.6844,1065.2969 Q312.6063,1065.75 311.3094,1065.75 Q309.7938,1065.75 308.5906,1065.125 Q307.6063,1064.625 306.9188,1063.5625 Q306.2313,1062.4844 306.2313,1061.2031 L306.2313,1060.0469 Q306.2313,1058.7188 306.8406,1057.5781 Q307.4656,1056.4219 308.5594,1055.8125 Q309.6531,1055.1875 310.8875,1055.1875 Q311.6219,1055.1875 312.2625,1055.3594 Q312.9188,1055.5156 313.4656,1055.875 Z " fill="#000000"/><text fill="#000000" font-family="sans-serif" font-size="14" lengthAdjust="spacing" textLength="29" x="329.3" y="1065.7969">Club</text><line style="stroke:#181818;stroke-width:0.5;" x1="276" x2="381" y1="1076" y2="1076"/><text fill="#000000" font-family="sans-serif" font-size="14" lengthAdjust="spacing" textLength="95" x="281" y="1095.1074">Color = BLACK</text><line style="stroke:#181818;stroke-width:0.5;" x1="276" x2="381" y1="1102.6211" y2="1102.6211"/></g><!--class Diamond--><g id="elem_Diamond"><rect codeLine="45" fill="#F1F1F1" height="66.6211" id="Diamond" rx="2.5" ry="2.5" style="stroke:#181818;stroke-width:0.5;" width="91" x="417" y="1044"/><ellipse cx="433.35" cy="1060" fill="#ADD1B2" rx="11" ry="11" style="stroke:#181818;stroke-width:1.0;"/><path d="M436.1156,1055.875 Q436.2719,1055.6563 436.4594,1055.5469 Q436.6469,1055.4375 436.8656,1055.4375 Q437.2406,1055.4375 437.475,1055.7031 Q437.7094,1055.9531 437.7094,1056.5625 L437.7094,1058.0156 Q437.7094,1058.625 437.475,1058.8906 Q437.2406,1059.1563 436.8656,1059.1563 Q436.5219,1059.1563 436.3188,1058.9531 Q436.1156,1058.7656 436.0063,1058.25 Q435.9594,1057.8906 435.7719,1057.7031 Q435.4438,1057.3281 434.8344,1057.1094 Q434.225,1056.8906 433.6,1056.8906 Q432.8344,1056.8906 432.1938,1057.2188 Q431.5688,1057.5469 431.0688,1058.2969 Q430.5844,1059.0469 430.5844,1060.0781 L430.5844,1061.1719 Q430.5844,1062.4063 431.475,1063.2344 Q432.3656,1064.0469 433.9594,1064.0469 Q434.8969,1064.0469 435.5531,1063.7969 Q435.9438,1063.6406 436.3656,1063.2031 Q436.6313,1062.9375 436.7719,1062.8594 Q436.9281,1062.7813 437.1313,1062.7813 Q437.4594,1062.7813 437.7094,1063.0469 Q437.975,1063.2969 437.975,1063.6406 Q437.975,1063.9844 437.6313,1064.3906 Q437.1313,1064.9688 436.3344,1065.2969 Q435.2563,1065.75 433.9594,1065.75 Q432.4438,1065.75 431.2406,1065.125 Q430.2563,1064.625 429.5688,1063.5625 Q428.8813,1062.4844 428.8813,1061.2031 L428.8813,1060.0469 Q428.8813,1058.7188 429.4906,1057.5781 Q430.1156,1056.4219 431.2094,1055.8125 Q432.3031,1055.1875 433.5375,1055.1875 Q434.2719,1055.1875 434.9125,1055.3594 Q435.5688,1055.5156 436.1156,1055.875 Z " fill="#000000"/><text fill="#000000" font-family="sans-serif" font-size="14" lengthAdjust="spacing" textLength="56" x="447.65" y="1065.7969">Diamond</text><line style="stroke:#181818;stroke-width:0.5;" x1="418" x2="507" y1="1076" y2="1076"/><text fill="#000000" font-family="sans-serif" font-size="14" lengthAdjust="spacing" textLength="79" x="423" y="1095.1074">Color = RED</text><line style="stroke:#181818;stroke-width:0.5;" x1="418" x2="507" y1="1102.6211" y2="1102.6211"/></g><!--class Color--><g id="elem_Color"><rect codeLine="49" fill="#F1F1F1" height="85.2422" id="Color" rx="2.5" ry="2.5" style="stroke:#181818;stroke-width:0.5;" width="66" x="543.5" y="1035"/><ellipse cx="558.5" cy="1051" fill="#EB937F" rx="11" ry="11" style="stroke:#181818;stroke-width:1.0;"/><path d="M557.3594,1051.7969 L557.3594,1054.2969 L561.6875,1054.2969 L561.6875,1053.375 Q561.6875,1052.7656 561.9219,1052.5 Q562.1719,1052.2344 562.5469,1052.2344 Q562.9219,1052.2344 563.1563,1052.5 Q563.3906,1052.7656 563.3906,1053.375 L563.3906,1056 L555.3906,1056 Q554.7656,1056 554.5,1055.7656 Q554.25,1055.5313 554.25,1055.1406 Q554.25,1054.7656 554.5156,1054.5313 Q554.7813,1054.2969 555.3906,1054.2969 L555.6563,1054.2969 L555.6563,1047.6406 L555.3906,1047.6406 Q554.7656,1047.6406 554.5,1047.4063 Q554.25,1047.1719 554.25,1046.7813 Q554.25,1046.4063 554.5,1046.1719 Q554.7656,1045.9375 555.3906,1045.9375 L563.0156,1045.9375 L563.0156,1048.5313 Q563.0156,1049.1406 562.7813,1049.4063 Q562.5625,1049.6563 562.1719,1049.6563 Q561.7969,1049.6563 561.5625,1049.4063 Q561.3281,1049.1406 561.3281,1048.5313 L561.3281,1047.6406 L557.3594,1047.6406 L557.3594,1050.0938 L558.8438,1050.0938 Q558.8438,1049.4375 558.9688,1049.25 Q559.2344,1048.8438 559.7031,1048.8438 Q560.0781,1048.8438 560.3125,1049.1094 Q560.5469,1049.3594 560.5469,1049.9688 L560.5469,1051.9375 Q560.5469,1052.4844 560.4219,1052.6719 Q560.1563,1053.0625 559.7031,1053.0625 Q559.2344,1053.0625 558.9688,1052.6563 Q558.8438,1052.4688 558.8438,1051.7969 L557.3594,1051.7969 Z " fill="#000000"/><text fill="#000000" font-family="sans-serif" font-size="14" lengthAdjust="spacing" textLength="34" x="572.5" y="1056.7969">Color</text><line style="stroke:#181818;stroke-width:0.5;" x1="544.5" x2="608.5" y1="1067" y2="1067"/><text fill="#000000" font-family="sans-serif" font-size="14" lengthAdjust="spacing" textLength="29" x="549.5" y="1086.1074">RED</text><text fill="#000000" font-family="sans-serif" font-size="14" lengthAdjust="spacing" textLength="45" x="549.5" y="1104.7285">BLACK</text><line style="stroke:#181818;stroke-width:0.5;" x1="544.5" x2="608.5" y1="1112.2422" y2="1112.2422"/></g><!--link Klondike to Deck--><g id="link_Klondike_Deck"><path codeLine="54" d="M545.5979,53.6514 C579.4179,68.1614 615.59,86.5 651.5,115 C691.57,146.81 724.6295,189.6714 744.4595,217.8814 " fill="none" id="Klondike-Deck" style="stroke:#181818;stroke-width:1.0;"/><polygon fill="#181818" points="534.57,48.92,538.5068,54.9616,545.5979,53.6514,541.6611,47.6097,534.57,48.92" style="stroke:#181818;stroke-width:1.0;"/><polygon fill="#181818" points="747.91,222.79,746.0067,213.1268,745.0346,218.6995,739.4619,217.7274,747.91,222.79" style="stroke:#181818;stroke-width:1.0;"/></g><!--link Klondike to Stock--><g id="link_Klondike_Stock"><path codeLine="55" d="M437.1074,50.4656 C365.3474,77.2456 240.5,138.06 240.5,246 C240.5,246 240.5,246 240.5,332 C240.5,400.91 211.7926,471.2135 191.3526,513.2735 " fill="none" id="Klondike-Stock" style="stroke:#181818;stroke-width:1.0;"/><polygon fill="#181818" points="448.35,46.27,441.3301,44.6203,437.1074,50.4656,444.1272,52.1154,448.35,46.27" style="stroke:#181818;stroke-width:1.0;"/><polygon fill="#181818" points="188.73,518.67,196.2615,512.3236,190.9155,514.1729,189.0662,508.8269,188.73,518.67" style="stroke:#181818;stroke-width:1.0;"/></g><!--link Klondike to Waste--><g id="link_Klondike_Waste"><path codeLine="56" d="M482.1622,66.8495 C472.0822,105.9195 456.5,175.79 456.5,246 C456.5,246 456.5,246 456.5,332 C456.5,401.09 426.9463,471.365 405.9163,513.365 " fill="none" id="Klondike-Waste" style="stroke:#181818;stroke-width:1.0;"/><polygon fill="#181818" points="485.16,55.23,479.7879,60.0405,482.1622,66.8495,487.5343,62.039,485.16,55.23" style="stroke:#181818;stroke-width:1.0;"/><polygon fill="#181818" points="403.23,518.73,410.8362,512.4734,405.4686,514.2591,403.6828,508.8916,403.23,518.73" style="stroke:#181818;stroke-width:1.0;"/></g><!--link Klondike to Tableau--><g id="link_Klondike_Tableau"><path codeLine="57" d="M501.0999,66.818 C511.4699,105.868 527.5,175.74 527.5,246 C527.5,246 527.5,246 527.5,332 C527.5,398.31 527.5,469.88 527.5,512.77 " fill="none" id="Klondike-Tableau" style="stroke:#181818;stroke-width:1.0;"/><polygon fill="#181818" points="498.02,55.22,495.694,62.0457,501.0999,66.818,503.426,59.9924,498.02,55.22" style="stroke:#181818;stroke-width:1.0;"/><polygon fill="#181818" points="527.5,518.77,531.5,509.77,527.5,513.77,523.5,509.77,527.5,518.77" style="stroke:#181818;stroke-width:1.0;"/><text fill="#000000" font-family="sans-serif" font-size="13" lengthAdjust="spacing" textLength="7" x="519.8328" y="507.8121">7</text></g><!--link Klondike to Foundation--><g id="link_Klondike_Foundation"><path codeLine="58" d="M527.0854,63.1734 C566.1954,99.4734 625.5,166 625.5,246 C625.5,246 625.5,246 625.5,332 C625.5,399.43 643.9524,470.5432 656.9824,513.0732 " fill="none" id="Klondike-Foundation" style="stroke:#181818;stroke-width:1.0;"/><polygon fill="#181818" points="518.29,55.01,519.9665,62.0235,527.0854,63.1734,525.4088,56.1599,518.29,55.01" style="stroke:#181818;stroke-width:1.0;"/><polygon fill="#181818" points="658.74,518.81,659.9281,509.0331,657.2753,514.0293,652.2791,511.3765,658.74,518.81" style="stroke:#181818;stroke-width:1.0;"/><text fill="#000000" font-family="sans-serif" font-size="13" lengthAdjust="spacing" textLength="7" x="649.0217" y="507.8597">4</text></g><!--link Klondike to Player--><g id="link_Klondike_Player"><path codeLine="60" d="M436.5249,47.4327 C381.7749,62.9527 296.45,87.79 214.5,115 C205.77,117.9 202.0691,119.1506 193.3191,122.3306 " fill="none" id="Klondike-Player" style="stroke:#181818;stroke-width:1.0;"/><polygon fill="#181818" points="448.07,44.16,441.2065,41.948,436.5249,47.4327,443.3883,49.6447,448.07,44.16" style="stroke:#181818;stroke-width:1.0;"/><polygon fill="#181818" points="187.68,124.38,197.505,125.0653,192.3793,122.6721,194.7724,117.5464,187.68,124.38" style="stroke:#181818;stroke-width:1.0;"/></g><!--link Player to Card--><g id="link_Player_Card"><path codeLine="62" d="M133.05,163.16 C107.51,197.63 64.5,265.41 64.5,331 C64.5,331 64.5,331 64.5,553.5 C64.5,633.12 144.4624,683.9091 207.3724,712.3391 " fill="none" id="Player-to-Card" style="stroke:#181818;stroke-width:1.0;stroke-dasharray:7.0,7.0;"/><polygon fill="#181818" points="212.84,714.81,206.2859,707.4586,208.2837,712.7509,202.9913,714.7487,212.84,714.81" style="stroke:#181818;stroke-width:1.0;"/></g><!--link Player to Pile--><g id="link_Player_Pile"><path codeLine="63" d="M167.62,163.28 C202.63,213.84 282.2847,328.8669 322.4947,386.9469 " fill="none" id="Player-to-Pile" style="stroke:#181818;stroke-width:1.0;stroke-dasharray:7.0,7.0;"/><polygon fill="#181818" points="325.91,391.88,324.0758,382.2034,323.0639,387.7691,317.4983,386.7572,325.91,391.88" style="stroke:#181818;stroke-width:1.0;"/></g><!--link Deck to Card--><g id="link_Deck_Card"><path codeLine="65" d="M767.6428,283.0135 C771.4628,316.6835 776.5,369.35 776.5,424.5 C776.5,424.5 776.5,424.5 776.5,553.5 C776.5,644.75 485.2639,704.9972 350.0339,728.1572 " fill="none" id="Deck-Card" style="stroke:#181818;stroke-width:1.0;"/><polygon fill="#181818" points="766.29,271.09,762.9919,277.5027,767.6428,283.0135,770.9409,276.6008,766.29,271.09" style="stroke:#181818;stroke-width:1.0;"/><polygon fill="#181818" points="344.12,729.17,353.6661,731.5933,349.0482,728.326,352.3156,723.7081,344.12,729.17" style="stroke:#181818;stroke-width:1.0;"/><text fill="#000000" font-family="sans-serif" font-size="13" lengthAdjust="spacing" textLength="36" x="352.09" y="724.3402">13 x 4</text></g><!--link Card to Suite--><g id="link_Card_Suite"><path codeLine="67" d="M288.62,774.28 C298.32,805.72 310.9487,846.6574 319.5387,874.4574 " fill="none" id="Card-to-Suite" style="stroke:#181818;stroke-width:1.0;"/><polygon fill="#181818" points="321.31,880.19,322.4747,870.4103,319.8339,875.4129,314.8313,872.772,321.31,880.19" style="stroke:#181818;stroke-width:1.0;"/></g><!--link Card to Rank--><g id="link_Card_Rank"><path codeLine="68" d="M268.38,774.28 C263.07,791.48 258.13,807.507 251.73,828.237 " fill="none" id="Card-to-Rank" style="stroke:#181818;stroke-width:1.0;"/><polygon fill="#181818" points="249.96,833.97,256.4369,826.5505,251.435,829.1925,248.7929,824.1905,249.96,833.97" style="stroke:#181818;stroke-width:1.0;"/></g><!--reverse link Suite to Spade--><g id="link_Suite_Spade"><path codeLine="70" d="M307.1532,944.2469 C298.3432,959.1569 294.38,962.49 278.5,975 C223.07,1018.67 194.79,1003.78 131.5,1035 C125.87,1037.78 120.07,1040.83 114.34,1043.97 " fill="none" id="Suite-backto-Spade" style="stroke:#181818;stroke-width:1.0;"/><polygon fill="none" points="316.31,928.75,301.9876,941.1946,312.3189,947.2991,316.31,928.75" style="stroke:#181818;stroke-width:1.0;"/></g><!--reverse link Suite to Heart--><g id="link_Suite_Heart"><path codeLine="71" d="M302.0707,943.3532 C292.4507,957.0032 290.22,959.82 278.5,975 C260.47,998.36 239.28,1023.95 222.69,1043.59 " fill="none" id="Suite-backto-Heart" style="stroke:#181818;stroke-width:1.0;"/><polygon fill="none" points="312.44,928.64,297.1663,939.8968,306.9751,946.8096,312.44,928.64" style="stroke:#181818;stroke-width:1.0;"/></g><!--reverse link Suite to Club--><g id="link_Suite_Club"><path codeLine="72" d="M328.5,946.56 C328.5,976.28 328.5,1010.13 328.5,1043.88 " fill="none" id="Suite-backto-Club" style="stroke:#181818;stroke-width:1.0;"/><polygon fill="none" points="328.5,928.56,322.5,946.56,334.5,946.56,328.5,928.56" style="stroke:#181818;stroke-width:1.0;"/></g><!--reverse link Suite to Diamond--><g id="link_Suite_Diamond"><path codeLine="73" d="M357.6727,942.7279 C380.9627,972.4479 410.49,1010.13 436.94,1043.88 " fill="none" id="Suite-backto-Diamond" style="stroke:#181818;stroke-width:1.0;"/><polygon fill="none" points="346.57,928.56,352.95,946.4288,362.3953,939.0271,346.57,928.56" style="stroke:#181818;stroke-width:1.0;"/></g><!--link Suite to Color--><g id="link_Suite_Color"><path codeLine="74" d="M360.56,925.17 C400.11,949.75 469.04,993.64 525.5,1035 C531.39,1039.32 532.8432,1040.3238 538.7232,1045.0238 " fill="none" id="Suite-to-Color" style="stroke:#181818;stroke-width:1.0;"/><polygon fill="#181818" points="543.41,1048.77,538.8773,1040.0261,539.5044,1045.6481,533.8824,1046.2752,543.41,1048.77" style="stroke:#181818;stroke-width:1.0;"/></g><!--link Pile to Card--><g id="link_Pile_Card"><path codeLine="76" d="M330.263,470.5715 C323.373,488.0215 319.81,498.81 314.5,519 C297.24,584.65 287.4348,657.6181 282.5248,700.9981 " fill="none" id="Pile-Card" style="stroke:#181818;stroke-width:1.0;"/><polygon fill="none" points="334.67,459.41,328.746,463.5217,330.263,470.5715,336.187,466.4597,334.67,459.41" style="stroke:#181818;stroke-width:1.0;"/><polygon fill="#181818" points="281.85,706.96,286.8368,698.467,282.4123,701.9917,278.8876,697.5672,281.85,706.96" style="stroke:#181818;stroke-width:1.0;"/><text fill="#000000" font-family="sans-serif" font-size="13" lengthAdjust="spacing" textLength="5" x="277.0173" y="695.7776">*</text></g><!--reverse link Pile to Stock--><g id="link_Pile_Stock"><path codeLine="78" d="M287.7552,469.4012 C261.6352,487.8412 243.75,500.47 217.62,518.93 " fill="none" id="Pile-backto-Stock" style="stroke:#181818;stroke-width:1.0;"/><polygon fill="none" points="302.46,459.02,284.2948,464.4996,291.2156,474.3028,302.46,459.02" style="stroke:#181818;stroke-width:1.0;"/></g><!--reverse link Pile to Waste--><g id="link_Pile_Waste"><path codeLine="79" d="M363.231,476.2791 C368.671,494.6491 370.34,500.29 375.79,518.71 " fill="none" id="Pile-backto-Waste" style="stroke:#181818;stroke-width:1.0;"/><polygon fill="none" points="358.12,459.02,357.478,477.9828,368.9841,474.5754,358.12,459.02" style="stroke:#181818;stroke-width:1.0;"/></g><!--reverse link Pile to Tableau--><g id="link_Pile_Tableau"><path codeLine="80" d="M409.8203,469.3221 C436.2403,487.7621 454.43,500.47 480.86,518.93 " fill="none" id="Pile-backto-Tableau" style="stroke:#181818;stroke-width:1.0;"/><polygon fill="none" points="395.06,459.02,406.3863,474.2422,413.2544,464.402,395.06,459.02" style="stroke:#181818;stroke-width:1.0;"/></g><!--reverse link Pile to Foundation--><g id="link_Pile_Foundation"><path codeLine="81" d="M420.5586,451.5172 C471.5186,469.4572 532.2,491.61 598.5,519 C604.14,521.33 609.99,523.84 615.8,526.41 " fill="none" id="Pile-backto-Foundation" style="stroke:#181818;stroke-width:1.0;"/><polygon fill="none" points="403.58,445.54,418.5662,457.1767,422.551,445.8576,403.58,445.54" style="stroke:#181818;stroke-width:1.0;"/></g><!--SRC=[ZP9TQy8m58RlyoiENWeM_80nsGQkkWySiisDNQTDBegnaIPb3kT_NtAIL5khh1T9yvmtoJddJIgeKZ0NCcVPYfCKbw-2_l32BwOyNH524wKBcchmYapm7G7pxPIcEaltiARRc1PCZI4lrsHF_FQbbkdgZ1HkOJ0oKgVyeahpVoa_Q28uBSzh-zULza6MEJC2cL-G3m_vMkQKB5CRsmWsXaHASs5kLTnK1-yqzpLDS1pW64KHpc-Viza2_-RFYqUxgT6zPPdfqElbXZ9VTIo5B4mwzo-JU5uLyCHfeUk2zzcq2iUYJ2vjdsPqRSnjEy3LWio5BRPpE864Tm7T7fFVUU_ElOPJZ2wtSFIqXNUkEi75jkYeS-HRMnh-XH8tGuGyCW5htocrpvKGc_lH9VqXRC7SX5k87Q4g1msg8Miv8HY0crz7dNbDY8OreRMfoRmr7eUBq0zJcKaPPCzHcsutP8gHGmhO-JfpNQ-pqEqwFUxo7m00]--></g></svg>