<?xml version="1.0" encoding="us-ascii" standalone="no"?><svg xmlns="http://www.w3.org/2000/svg" xmlns:xlink="http://www.w3.org/1999/xlink" contentStyleType="text/css" height="947px" preserveAspectRatio="none" style="width:1633px;height:947px;background:#FFFFFF;" version="1.1" viewBox="0 0 1633 947" width="1633px" zoomAndPan="magnify"><defs/><g><!--class Klondike--><g id="elem_Klondike"><rect codeLine="2" fill="#F1F1F1" height="48" id="Klondike" rx="2.5" ry="2.5" style="stroke:#181818;stroke-width:0.5;" width="86" x="1092.02" y="7"/><ellipse cx="1107.02" cy="23" fill="#ADD1B2" rx="11" ry="11" style="stroke:#181818;stroke-width:1.0;"/><path d="M1109.7856,18.875 Q1109.9419,18.6563 1110.1294,18.5469 Q1110.3169,18.4375 1110.5356,18.4375 Q1110.9106,18.4375 1111.145,18.7031 Q1111.3794,18.9531 1111.3794,19.5625 L1111.3794,21.0156 Q1111.3794,21.625 1111.145,21.8906 Q1110.9106,22.1563 1110.5356,22.1563 Q1110.1919,22.1563 1109.9888,21.9531 Q1109.7856,21.7656 1109.6763,21.25 Q1109.6294,20.8906 1109.4419,20.7031 Q1109.1138,20.3281 1108.5044,20.1094 Q1107.895,19.8906 1107.27,19.8906 Q1106.5044,19.8906 1105.8638,20.2188 Q1105.2388,20.5469 1104.7388,21.2969 Q1104.2544,22.0469 1104.2544,23.0781 L1104.2544,24.1719 Q1104.2544,25.4063 1105.145,26.2344 Q1106.0356,27.0469 1107.6294,27.0469 Q1108.5669,27.0469 1109.2231,26.7969 Q1109.6138,26.6406 1110.0356,26.2031 Q1110.3013,25.9375 1110.4419,25.8594 Q1110.5981,25.7813 1110.8013,25.7813 Q1111.1294,25.7813 1111.3794,26.0469 Q1111.645,26.2969 1111.645,26.6406 Q1111.645,26.9844 1111.3013,27.3906 Q1110.8013,27.9688 1110.0044,28.2969 Q1108.9263,28.75 1107.6294,28.75 Q1106.1138,28.75 1104.9106,28.125 Q1103.9263,27.625 1103.2388,26.5625 Q1102.5513,25.4844 1102.5513,24.2031 L1102.5513,23.0469 Q1102.5513,21.7188 1103.1606,20.5781 Q1103.7856,19.4219 1104.8794,18.8125 Q1105.9731,18.1875 1107.2075,18.1875 Q1107.9419,18.1875 1108.5825,18.3594 Q1109.2388,18.5156 1109.7856,18.875 Z " fill="#000000"/><text fill="#000000" font-family="sans-serif" font-size="14" lengthAdjust="spacing" textLength="54" x="1121.02" y="28.7969">Klondike</text><line style="stroke:#181818;stroke-width:0.5;" x1="1093.02" x2="1177.02" y1="39" y2="39"/><line style="stroke:#181818;stroke-width:0.5;" x1="1093.02" x2="1177.02" y1="47" y2="47"/></g><!--class Player--><g id="elem_Player"><rect codeLine="3" fill="#F1F1F1" height="48" id="Player" rx="2.5" ry="2.5" style="stroke:#181818;stroke-width:0.5;" width="72" x="1099.02" y="116"/><ellipse cx="1114.02" cy="132" fill="#ADD1B2" rx="11" ry="11" style="stroke:#181818;stroke-width:1.0;"/><path d="M1116.7856,127.875 Q1116.9419,127.6563 1117.1294,127.5469 Q1117.3169,127.4375 1117.5356,127.4375 Q1117.9106,127.4375 1118.145,127.7031 Q1118.3794,127.9531 1118.3794,128.5625 L1118.3794,130.0156 Q1118.3794,130.625 1118.145,130.8906 Q1117.9106,131.1563 1117.5356,131.1563 Q1117.1919,131.1563 1116.9888,130.9531 Q1116.7856,130.7656 1116.6763,130.25 Q1116.6294,129.8906 1116.4419,129.7031 Q1116.1138,129.3281 1115.5044,129.1094 Q1114.895,128.8906 1114.27,128.8906 Q1113.5044,128.8906 1112.8638,129.2188 Q1112.2388,129.5469 1111.7388,130.2969 Q1111.2544,131.0469 1111.2544,132.0781 L1111.2544,133.1719 Q1111.2544,134.4063 1112.145,135.2344 Q1113.0356,136.0469 1114.6294,136.0469 Q1115.5669,136.0469 1116.2231,135.7969 Q1116.6138,135.6406 1117.0356,135.2031 Q1117.3013,134.9375 1117.4419,134.8594 Q1117.5981,134.7813 1117.8013,134.7813 Q1118.1294,134.7813 1118.3794,135.0469 Q1118.645,135.2969 1118.645,135.6406 Q1118.645,135.9844 1118.3013,136.3906 Q1117.8013,136.9688 1117.0044,137.2969 Q1115.9263,137.75 1114.6294,137.75 Q1113.1138,137.75 1111.9106,137.125 Q1110.9263,136.625 1110.2388,135.5625 Q1109.5513,134.4844 1109.5513,133.2031 L1109.5513,132.0469 Q1109.5513,130.7188 1110.1606,129.5781 Q1110.7856,128.4219 1111.8794,127.8125 Q1112.9731,127.1875 1114.2075,127.1875 Q1114.9419,127.1875 1115.5825,127.3594 Q1116.2388,127.5156 1116.7856,127.875 Z " fill="#000000"/><text fill="#000000" font-family="sans-serif" font-size="14" lengthAdjust="spacing" textLength="40" x="1128.02" y="137.7969">Player</text><line style="stroke:#181818;stroke-width:0.5;" x1="1100.02" x2="1170.02" y1="148" y2="148"/><line style="stroke:#181818;stroke-width:0.5;" x1="1100.02" x2="1170.02" y1="156" y2="156"/></g><!--class Stock--><g id="elem_Stock"><rect codeLine="5" fill="#F1F1F1" height="48" id="Stock" rx="2.5" ry="2.5" style="stroke:#181818;stroke-width:0.5;" width="67" x="1321.52" y="783"/><ellipse cx="1336.52" cy="799" fill="#ADD1B2" rx="11" ry="11" style="stroke:#181818;stroke-width:1.0;"/><path d="M1339.2856,794.875 Q1339.4419,794.6563 1339.6294,794.5469 Q1339.8169,794.4375 1340.0356,794.4375 Q1340.4106,794.4375 1340.645,794.7031 Q1340.8794,794.9531 1340.8794,795.5625 L1340.8794,797.0156 Q1340.8794,797.625 1340.645,797.8906 Q1340.4106,798.1563 1340.0356,798.1563 Q1339.6919,798.1563 1339.4888,797.9531 Q1339.2856,797.7656 1339.1763,797.25 Q1339.1294,796.8906 1338.9419,796.7031 Q1338.6138,796.3281 1338.0044,796.1094 Q1337.395,795.8906 1336.77,795.8906 Q1336.0044,795.8906 1335.3638,796.2188 Q1334.7388,796.5469 1334.2388,797.2969 Q1333.7544,798.0469 1333.7544,799.0781 L1333.7544,800.1719 Q1333.7544,801.4063 1334.645,802.2344 Q1335.5356,803.0469 1337.1294,803.0469 Q1338.0669,803.0469 1338.7231,802.7969 Q1339.1138,802.6406 1339.5356,802.2031 Q1339.8013,801.9375 1339.9419,801.8594 Q1340.0981,801.7813 1340.3013,801.7813 Q1340.6294,801.7813 1340.8794,802.0469 Q1341.145,802.2969 1341.145,802.6406 Q1341.145,802.9844 1340.8013,803.3906 Q1340.3013,803.9688 1339.5044,804.2969 Q1338.4263,804.75 1337.1294,804.75 Q1335.6138,804.75 1334.4106,804.125 Q1333.4263,803.625 1332.7388,802.5625 Q1332.0513,801.4844 1332.0513,800.2031 L1332.0513,799.0469 Q1332.0513,797.7188 1332.6606,796.5781 Q1333.2856,795.4219 1334.3794,794.8125 Q1335.4731,794.1875 1336.7075,794.1875 Q1337.4419,794.1875 1338.0825,794.3594 Q1338.7388,794.5156 1339.2856,794.875 Z " fill="#000000"/><text fill="#000000" font-family="sans-serif" font-size="14" lengthAdjust="spacing" textLength="35" x="1350.52" y="804.7969">Stock</text><line style="stroke:#181818;stroke-width:0.5;" x1="1322.52" x2="1387.52" y1="815" y2="815"/><line style="stroke:#181818;stroke-width:0.5;" x1="1322.52" x2="1387.52" y1="823" y2="823"/></g><!--class Waste--><g id="elem_Waste"><rect codeLine="6" fill="#F1F1F1" height="48" id="Waste" rx="2.5" ry="2.5" style="stroke:#181818;stroke-width:0.5;" width="72" x="1505.02" y="892"/><ellipse cx="1520.02" cy="908" fill="#ADD1B2" rx="11" ry="11" style="stroke:#181818;stroke-width:1.0;"/><path d="M1522.7856,903.875 Q1522.9419,903.6563 1523.1294,903.5469 Q1523.3169,903.4375 1523.5356,903.4375 Q1523.9106,903.4375 1524.145,903.7031 Q1524.3794,903.9531 1524.3794,904.5625 L1524.3794,906.0156 Q1524.3794,906.625 1524.145,906.8906 Q1523.9106,907.1563 1523.5356,907.1563 Q1523.1919,907.1563 1522.9888,906.9531 Q1522.7856,906.7656 1522.6763,906.25 Q1522.6294,905.8906 1522.4419,905.7031 Q1522.1138,905.3281 1521.5044,905.1094 Q1520.895,904.8906 1520.27,904.8906 Q1519.5044,904.8906 1518.8638,905.2188 Q1518.2388,905.5469 1517.7388,906.2969 Q1517.2544,907.0469 1517.2544,908.0781 L1517.2544,909.1719 Q1517.2544,910.4063 1518.145,911.2344 Q1519.0356,912.0469 1520.6294,912.0469 Q1521.5669,912.0469 1522.2231,911.7969 Q1522.6138,911.6406 1523.0356,911.2031 Q1523.3013,910.9375 1523.4419,910.8594 Q1523.5981,910.7813 1523.8013,910.7813 Q1524.1294,910.7813 1524.3794,911.0469 Q1524.645,911.2969 1524.645,911.6406 Q1524.645,911.9844 1524.3013,912.3906 Q1523.8013,912.9688 1523.0044,913.2969 Q1521.9263,913.75 1520.6294,913.75 Q1519.1138,913.75 1517.9106,913.125 Q1516.9263,912.625 1516.2388,911.5625 Q1515.5513,910.4844 1515.5513,909.2031 L1515.5513,908.0469 Q1515.5513,906.7188 1516.1606,905.5781 Q1516.7856,904.4219 1517.8794,903.8125 Q1518.9731,903.1875 1520.2075,903.1875 Q1520.9419,903.1875 1521.5825,903.3594 Q1522.2388,903.5156 1522.7856,903.875 Z " fill="#000000"/><text fill="#000000" font-family="sans-serif" font-size="14" lengthAdjust="spacing" textLength="40" x="1534.02" y="913.7969">Waste</text><line style="stroke:#181818;stroke-width:0.5;" x1="1506.02" x2="1576.02" y1="924" y2="924"/><line style="stroke:#181818;stroke-width:0.5;" x1="1506.02" x2="1576.02" y1="932" y2="932"/></g><!--class Tableau--><g id="elem_Tableau"><rect codeLine="7" fill="#F1F1F1" height="48" id="Tableau" rx="2.5" ry="2.5" style="stroke:#181818;stroke-width:0.5;" width="84" x="473.02" y="892"/><ellipse cx="488.02" cy="908" fill="#ADD1B2" rx="11" ry="11" style="stroke:#181818;stroke-width:1.0;"/><path d="M490.7856,903.875 Q490.9419,903.6563 491.1294,903.5469 Q491.3169,903.4375 491.5356,903.4375 Q491.9106,903.4375 492.145,903.7031 Q492.3794,903.9531 492.3794,904.5625 L492.3794,906.0156 Q492.3794,906.625 492.145,906.8906 Q491.9106,907.1563 491.5356,907.1563 Q491.1919,907.1563 490.9888,906.9531 Q490.7856,906.7656 490.6763,906.25 Q490.6294,905.8906 490.4419,905.7031 Q490.1138,905.3281 489.5044,905.1094 Q488.895,904.8906 488.27,904.8906 Q487.5044,904.8906 486.8638,905.2188 Q486.2388,905.5469 485.7388,906.2969 Q485.2544,907.0469 485.2544,908.0781 L485.2544,909.1719 Q485.2544,910.4063 486.145,911.2344 Q487.0356,912.0469 488.6294,912.0469 Q489.5669,912.0469 490.2231,911.7969 Q490.6138,911.6406 491.0356,911.2031 Q491.3013,910.9375 491.4419,910.8594 Q491.5981,910.7813 491.8013,910.7813 Q492.1294,910.7813 492.3794,911.0469 Q492.645,911.2969 492.645,911.6406 Q492.645,911.9844 492.3013,912.3906 Q491.8013,912.9688 491.0044,913.2969 Q489.9263,913.75 488.6294,913.75 Q487.1138,913.75 485.9106,913.125 Q484.9263,912.625 484.2388,911.5625 Q483.5513,910.4844 483.5513,909.2031 L483.5513,908.0469 Q483.5513,906.7188 484.1606,905.5781 Q484.7856,904.4219 485.8794,903.8125 Q486.9731,903.1875 488.2075,903.1875 Q488.9419,903.1875 489.5825,903.3594 Q490.2388,903.5156 490.7856,903.875 Z " fill="#000000"/><text fill="#000000" font-family="sans-serif" font-size="14" lengthAdjust="spacing" textLength="52" x="502.02" y="913.7969">Tableau</text><line style="stroke:#181818;stroke-width:0.5;" x1="474.02" x2="556.02" y1="924" y2="924"/><line style="stroke:#181818;stroke-width:0.5;" x1="474.02" x2="556.02" y1="932" y2="932"/></g><!--class Foundation--><g id="elem_Foundation"><rect codeLine="8" fill="#F1F1F1" height="48" id="Foundation" rx="2.5" ry="2.5" style="stroke:#181818;stroke-width:0.5;" width="104" x="385.02" y="783"/><ellipse cx="400.02" cy="799" fill="#ADD1B2" rx="11" ry="11" style="stroke:#181818;stroke-width:1.0;"/><path d="M402.7856,794.875 Q402.9419,794.6563 403.1294,794.5469 Q403.3169,794.4375 403.5356,794.4375 Q403.9106,794.4375 404.145,794.7031 Q404.3794,794.9531 404.3794,795.5625 L404.3794,797.0156 Q404.3794,797.625 404.145,797.8906 Q403.9106,798.1563 403.5356,798.1563 Q403.1919,798.1563 402.9888,797.9531 Q402.7856,797.7656 402.6763,797.25 Q402.6294,796.8906 402.4419,796.7031 Q402.1138,796.3281 401.5044,796.1094 Q400.895,795.8906 400.27,795.8906 Q399.5044,795.8906 398.8638,796.2188 Q398.2388,796.5469 397.7388,797.2969 Q397.2544,798.0469 397.2544,799.0781 L397.2544,800.1719 Q397.2544,801.4063 398.145,802.2344 Q399.0356,803.0469 400.6294,803.0469 Q401.5669,803.0469 402.2231,802.7969 Q402.6138,802.6406 403.0356,802.2031 Q403.3013,801.9375 403.4419,801.8594 Q403.5981,801.7813 403.8013,801.7813 Q404.1294,801.7813 404.3794,802.0469 Q404.645,802.2969 404.645,802.6406 Q404.645,802.9844 404.3013,803.3906 Q403.8013,803.9688 403.0044,804.2969 Q401.9263,804.75 400.6294,804.75 Q399.1138,804.75 397.9106,804.125 Q396.9263,803.625 396.2388,802.5625 Q395.5513,801.4844 395.5513,800.2031 L395.5513,799.0469 Q395.5513,797.7188 396.1606,796.5781 Q396.7856,795.4219 397.8794,794.8125 Q398.9731,794.1875 400.2075,794.1875 Q400.9419,794.1875 401.5825,794.3594 Q402.2388,794.5156 402.7856,794.875 Z " fill="#000000"/><text fill="#000000" font-family="sans-serif" font-size="14" lengthAdjust="spacing" textLength="72" x="414.02" y="804.7969">Foundation</text><line style="stroke:#181818;stroke-width:0.5;" x1="386.02" x2="488.02" y1="815" y2="815"/><line style="stroke:#181818;stroke-width:0.5;" x1="386.02" x2="488.02" y1="823" y2="823"/></g><!--class Card--><g id="elem_Card"><rect codeLine="10" fill="#F1F1F1" height="48" id="Card" rx="2.5" ry="2.5" style="stroke:#181818;stroke-width:0.5;" width="63" x="988.52" y="362.5"/><ellipse cx="1003.52" cy="378.5" fill="#ADD1B2" rx="11" ry="11" style="stroke:#181818;stroke-width:1.0;"/><path d="M1006.2856,374.375 Q1006.4419,374.1563 1006.6294,374.0469 Q1006.8169,373.9375 1007.0356,373.9375 Q1007.4106,373.9375 1007.645,374.2031 Q1007.8794,374.4531 1007.8794,375.0625 L1007.8794,376.5156 Q1007.8794,377.125 1007.645,377.3906 Q1007.4106,377.6563 1007.0356,377.6563 Q1006.6919,377.6563 1006.4888,377.4531 Q1006.2856,377.2656 1006.1763,376.75 Q1006.1294,376.3906 1005.9419,376.2031 Q1005.6138,375.8281 1005.0044,375.6094 Q1004.395,375.3906 1003.77,375.3906 Q1003.0044,375.3906 1002.3638,375.7188 Q1001.7388,376.0469 1001.2388,376.7969 Q1000.7544,377.5469 1000.7544,378.5781 L1000.7544,379.6719 Q1000.7544,380.9063 1001.645,381.7344 Q1002.5356,382.5469 1004.1294,382.5469 Q1005.0669,382.5469 1005.7231,382.2969 Q1006.1138,382.1406 1006.5356,381.7031 Q1006.8013,381.4375 1006.9419,381.3594 Q1007.0981,381.2813 1007.3013,381.2813 Q1007.6294,381.2813 1007.8794,381.5469 Q1008.145,381.7969 1008.145,382.1406 Q1008.145,382.4844 1007.8013,382.8906 Q1007.3013,383.4688 1006.5044,383.7969 Q1005.4263,384.25 1004.1294,384.25 Q1002.6138,384.25 1001.4106,383.625 Q1000.4263,383.125 999.7388,382.0625 Q999.0513,380.9844 999.0513,379.7031 L999.0513,378.5469 Q999.0513,377.2188 999.6606,376.0781 Q1000.2856,374.9219 1001.3794,374.3125 Q1002.4731,373.6875 1003.7075,373.6875 Q1004.4419,373.6875 1005.0825,373.8594 Q1005.7388,374.0156 1006.2856,374.375 Z " fill="#000000"/><text fill="#000000" font-family="sans-serif" font-size="14" lengthAdjust="spacing" textLength="31" x="1017.52" y="384.2969">Card</text><line style="stroke:#181818;stroke-width:0.5;" x1="989.52" x2="1050.52" y1="394.5" y2="394.5"/><line style="stroke:#181818;stroke-width:0.5;" x1="989.52" x2="1050.52" y1="402.5" y2="402.5"/></g><!--class Movement--><g id="elem_Movement"><rect codeLine="15" fill="#F1F1F1" height="66.6211" id="Movement" rx="2.5" ry="2.5" style="stroke:#181818;stroke-width:0.5;" width="103" x="1083.52" y="225"/><ellipse cx="1101.22" cy="241" fill="#A9DCDF" rx="11" ry="11" style="stroke:#181818;stroke-width:1.0;"/><path d="M1103.4075,242.7656 L1099.2669,242.7656 L1098.845,243.7969 L1099.2669,243.7969 Q1099.8763,243.7969 1100.1419,244.0313 Q1100.4075,244.2656 1100.4075,244.6563 Q1100.4075,245.0313 1100.1419,245.2656 Q1099.8763,245.5 1099.2669,245.5 L1096.97,245.5 Q1096.3606,245.5 1096.1106,245.2656 Q1095.845,245.0313 1095.845,244.6406 Q1095.845,244.2656 1096.1263,244.0313 Q1096.3919,243.7813 1097.0169,243.7969 L1099.6888,237.1406 L1098.5794,237.1406 Q1097.97,237.1406 1097.7044,236.9063 Q1097.4388,236.6719 1097.4388,236.2813 Q1097.4388,235.9063 1097.7044,235.6719 Q1097.97,235.4375 1098.5794,235.4375 L1102.2513,235.4375 L1105.6419,243.7969 Q1106.2356,243.7969 1106.4231,243.9375 Q1106.8138,244.2031 1106.8138,244.6563 Q1106.8138,245.0313 1106.5481,245.2656 Q1106.2981,245.5 1105.6888,245.5 L1103.3919,245.5 Q1102.7825,245.5 1102.5169,245.2656 Q1102.2513,245.0313 1102.2513,244.6406 Q1102.2513,244.2656 1102.5169,244.0313 Q1102.7825,243.7969 1103.3919,243.7969 L1103.8138,243.7969 L1103.4075,242.7656 Z M1102.6888,241.0625 L1101.3294,237.6875 L1099.9544,241.0625 L1102.6888,241.0625 Z " fill="#000000"/><text fill="#000000" font-family="sans-serif" font-size="14" font-style="italic" lengthAdjust="spacing" textLength="65" x="1115.82" y="246.7969">Movement</text><line style="stroke:#181818;stroke-width:0.5;" x1="1084.52" x2="1185.52" y1="257" y2="257"/><text fill="#000000" font-family="sans-serif" font-size="14" lengthAdjust="spacing" textLength="91" x="1089.52" y="276.1074">cardsUsed = 1</text><line style="stroke:#181818;stroke-width:0.5;" x1="1084.52" x2="1185.52" y1="283.6211" y2="283.6211"/></g><!--class OriginPile--><g id="elem_OriginPile"><rect codeLine="23" fill="#F1F1F1" height="66.6211" id="OriginPile" rx="2.5" ry="2.5" style="stroke:#181818;stroke-width:0.5;" width="93" x="1362.52" y="353"/><ellipse cx="1377.52" cy="369" fill="#A9DCDF" rx="11" ry="11" style="stroke:#181818;stroke-width:1.0;"/><path d="M1379.7075,370.7656 L1375.5669,370.7656 L1375.145,371.7969 L1375.5669,371.7969 Q1376.1763,371.7969 1376.4419,372.0313 Q1376.7075,372.2656 1376.7075,372.6563 Q1376.7075,373.0313 1376.4419,373.2656 Q1376.1763,373.5 1375.5669,373.5 L1373.27,373.5 Q1372.6606,373.5 1372.4106,373.2656 Q1372.145,373.0313 1372.145,372.6406 Q1372.145,372.2656 1372.4263,372.0313 Q1372.6919,371.7813 1373.3169,371.7969 L1375.9888,365.1406 L1374.8794,365.1406 Q1374.27,365.1406 1374.0044,364.9063 Q1373.7388,364.6719 1373.7388,364.2813 Q1373.7388,363.9063 1374.0044,363.6719 Q1374.27,363.4375 1374.8794,363.4375 L1378.5513,363.4375 L1381.9419,371.7969 Q1382.5356,371.7969 1382.7231,371.9375 Q1383.1138,372.2031 1383.1138,372.6563 Q1383.1138,373.0313 1382.8481,373.2656 Q1382.5981,373.5 1381.9888,373.5 L1379.6919,373.5 Q1379.0825,373.5 1378.8169,373.2656 Q1378.5513,373.0313 1378.5513,372.6406 Q1378.5513,372.2656 1378.8169,372.0313 Q1379.0825,371.7969 1379.6919,371.7969 L1380.1138,371.7969 L1379.7075,370.7656 Z M1378.9888,369.0625 L1377.6294,365.6875 L1376.2544,369.0625 L1378.9888,369.0625 Z " fill="#000000"/><text fill="#000000" font-family="sans-serif" font-size="14" font-style="italic" lengthAdjust="spacing" textLength="61" x="1391.52" y="374.7969">OriginPile</text><line style="stroke:#181818;stroke-width:0.5;" x1="1363.52" x2="1454.52" y1="385" y2="385"/><text fill="#000000" font-family="sans-serif" font-size="14" lengthAdjust="spacing" textLength="66" x="1368.52" y="404.1074">origin: Pile</text><line style="stroke:#181818;stroke-width:0.5;" x1="1363.52" x2="1454.52" y1="411.6211" y2="411.6211"/></g><!--class TargetPile--><g id="elem_TargetPile"><rect codeLine="27" fill="#F1F1F1" height="66.6211" id="TargetPile" rx="2.5" ry="2.5" style="stroke:#181818;stroke-width:0.5;" width="97" x="1086.52" y="353"/><ellipse cx="1101.52" cy="369" fill="#A9DCDF" rx="11" ry="11" style="stroke:#181818;stroke-width:1.0;"/><path d="M1103.7075,370.7656 L1099.5669,370.7656 L1099.145,371.7969 L1099.5669,371.7969 Q1100.1763,371.7969 1100.4419,372.0313 Q1100.7075,372.2656 1100.7075,372.6563 Q1100.7075,373.0313 1100.4419,373.2656 Q1100.1763,373.5 1099.5669,373.5 L1097.27,373.5 Q1096.6606,373.5 1096.4106,373.2656 Q1096.145,373.0313 1096.145,372.6406 Q1096.145,372.2656 1096.4263,372.0313 Q1096.6919,371.7813 1097.3169,371.7969 L1099.9888,365.1406 L1098.8794,365.1406 Q1098.27,365.1406 1098.0044,364.9063 Q1097.7388,364.6719 1097.7388,364.2813 Q1097.7388,363.9063 1098.0044,363.6719 Q1098.27,363.4375 1098.8794,363.4375 L1102.5513,363.4375 L1105.9419,371.7969 Q1106.5356,371.7969 1106.7231,371.9375 Q1107.1138,372.2031 1107.1138,372.6563 Q1107.1138,373.0313 1106.8481,373.2656 Q1106.5981,373.5 1105.9888,373.5 L1103.6919,373.5 Q1103.0825,373.5 1102.8169,373.2656 Q1102.5513,373.0313 1102.5513,372.6406 Q1102.5513,372.2656 1102.8169,372.0313 Q1103.0825,371.7969 1103.6919,371.7969 L1104.1138,371.7969 L1103.7075,370.7656 Z M1102.9888,369.0625 L1101.6294,365.6875 L1100.2544,369.0625 L1102.9888,369.0625 Z " fill="#000000"/><text fill="#000000" font-family="sans-serif" font-size="14" font-style="italic" lengthAdjust="spacing" textLength="65" x="1115.52" y="374.7969">TargetPile</text><line style="stroke:#181818;stroke-width:0.5;" x1="1087.52" x2="1182.52" y1="385" y2="385"/><text fill="#000000" font-family="sans-serif" font-size="14" lengthAdjust="spacing" textLength="68" x="1092.52" y="404.1074">target: Pile</text><line style="stroke:#181818;stroke-width:0.5;" x1="1087.52" x2="1182.52" y1="411.6211" y2="411.6211"/></g><!--class FromWaste--><g id="elem_FromWaste"><rect codeLine="31" fill="#F1F1F1" height="48" id="FromWaste" rx="2.5" ry="2.5" style="stroke:#181818;stroke-width:0.5;" width="106" x="1188.02" y="481"/><ellipse cx="1203.02" cy="497" fill="#A9DCDF" rx="11" ry="11" style="stroke:#181818;stroke-width:1.0;"/><path d="M1205.2075,498.7656 L1201.0669,498.7656 L1200.645,499.7969 L1201.0669,499.7969 Q1201.6763,499.7969 1201.9419,500.0313 Q1202.2075,500.2656 1202.2075,500.6563 Q1202.2075,501.0313 1201.9419,501.2656 Q1201.6763,501.5 1201.0669,501.5 L1198.77,501.5 Q1198.1606,501.5 1197.9106,501.2656 Q1197.645,501.0313 1197.645,500.6406 Q1197.645,500.2656 1197.9263,500.0313 Q1198.1919,499.7813 1198.8169,499.7969 L1201.4888,493.1406 L1200.3794,493.1406 Q1199.77,493.1406 1199.5044,492.9063 Q1199.2388,492.6719 1199.2388,492.2813 Q1199.2388,491.9063 1199.5044,491.6719 Q1199.77,491.4375 1200.3794,491.4375 L1204.0513,491.4375 L1207.4419,499.7969 Q1208.0356,499.7969 1208.2231,499.9375 Q1208.6138,500.2031 1208.6138,500.6563 Q1208.6138,501.0313 1208.3481,501.2656 Q1208.0981,501.5 1207.4888,501.5 L1205.1919,501.5 Q1204.5825,501.5 1204.3169,501.2656 Q1204.0513,501.0313 1204.0513,500.6406 Q1204.0513,500.2656 1204.3169,500.0313 Q1204.5825,499.7969 1205.1919,499.7969 L1205.6138,499.7969 L1205.2075,498.7656 Z M1204.4888,497.0625 L1203.1294,493.6875 L1201.7544,497.0625 L1204.4888,497.0625 Z " fill="#000000"/><text fill="#000000" font-family="sans-serif" font-size="14" font-style="italic" lengthAdjust="spacing" textLength="74" x="1217.02" y="502.7969">FromWaste</text><line style="stroke:#181818;stroke-width:0.5;" x1="1189.02" x2="1293.02" y1="513" y2="513"/><line style="stroke:#181818;stroke-width:0.5;" x1="1189.02" x2="1293.02" y1="521" y2="521"/></g><!--class ToFoundation--><g id="elem_ToFoundation"><rect codeLine="35" fill="#F1F1F1" height="48" id="ToFoundation" rx="2.5" ry="2.5" style="stroke:#181818;stroke-width:0.5;" width="121" x="781.52" y="481"/><ellipse cx="796.52" cy="497" fill="#A9DCDF" rx="11" ry="11" style="stroke:#181818;stroke-width:1.0;"/><path d="M798.7075,498.7656 L794.5669,498.7656 L794.145,499.7969 L794.5669,499.7969 Q795.1763,499.7969 795.4419,500.0313 Q795.7075,500.2656 795.7075,500.6563 Q795.7075,501.0313 795.4419,501.2656 Q795.1763,501.5 794.5669,501.5 L792.27,501.5 Q791.6606,501.5 791.4106,501.2656 Q791.145,501.0313 791.145,500.6406 Q791.145,500.2656 791.4263,500.0313 Q791.6919,499.7813 792.3169,499.7969 L794.9888,493.1406 L793.8794,493.1406 Q793.27,493.1406 793.0044,492.9063 Q792.7388,492.6719 792.7388,492.2813 Q792.7388,491.9063 793.0044,491.6719 Q793.27,491.4375 793.8794,491.4375 L797.5513,491.4375 L800.9419,499.7969 Q801.5356,499.7969 801.7231,499.9375 Q802.1138,500.2031 802.1138,500.6563 Q802.1138,501.0313 801.8481,501.2656 Q801.5981,501.5 800.9888,501.5 L798.6919,501.5 Q798.0825,501.5 797.8169,501.2656 Q797.5513,501.0313 797.5513,500.6406 Q797.5513,500.2656 797.8169,500.0313 Q798.0825,499.7969 798.6919,499.7969 L799.1138,499.7969 L798.7075,498.7656 Z M797.9888,497.0625 L796.6294,493.6875 L795.2544,497.0625 L797.9888,497.0625 Z " fill="#000000"/><text fill="#000000" font-family="sans-serif" font-size="14" font-style="italic" lengthAdjust="spacing" textLength="89" x="810.52" y="502.7969">ToFoundation</text><line style="stroke:#181818;stroke-width:0.5;" x1="782.52" x2="901.52" y1="513" y2="513"/><line style="stroke:#181818;stroke-width:0.5;" x1="782.52" x2="901.52" y1="521" y2="521"/></g><!--class FromTableau--><g id="elem_FromTableau"><rect codeLine="39" fill="#F1F1F1" height="48" id="FromTableau" rx="2.5" ry="2.5" style="stroke:#181818;stroke-width:0.5;" width="117" x="937.52" y="481"/><ellipse cx="952.52" cy="497" fill="#A9DCDF" rx="11" ry="11" style="stroke:#181818;stroke-width:1.0;"/><path d="M954.7075,498.7656 L950.5669,498.7656 L950.145,499.7969 L950.5669,499.7969 Q951.1763,499.7969 951.4419,500.0313 Q951.7075,500.2656 951.7075,500.6563 Q951.7075,501.0313 951.4419,501.2656 Q951.1763,501.5 950.5669,501.5 L948.27,501.5 Q947.6606,501.5 947.4106,501.2656 Q947.145,501.0313 947.145,500.6406 Q947.145,500.2656 947.4263,500.0313 Q947.6919,499.7813 948.3169,499.7969 L950.9888,493.1406 L949.8794,493.1406 Q949.27,493.1406 949.0044,492.9063 Q948.7388,492.6719 948.7388,492.2813 Q948.7388,491.9063 949.0044,491.6719 Q949.27,491.4375 949.8794,491.4375 L953.5513,491.4375 L956.9419,499.7969 Q957.5356,499.7969 957.7231,499.9375 Q958.1138,500.2031 958.1138,500.6563 Q958.1138,501.0313 957.8481,501.2656 Q957.5981,501.5 956.9888,501.5 L954.6919,501.5 Q954.0825,501.5 953.8169,501.2656 Q953.5513,501.0313 953.5513,500.6406 Q953.5513,500.2656 953.8169,500.0313 Q954.0825,499.7969 954.6919,499.7969 L955.1138,499.7969 L954.7075,498.7656 Z M953.9888,497.0625 L952.6294,493.6875 L951.2544,497.0625 L953.9888,497.0625 Z " fill="#000000"/><text fill="#000000" font-family="sans-serif" font-size="14" font-style="italic" lengthAdjust="spacing" textLength="85" x="966.52" y="502.7969">FromTableau</text><line style="stroke:#181818;stroke-width:0.5;" x1="938.52" x2="1053.52" y1="513" y2="513"/><line style="stroke:#181818;stroke-width:0.5;" x1="938.52" x2="1053.52" y1="521" y2="521"/></g><!--class ToTableau--><g id="elem_ToTableau"><rect codeLine="43" fill="#F1F1F1" height="48" id="ToTableau" rx="2.5" ry="2.5" style="stroke:#181818;stroke-width:0.5;" width="101" x="323.52" y="481"/><ellipse cx="338.52" cy="497" fill="#A9DCDF" rx="11" ry="11" style="stroke:#181818;stroke-width:1.0;"/><path d="M340.7075,498.7656 L336.5669,498.7656 L336.145,499.7969 L336.5669,499.7969 Q337.1763,499.7969 337.4419,500.0313 Q337.7075,500.2656 337.7075,500.6563 Q337.7075,501.0313 337.4419,501.2656 Q337.1763,501.5 336.5669,501.5 L334.27,501.5 Q333.6606,501.5 333.4106,501.2656 Q333.145,501.0313 333.145,500.6406 Q333.145,500.2656 333.4263,500.0313 Q333.6919,499.7813 334.3169,499.7969 L336.9888,493.1406 L335.8794,493.1406 Q335.27,493.1406 335.0044,492.9063 Q334.7388,492.6719 334.7388,492.2813 Q334.7388,491.9063 335.0044,491.6719 Q335.27,491.4375 335.8794,491.4375 L339.5513,491.4375 L342.9419,499.7969 Q343.5356,499.7969 343.7231,499.9375 Q344.1138,500.2031 344.1138,500.6563 Q344.1138,501.0313 343.8481,501.2656 Q343.5981,501.5 342.9888,501.5 L340.6919,501.5 Q340.0825,501.5 339.8169,501.2656 Q339.5513,501.0313 339.5513,500.6406 Q339.5513,500.2656 339.8169,500.0313 Q340.0825,499.7969 340.6919,499.7969 L341.1138,499.7969 L340.7075,498.7656 Z M339.9888,497.0625 L338.6294,493.6875 L337.2544,497.0625 L339.9888,497.0625 Z " fill="#000000"/><text fill="#000000" font-family="sans-serif" font-size="14" font-style="italic" lengthAdjust="spacing" textLength="69" x="352.52" y="502.7969">ToTableau</text><line style="stroke:#181818;stroke-width:0.5;" x1="324.52" x2="423.52" y1="513" y2="513"/><line style="stroke:#181818;stroke-width:0.5;" x1="324.52" x2="423.52" y1="521" y2="521"/></g><!--class StockToWaste--><g id="elem_StockToWaste"><rect codeLine="47" fill="#F1F1F1" height="48" id="StockToWaste" rx="2.5" ry="2.5" style="stroke:#181818;stroke-width:0.5;" width="124" x="1478.02" y="559"/><ellipse cx="1493.02" cy="575" fill="#ADD1B2" rx="11" ry="11" style="stroke:#181818;stroke-width:1.0;"/><path d="M1495.7856,570.875 Q1495.9419,570.6563 1496.1294,570.5469 Q1496.3169,570.4375 1496.5356,570.4375 Q1496.9106,570.4375 1497.145,570.7031 Q1497.3794,570.9531 1497.3794,571.5625 L1497.3794,573.0156 Q1497.3794,573.625 1497.145,573.8906 Q1496.9106,574.1563 1496.5356,574.1563 Q1496.1919,574.1563 1495.9888,573.9531 Q1495.7856,573.7656 1495.6763,573.25 Q1495.6294,572.8906 1495.4419,572.7031 Q1495.1138,572.3281 1494.5044,572.1094 Q1493.895,571.8906 1493.27,571.8906 Q1492.5044,571.8906 1491.8638,572.2188 Q1491.2388,572.5469 1490.7388,573.2969 Q1490.2544,574.0469 1490.2544,575.0781 L1490.2544,576.1719 Q1490.2544,577.4063 1491.145,578.2344 Q1492.0356,579.0469 1493.6294,579.0469 Q1494.5669,579.0469 1495.2231,578.7969 Q1495.6138,578.6406 1496.0356,578.2031 Q1496.3013,577.9375 1496.4419,577.8594 Q1496.5981,577.7813 1496.8013,577.7813 Q1497.1294,577.7813 1497.3794,578.0469 Q1497.645,578.2969 1497.645,578.6406 Q1497.645,578.9844 1497.3013,579.3906 Q1496.8013,579.9688 1496.0044,580.2969 Q1494.9263,580.75 1493.6294,580.75 Q1492.1138,580.75 1490.9106,580.125 Q1489.9263,579.625 1489.2388,578.5625 Q1488.5513,577.4844 1488.5513,576.2031 L1488.5513,575.0469 Q1488.5513,573.7188 1489.1606,572.5781 Q1489.7856,571.4219 1490.8794,570.8125 Q1491.9731,570.1875 1493.2075,570.1875 Q1493.9419,570.1875 1494.5825,570.3594 Q1495.2388,570.5156 1495.7856,570.875 Z " fill="#000000"/><text fill="#000000" font-family="sans-serif" font-size="14" lengthAdjust="spacing" textLength="92" x="1507.02" y="580.7969">StockToWaste</text><line style="stroke:#181818;stroke-width:0.5;" x1="1479.02" x2="1601.02" y1="591" y2="591"/><line style="stroke:#181818;stroke-width:0.5;" x1="1479.02" x2="1601.02" y1="599" y2="599"/></g><!--class WasteToStock--><g id="elem_WasteToStock"><rect codeLine="53" fill="#F1F1F1" height="66.6211" id="WasteToStock" rx="2.5" ry="2.5" style="stroke:#181818;stroke-width:0.5;" width="157" x="1243.52" y="637"/><ellipse cx="1273.37" cy="653" fill="#ADD1B2" rx="11" ry="11" style="stroke:#181818;stroke-width:1.0;"/><path d="M1276.1356,648.875 Q1276.2919,648.6563 1276.4794,648.5469 Q1276.6669,648.4375 1276.8856,648.4375 Q1277.2606,648.4375 1277.495,648.7031 Q1277.7294,648.9531 1277.7294,649.5625 L1277.7294,651.0156 Q1277.7294,651.625 1277.495,651.8906 Q1277.2606,652.1563 1276.8856,652.1563 Q1276.5419,652.1563 1276.3388,651.9531 Q1276.1356,651.7656 1276.0263,651.25 Q1275.9794,650.8906 1275.7919,650.7031 Q1275.4638,650.3281 1274.8544,650.1094 Q1274.245,649.8906 1273.62,649.8906 Q1272.8544,649.8906 1272.2138,650.2188 Q1271.5888,650.5469 1271.0888,651.2969 Q1270.6044,652.0469 1270.6044,653.0781 L1270.6044,654.1719 Q1270.6044,655.4063 1271.495,656.2344 Q1272.3856,657.0469 1273.9794,657.0469 Q1274.9169,657.0469 1275.5731,656.7969 Q1275.9638,656.6406 1276.3856,656.2031 Q1276.6513,655.9375 1276.7919,655.8594 Q1276.9481,655.7813 1277.1513,655.7813 Q1277.4794,655.7813 1277.7294,656.0469 Q1277.995,656.2969 1277.995,656.6406 Q1277.995,656.9844 1277.6513,657.3906 Q1277.1513,657.9688 1276.3544,658.2969 Q1275.2763,658.75 1273.9794,658.75 Q1272.4638,658.75 1271.2606,658.125 Q1270.2763,657.625 1269.5888,656.5625 Q1268.9013,655.4844 1268.9013,654.2031 L1268.9013,653.0469 Q1268.9013,651.7188 1269.5106,650.5781 Q1270.1356,649.4219 1271.2294,648.8125 Q1272.3231,648.1875 1273.5575,648.1875 Q1274.2919,648.1875 1274.9325,648.3594 Q1275.5888,648.5156 1276.1356,648.875 Z " fill="#000000"/><text fill="#000000" font-family="sans-serif" font-size="14" lengthAdjust="spacing" textLength="92" x="1290.67" y="658.7969">WasteToStock</text><line style="stroke:#181818;stroke-width:0.5;" x1="1244.52" x2="1399.52" y1="669" y2="669"/><text fill="#000000" font-family="sans-serif" font-size="14" lengthAdjust="spacing" textLength="145" x="1249.52" y="688.1074">cardsUsed = wasteSize</text><line style="stroke:#181818;stroke-width:0.5;" x1="1244.52" x2="1399.52" y1="695.6211" y2="695.6211"/></g><!--class WasteToTableau--><g id="elem_WasteToTableau"><rect codeLine="60" fill="#F1F1F1" height="48" id="WasteToTableau" rx="2.5" ry="2.5" style="stroke:#181818;stroke-width:0.5;" width="141" x="485.52" y="646.5"/><ellipse cx="500.52" cy="662.5" fill="#ADD1B2" rx="11" ry="11" style="stroke:#181818;stroke-width:1.0;"/><path d="M503.2856,658.375 Q503.4419,658.1563 503.6294,658.0469 Q503.8169,657.9375 504.0356,657.9375 Q504.4106,657.9375 504.645,658.2031 Q504.8794,658.4531 504.8794,659.0625 L504.8794,660.5156 Q504.8794,661.125 504.645,661.3906 Q504.4106,661.6563 504.0356,661.6563 Q503.6919,661.6563 503.4888,661.4531 Q503.2856,661.2656 503.1763,660.75 Q503.1294,660.3906 502.9419,660.2031 Q502.6138,659.8281 502.0044,659.6094 Q501.395,659.3906 500.77,659.3906 Q500.0044,659.3906 499.3638,659.7188 Q498.7388,660.0469 498.2388,660.7969 Q497.7544,661.5469 497.7544,662.5781 L497.7544,663.6719 Q497.7544,664.9063 498.645,665.7344 Q499.5356,666.5469 501.1294,666.5469 Q502.0669,666.5469 502.7231,666.2969 Q503.1138,666.1406 503.5356,665.7031 Q503.8013,665.4375 503.9419,665.3594 Q504.0981,665.2813 504.3013,665.2813 Q504.6294,665.2813 504.8794,665.5469 Q505.145,665.7969 505.145,666.1406 Q505.145,666.4844 504.8013,666.8906 Q504.3013,667.4688 503.5044,667.7969 Q502.4263,668.25 501.1294,668.25 Q499.6138,668.25 498.4106,667.625 Q497.4263,667.125 496.7388,666.0625 Q496.0513,664.9844 496.0513,663.7031 L496.0513,662.5469 Q496.0513,661.2188 496.6606,660.0781 Q497.2856,658.9219 498.3794,658.3125 Q499.4731,657.6875 500.7075,657.6875 Q501.4419,657.6875 502.0825,657.8594 Q502.7388,658.0156 503.2856,658.375 Z " fill="#000000"/><text fill="#000000" font-family="sans-serif" font-size="14" lengthAdjust="spacing" textLength="109" x="514.52" y="668.2969">WasteToTableau</text><line style="stroke:#181818;stroke-width:0.5;" x1="486.52" x2="625.52" y1="678.5" y2="678.5"/><line style="stroke:#181818;stroke-width:0.5;" x1="486.52" x2="625.52" y1="686.5" y2="686.5"/></g><!--class WasteToFoundation--><g id="elem_WasteToFoundation"><rect codeLine="64" fill="#F1F1F1" height="48" id="WasteToFoundation" rx="2.5" ry="2.5" style="stroke:#181818;stroke-width:0.5;" width="161" x="1047.52" y="646.5"/><ellipse cx="1062.52" cy="662.5" fill="#ADD1B2" rx="11" ry="11" style="stroke:#181818;stroke-width:1.0;"/><path d="M1065.2856,658.375 Q1065.4419,658.1563 1065.6294,658.0469 Q1065.8169,657.9375 1066.0356,657.9375 Q1066.4106,657.9375 1066.645,658.2031 Q1066.8794,658.4531 1066.8794,659.0625 L1066.8794,660.5156 Q1066.8794,661.125 1066.645,661.3906 Q1066.4106,661.6563 1066.0356,661.6563 Q1065.6919,661.6563 1065.4888,661.4531 Q1065.2856,661.2656 1065.1763,660.75 Q1065.1294,660.3906 1064.9419,660.2031 Q1064.6138,659.8281 1064.0044,659.6094 Q1063.395,659.3906 1062.77,659.3906 Q1062.0044,659.3906 1061.3638,659.7188 Q1060.7388,660.0469 1060.2388,660.7969 Q1059.7544,661.5469 1059.7544,662.5781 L1059.7544,663.6719 Q1059.7544,664.9063 1060.645,665.7344 Q1061.5356,666.5469 1063.1294,666.5469 Q1064.0669,666.5469 1064.7231,666.2969 Q1065.1138,666.1406 1065.5356,665.7031 Q1065.8013,665.4375 1065.9419,665.3594 Q1066.0981,665.2813 1066.3013,665.2813 Q1066.6294,665.2813 1066.8794,665.5469 Q1067.145,665.7969 1067.145,666.1406 Q1067.145,666.4844 1066.8013,666.8906 Q1066.3013,667.4688 1065.5044,667.7969 Q1064.4263,668.25 1063.1294,668.25 Q1061.6138,668.25 1060.4106,667.625 Q1059.4263,667.125 1058.7388,666.0625 Q1058.0513,664.9844 1058.0513,663.7031 L1058.0513,662.5469 Q1058.0513,661.2188 1058.6606,660.0781 Q1059.2856,658.9219 1060.3794,658.3125 Q1061.4731,657.6875 1062.7075,657.6875 Q1063.4419,657.6875 1064.0825,657.8594 Q1064.7388,658.0156 1065.2856,658.375 Z " fill="#000000"/><text fill="#000000" font-family="sans-serif" font-size="14" lengthAdjust="spacing" textLength="129" x="1076.52" y="668.2969">WasteToFoundation</text><line style="stroke:#181818;stroke-width:0.5;" x1="1048.52" x2="1207.52" y1="678.5" y2="678.5"/><line style="stroke:#181818;stroke-width:0.5;" x1="1048.52" x2="1207.52" y1="686.5" y2="686.5"/></g><!--class TableauToFoundation--><g id="elem_TableauToFoundation"><rect codeLine="68" fill="#F1F1F1" height="48" id="TableauToFoundation" rx="2.5" ry="2.5" style="stroke:#181818;stroke-width:0.5;" width="173" x="767.52" y="646.5"/><ellipse cx="782.52" cy="662.5" fill="#ADD1B2" rx="11" ry="11" style="stroke:#181818;stroke-width:1.0;"/><path d="M785.2856,658.375 Q785.4419,658.1563 785.6294,658.0469 Q785.8169,657.9375 786.0356,657.9375 Q786.4106,657.9375 786.645,658.2031 Q786.8794,658.4531 786.8794,659.0625 L786.8794,660.5156 Q786.8794,661.125 786.645,661.3906 Q786.4106,661.6563 786.0356,661.6563 Q785.6919,661.6563 785.4888,661.4531 Q785.2856,661.2656 785.1763,660.75 Q785.1294,660.3906 784.9419,660.2031 Q784.6138,659.8281 784.0044,659.6094 Q783.395,659.3906 782.77,659.3906 Q782.0044,659.3906 781.3638,659.7188 Q780.7388,660.0469 780.2388,660.7969 Q779.7544,661.5469 779.7544,662.5781 L779.7544,663.6719 Q779.7544,664.9063 780.645,665.7344 Q781.5356,666.5469 783.1294,666.5469 Q784.0669,666.5469 784.7231,666.2969 Q785.1138,666.1406 785.5356,665.7031 Q785.8013,665.4375 785.9419,665.3594 Q786.0981,665.2813 786.3013,665.2813 Q786.6294,665.2813 786.8794,665.5469 Q787.145,665.7969 787.145,666.1406 Q787.145,666.4844 786.8013,666.8906 Q786.3013,667.4688 785.5044,667.7969 Q784.4263,668.25 783.1294,668.25 Q781.6138,668.25 780.4106,667.625 Q779.4263,667.125 778.7388,666.0625 Q778.0513,664.9844 778.0513,663.7031 L778.0513,662.5469 Q778.0513,661.2188 778.6606,660.0781 Q779.2856,658.9219 780.3794,658.3125 Q781.4731,657.6875 782.7075,657.6875 Q783.4419,657.6875 784.0825,657.8594 Q784.7388,658.0156 785.2856,658.375 Z " fill="#000000"/><text fill="#000000" font-family="sans-serif" font-size="14" lengthAdjust="spacing" textLength="141" x="796.52" y="668.2969">TableauToFoundation</text><line style="stroke:#181818;stroke-width:0.5;" x1="768.52" x2="939.52" y1="678.5" y2="678.5"/><line style="stroke:#181818;stroke-width:0.5;" x1="768.52" x2="939.52" y1="686.5" y2="686.5"/></g><!--class FoundationToTableau--><g id="elem_FoundationToTableau"><rect codeLine="72" fill="#F1F1F1" height="48" id="FoundationToTableau" rx="2.5" ry="2.5" style="stroke:#181818;stroke-width:0.5;" width="173" x="89.52" y="646.5"/><ellipse cx="104.52" cy="662.5" fill="#ADD1B2" rx="11" ry="11" style="stroke:#181818;stroke-width:1.0;"/><path d="M107.2856,658.375 Q107.4419,658.1563 107.6294,658.0469 Q107.8169,657.9375 108.0356,657.9375 Q108.4106,657.9375 108.645,658.2031 Q108.8794,658.4531 108.8794,659.0625 L108.8794,660.5156 Q108.8794,661.125 108.645,661.3906 Q108.4106,661.6563 108.0356,661.6563 Q107.6919,661.6563 107.4888,661.4531 Q107.2856,661.2656 107.1763,660.75 Q107.1294,660.3906 106.9419,660.2031 Q106.6138,659.8281 106.0044,659.6094 Q105.395,659.3906 104.77,659.3906 Q104.0044,659.3906 103.3638,659.7188 Q102.7388,660.0469 102.2388,660.7969 Q101.7544,661.5469 101.7544,662.5781 L101.7544,663.6719 Q101.7544,664.9063 102.645,665.7344 Q103.5356,666.5469 105.1294,666.5469 Q106.0669,666.5469 106.7231,666.2969 Q107.1138,666.1406 107.5356,665.7031 Q107.8013,665.4375 107.9419,665.3594 Q108.0981,665.2813 108.3013,665.2813 Q108.6294,665.2813 108.8794,665.5469 Q109.145,665.7969 109.145,666.1406 Q109.145,666.4844 108.8013,666.8906 Q108.3013,667.4688 107.5044,667.7969 Q106.4263,668.25 105.1294,668.25 Q103.6138,668.25 102.4106,667.625 Q101.4263,667.125 100.7388,666.0625 Q100.0513,664.9844 100.0513,663.7031 L100.0513,662.5469 Q100.0513,661.2188 100.6606,660.0781 Q101.2856,658.9219 102.3794,658.3125 Q103.4731,657.6875 104.7075,657.6875 Q105.4419,657.6875 106.0825,657.8594 Q106.7388,658.0156 107.2856,658.375 Z " fill="#000000"/><text fill="#000000" font-family="sans-serif" font-size="14" lengthAdjust="spacing" textLength="141" x="118.52" y="668.2969">FoundationToTableau</text><line style="stroke:#181818;stroke-width:0.5;" x1="90.52" x2="261.52" y1="678.5" y2="678.5"/><line style="stroke:#181818;stroke-width:0.5;" x1="90.52" x2="261.52" y1="686.5" y2="686.5"/></g><!--class TableauToTableau--><g id="elem_TableauToTableau"><rect codeLine="77" fill="#F1F1F1" height="66.6211" id="TableauToTableau" rx="2.5" ry="2.5" style="stroke:#181818;stroke-width:0.5;" width="153" x="297.52" y="637"/><ellipse cx="312.52" cy="653" fill="#ADD1B2" rx="11" ry="11" style="stroke:#181818;stroke-width:1.0;"/><path d="M315.2856,648.875 Q315.4419,648.6563 315.6294,648.5469 Q315.8169,648.4375 316.0356,648.4375 Q316.4106,648.4375 316.645,648.7031 Q316.8794,648.9531 316.8794,649.5625 L316.8794,651.0156 Q316.8794,651.625 316.645,651.8906 Q316.4106,652.1563 316.0356,652.1563 Q315.6919,652.1563 315.4888,651.9531 Q315.2856,651.7656 315.1763,651.25 Q315.1294,650.8906 314.9419,650.7031 Q314.6138,650.3281 314.0044,650.1094 Q313.395,649.8906 312.77,649.8906 Q312.0044,649.8906 311.3638,650.2188 Q310.7388,650.5469 310.2388,651.2969 Q309.7544,652.0469 309.7544,653.0781 L309.7544,654.1719 Q309.7544,655.4063 310.645,656.2344 Q311.5356,657.0469 313.1294,657.0469 Q314.0669,657.0469 314.7231,656.7969 Q315.1138,656.6406 315.5356,656.2031 Q315.8013,655.9375 315.9419,655.8594 Q316.0981,655.7813 316.3013,655.7813 Q316.6294,655.7813 316.8794,656.0469 Q317.145,656.2969 317.145,656.6406 Q317.145,656.9844 316.8013,657.3906 Q316.3013,657.9688 315.5044,658.2969 Q314.4263,658.75 313.1294,658.75 Q311.6138,658.75 310.4106,658.125 Q309.4263,657.625 308.7388,656.5625 Q308.0513,655.4844 308.0513,654.2031 L308.0513,653.0469 Q308.0513,651.7188 308.6606,650.5781 Q309.2856,649.4219 310.3794,648.8125 Q311.4731,648.1875 312.7075,648.1875 Q313.4419,648.1875 314.0825,648.3594 Q314.7388,648.5156 315.2856,648.875 Z " fill="#000000"/><text fill="#000000" font-family="sans-serif" font-size="14" lengthAdjust="spacing" textLength="121" x="326.52" y="658.7969">TableauToTableau</text><line style="stroke:#181818;stroke-width:0.5;" x1="298.52" x2="449.52" y1="669" y2="669"/><text fill="#000000" font-family="sans-serif" font-size="14" lengthAdjust="spacing" textLength="115" x="303.52" y="688.1074">cardsUsed = 1..13</text><line style="stroke:#181818;stroke-width:0.5;" x1="298.52" x2="449.52" y1="695.6211" y2="695.6211"/></g><!--link Klondike to Player--><g id="link_Klondike_Player"><path codeLine="12" d="M1135.02,67.22 C1135.02,85.16 1135.02,91.89 1135.02,109.83 " fill="none" id="Klondike-Player" style="stroke:#181818;stroke-width:1.0;"/><polygon fill="#181818" points="1135.02,55.22,1131.02,61.22,1135.02,67.22,1139.02,61.22,1135.02,55.22" style="stroke:#181818;stroke-width:1.0;"/><polygon fill="#181818" points="1135.02,115.83,1139.02,106.83,1135.02,110.83,1131.02,106.83,1135.02,115.83" style="stroke:#181818;stroke-width:1.0;"/></g><!--link Player to Movement--><g id="link_Player_Movement"><path codeLine="13" d="M1135.02,164.02 C1135.02,181.39 1135.02,199.46 1135.02,218.83 " fill="none" id="Player-to-Movement" style="stroke:#181818;stroke-width:1.0;stroke-dasharray:7.0,7.0;"/><polygon fill="#181818" points="1135.02,224.83,1139.02,215.83,1135.02,219.83,1131.02,215.83,1135.02,224.83" style="stroke:#181818;stroke-width:1.0;"/><text fill="#000000" font-family="sans-serif" font-size="13" lengthAdjust="spacing" textLength="61" x="1068.0153" y="213.622">4 x 13 .. N</text></g><!--link Movement to OriginPile--><g id="link_Movement_OriginPile"><path codeLine="19" d="M1186.56,283.2 C1237.1,306.44 1308.0188,339.0532 1356.8388,361.5032 " fill="none" id="Movement-to-OriginPile" style="stroke:#181818;stroke-width:1.0;"/><polygon fill="#181818" points="1362.29,364.01,1355.7843,356.6157,1357.7473,361.921,1352.4419,363.884,1362.29,364.01" style="stroke:#181818;stroke-width:1.0;"/></g><!--link Movement to TargetPile--><g id="link_Movement_TargetPile"><path codeLine="20" d="M1135.02,292.28 C1135.02,310.94 1135.02,328.25 1135.02,346.89 " fill="none" id="Movement-to-TargetPile" style="stroke:#181818;stroke-width:1.0;"/><polygon fill="#181818" points="1135.02,352.89,1139.02,343.89,1135.02,347.89,1131.02,343.89,1135.02,352.89" style="stroke:#181818;stroke-width:1.0;"/></g><!--link Movement to Card--><g id="link_Movement_Card"><path codeLine="21" d="M1105.11,292.28 C1085.01,314.3 1063.0643,338.3379 1045.1243,357.9979 " fill="none" id="Movement-to-Card" style="stroke:#181818;stroke-width:1.0;"/><polygon fill="#181818" points="1041.08,362.43,1050.1012,358.4781,1044.4503,358.7366,1044.1918,353.0857,1041.08,362.43" style="stroke:#181818;stroke-width:1.0;"/><text fill="#000000" font-family="sans-serif" font-size="13" lengthAdjust="spacing" textLength="29" x="1013.761" y="351.1495">1..24</text></g><!--reverse link OriginPile to FromWaste--><g id="link_OriginPile_FromWaste"><path codeLine="32" d="M1415.5769,438.0139 C1415.8569,448.8039 1413.6,442.28 1407.02,451 C1380.96,485.53 1332.22,498.02 1294.26,502.32 " fill="none" id="OriginPile-backto-FromWaste" style="stroke:#181818;stroke-width:1.0;"/><polygon fill="none" points="1415.11,420.02,1409.579,438.1696,1421.5749,437.8583,1415.11,420.02" style="stroke:#181818;stroke-width:1.0;"/></g><!--link FromWaste to Waste--><g id="link_FromWaste_Waste"><path codeLine="33" d="M1283.88,529.04 C1323.18,551.98 1380.75,590.44 1418.02,637 C1483.66,718.99 1520.016,835.7074 1533.646,886.1874 " fill="none" id="FromWaste-to-Waste" style="stroke:#181818;stroke-width:1.0;"/><polygon fill="#181818" points="1535.21,891.98,1536.7257,882.2485,1533.9066,887.1529,1529.0022,884.3338,1535.21,891.98" style="stroke:#181818;stroke-width:1.0;"/><text fill="#000000" font-family="sans-serif" font-size="13" lengthAdjust="spacing" textLength="31" x="1487.02" y="749.0283">origin</text></g><!--reverse link TargetPile to ToFoundation--><g id="link_TargetPile_ToFoundation"><path codeLine="36" d="M1069.9775,419.8621 C1064.2075,422.5721 1074.66,417.58 1069.02,420 C1013.62,443.81 949.01,467.32 902.91,483.39 " fill="none" id="TargetPile-backto-ToFoundation" style="stroke:#181818;stroke-width:1.0;"/><polygon fill="none" points="1086.27,412.21,1067.4268,414.4313,1072.5282,425.2929,1086.27,412.21" style="stroke:#181818;stroke-width:1.0;"/></g><!--link ToFoundation to Foundation--><g id="link_ToFoundation_Foundation"><path codeLine="37" d="M819.51,529.35 C771.88,578.65 663.63,689.95 644.02,704 C595.33,738.88 538.4629,765.5131 494.9529,783.5431 " fill="none" id="ToFoundation-to-Foundation" style="stroke:#181818;stroke-width:1.0;"/><polygon fill="#181818" points="489.41,785.84,499.2557,786.0899,494.0291,783.9259,496.1931,778.6993,489.41,785.84" style="stroke:#181818;stroke-width:1.0;"/><text fill="#000000" font-family="sans-serif" font-size="13" lengthAdjust="spacing" textLength="33" x="714.02" y="676.0283">target</text></g><!--reverse link OriginPile to FromTableau--><g id="link_OriginPile_FromTableau"><path codeLine="40" d="M1345.1258,405.526 C1269.4958,426.856 1137.45,464.11 1054.69,487.45 " fill="none" id="OriginPile-backto-FromTableau" style="stroke:#181818;stroke-width:1.0;"/><polygon fill="none" points="1362.45,400.64,1343.4972,399.7512,1346.7545,411.3007,1362.45,400.64" style="stroke:#181818;stroke-width:1.0;"/></g><!--link FromTableau to Tableau--><g id="link_FromTableau_Tableau"><path codeLine="41" d="M997.91,529.15 C999.9,569.12 998.37,651.79 958.02,704 C854.88,837.46 652.1707,889.5599 562.9407,906.8299 " fill="none" id="FromTableau-to-Tableau" style="stroke:#181818;stroke-width:1.0;"/><polygon fill="#181818" points="557.05,907.97,566.6461,910.187,561.9589,907.0199,565.126,902.3327,557.05,907.97" style="stroke:#181818;stroke-width:1.0;"/><text fill="#000000" font-family="sans-serif" font-size="13" lengthAdjust="spacing" textLength="31" x="933.02" y="749.0283">origin</text></g><!--reverse link TargetPile to ToTableau--><g id="link_TargetPile_ToTableau"><path codeLine="44" d="M1069.7892,420.6579 C1064.0392,423.0679 1074.78,418.29 1069.02,420 C835.44,489.43 541.42,501.63 424.92,503.66 " fill="none" id="TargetPile-backto-ToTableau" style="stroke:#181818;stroke-width:1.0;"/><polygon fill="none" points="1086.39,413.7,1067.4699,415.1243,1072.1085,426.1915,1086.39,413.7" style="stroke:#181818;stroke-width:1.0;"/></g><!--link ToTableau to Tableau--><g id="link_ToTableau_Tableau"><path codeLine="45" d="M323.18,515.98 C221.01,538.46 6,599.43 72.02,704 C162.64,847.53 374.63,894.5363 466.79,908.7363 " fill="none" id="ToTableau-to-Tableau" style="stroke:#181818;stroke-width:1.0;"/><polygon fill="#181818" points="472.72,909.65,464.4341,904.3261,467.7783,908.8886,463.2158,912.2328,472.72,909.65" style="stroke:#181818;stroke-width:1.0;"/><text fill="#000000" font-family="sans-serif" font-size="13" lengthAdjust="spacing" textLength="33" x="111.02" y="749.0283">target</text></g><!--reverse link OriginPile to StockToWaste--><g id="link_OriginPile_StockToWaste"><path codeLine="48" d="M1441.0047,434.9799 C1467.4447,474.2399 1501.16,524.31 1524.4,558.81 " fill="none" id="OriginPile-backto-StockToWaste" style="stroke:#181818;stroke-width:1.0;"/><polygon fill="none" points="1430.95,420.05,1436.0281,438.3315,1445.9813,431.6284,1430.95,420.05" style="stroke:#181818;stroke-width:1.0;"/></g><!--reverse link TargetPile to StockToWaste--><g id="link_TargetPile_StockToWaste"><path codeLine="49" d="M1200.1051,418.7539 C1278.2551,456.2939 1414.27,521.61 1491.94,558.91 " fill="none" id="TargetPile-backto-StockToWaste" style="stroke:#181818;stroke-width:1.0;"/><polygon fill="none" points="1183.88,410.96,1197.5072,424.1623,1202.7031,413.3455,1183.88,410.96" style="stroke:#181818;stroke-width:1.0;"/></g><!--link StockToWaste to Stock--><g id="link_StockToWaste_Stock"><path codeLine="50" d="M1540.22,607.04 C1539.3,642.75 1532.37,711.65 1495.02,753 C1467.5,783.47 1426.5319,795.4957 1394.6719,801.0157 " fill="none" id="StockToWaste-to-Stock" style="stroke:#181818;stroke-width:1.0;"/><polygon fill="#181818" points="1388.76,802.04,1398.3107,804.4449,1393.6866,801.1864,1396.945,796.5623,1388.76,802.04" style="stroke:#181818;stroke-width:1.0;"/><text fill="#000000" font-family="sans-serif" font-size="13" lengthAdjust="spacing" textLength="31" x="1540.02" y="676.0283">origin</text></g><!--link StockToWaste to Waste--><g id="link_StockToWaste_Waste"><path codeLine="51" d="M1562.61,607.14 C1569.59,615.8 1576.4,626.18 1580.02,637 C1610.44,727.81 1573.462,837.4468 1553.562,886.0868 " fill="none" id="StockToWaste-to-Waste" style="stroke:#181818;stroke-width:1.0;"/><polygon fill="#181818" points="1551.29,891.64,1558.4001,884.8248,1553.1833,887.0123,1550.9958,881.7955,1551.29,891.64" style="stroke:#181818;stroke-width:1.0;"/><text fill="#000000" font-family="sans-serif" font-size="13" lengthAdjust="spacing" textLength="33" x="1592.02" y="749.0283">target</text></g><!--reverse link FromWaste to WasteToStock--><g id="link_FromWaste_WasteToStock"><path codeLine="56" d="M1260.4479,545.2105 C1274.3979,573.3805 1290.1,605.06 1305.9,636.95 " fill="none" id="FromWaste-backto-WasteToStock" style="stroke:#181818;stroke-width:1.0;"/><polygon fill="none" points="1252.46,529.08,1255.0711,547.8731,1265.8248,542.5478,1252.46,529.08" style="stroke:#181818;stroke-width:1.0;"/></g><!--reverse link TargetPile to WasteToStock--><g id="link_TargetPile_WasteToStock"><path codeLine="57" d="M1139.9021,438.0072 C1143.5721,468.0572 1150.01,495.12 1170.02,529 C1195.98,572.93 1239.91,611.36 1273.88,636.87 " fill="none" id="TargetPile-backto-WasteToStock" style="stroke:#181818;stroke-width:1.0;"/><polygon fill="none" points="1137.72,420.14,1133.9464,438.7346,1145.8579,437.2799,1137.72,420.14" style="stroke:#181818;stroke-width:1.0;"/></g><!--link WasteToStock to Stock--><g id="link_WasteToStock_Stock"><path codeLine="58" d="M1330.01,704.06 C1335.96,728.32 1342.5207,755.0327 1347.8507,776.7627 " fill="none" id="WasteToStock-to-Stock" style="stroke:#181818;stroke-width:1.0;"/><polygon fill="#181818" points="1349.28,782.59,1351.0208,772.8962,1348.0889,777.7339,1343.2512,774.802,1349.28,782.59" style="stroke:#181818;stroke-width:1.0;"/><text fill="#000000" font-family="sans-serif" font-size="13" lengthAdjust="spacing" textLength="33" x="1343.02" y="749.0283">target</text></g><!--reverse link FromWaste to WasteToTableau--><g id="link_FromWaste_WasteToTableau"><path codeLine="61" d="M1170.2829,519.374 C1066.7929,539.244 848.75,583.13 654.02,637 C643.74,639.84 632.95,643.12 622.43,646.48 " fill="none" id="FromWaste-backto-WasteToTableau" style="stroke:#181818;stroke-width:1.0;"/><polygon fill="none" points="1187.96,515.98,1169.1515,513.4816,1171.4142,525.2664,1187.96,515.98" style="stroke:#181818;stroke-width:1.0;"/></g><!--reverse link ToTableau to WasteToTableau--><g id="link_ToTableau_WasteToTableau"><path codeLine="62" d="M413.101,541.1083 C447.691,572.1783 495.5,615.13 530.17,646.27 " fill="none" id="ToTableau-backto-WasteToTableau" style="stroke:#181818;stroke-width:1.0;"/><polygon fill="none" points="399.71,529.08,409.0916,545.572,417.1105,536.6446,399.71,529.08" style="stroke:#181818;stroke-width:1.0;"/></g><!--reverse link FromWaste to WasteToFoundation--><g id="link_FromWaste_WasteToFoundation"><path codeLine="65" d="M1214.8371,543.8884 C1193.3671,574.9584 1165.6,615.13 1144.07,646.27 " fill="none" id="FromWaste-backto-WasteToFoundation" style="stroke:#181818;stroke-width:1.0;"/><polygon fill="none" points="1225.07,529.08,1209.901,540.4774,1219.7732,547.2993,1225.07,529.08" style="stroke:#181818;stroke-width:1.0;"/></g><!--reverse link ToFoundation to WasteToFoundation--><g id="link_ToFoundation_WasteToFoundation"><path codeLine="66" d="M898.0175,538.012 C952.3775,569.082 1032.91,615.13 1087.4,646.27 " fill="none" id="ToFoundation-backto-WasteToFoundation" style="stroke:#181818;stroke-width:1.0;"/><polygon fill="none" points="882.39,529.08,895.0401,543.2212,900.9948,532.8029,882.39,529.08" style="stroke:#181818;stroke-width:1.0;"/></g><!--reverse link ToFoundation to TableauToFoundation--><g id="link_ToFoundation_TableauToFoundation"><path codeLine="69" d="M845.0373,547.0317 C847.3173,578.1017 850.03,615.13 852.32,646.27 " fill="none" id="ToFoundation-backto-TableauToFoundation" style="stroke:#181818;stroke-width:1.0;"/><polygon fill="none" points="843.72,529.08,839.0534,547.4708,851.0213,546.5926,843.72,529.08" style="stroke:#181818;stroke-width:1.0;"/></g><!--reverse link FromTableau to TableauToFoundation--><g id="link_FromTableau_TableauToFoundation"><path codeLine="70" d="M964.1756,542.6688 C937.1856,573.7388 901.25,615.13 874.19,646.27 " fill="none" id="FromTableau-backto-TableauToFoundation" style="stroke:#181818;stroke-width:1.0;"/><polygon fill="none" points="975.98,529.08,959.646,538.734,968.7052,546.6036,975.98,529.08" style="stroke:#181818;stroke-width:1.0;"/></g><!--link FoundationToTableau to Foundation--><g id="link_FoundationToTableau_Foundation"><path codeLine="73" d="M220.89,694.62 C268.84,719.33 339.077,755.5206 386.967,780.2106 " fill="none" id="FoundationToTableau-to-Foundation" style="stroke:#181818;stroke-width:1.0;"/><polygon fill="#181818" points="392.3,782.96,386.1335,775.2805,387.8559,780.6688,382.4676,782.3911,392.3,782.96" style="stroke:#181818;stroke-width:1.0;"/><text fill="#000000" font-family="sans-serif" font-size="13" lengthAdjust="spacing" textLength="31" x="331.02" y="749.0283">origin</text></g><!--reverse link ToTableau to FoundationToTableau--><g id="link_ToTableau_FoundationToTableau"><path codeLine="74" d="M332.1899,540.5404 C294.5599,571.6104 241.87,615.13 204.15,646.27 " fill="none" id="ToTableau-backto-FoundationToTableau" style="stroke:#181818;stroke-width:1.0;"/><polygon fill="none" points="346.07,529.08,328.3697,535.9137,336.01,545.1671,346.07,529.08" style="stroke:#181818;stroke-width:1.0;"/></g><!--reverse link FromTableau to TableauToTableau--><g id="link_FromTableau_TableauToTableau"><path codeLine="80" d="M919.9537,529.3368 C844.8937,547.2068 824.29,541.99 749.02,559 C622.6,587.57 591.77,598.47 468.02,637 C462.33,638.77 456.47,640.65 450.59,642.59 " fill="none" id="FromTableau-backto-TableauToTableau" style="stroke:#181818;stroke-width:1.0;"/><polygon fill="none" points="937.3,524.53,918.3514,523.5547,921.556,535.1189,937.3,524.53" style="stroke:#181818;stroke-width:1.0;"/></g><!--reverse link ToTableau to TableauToTableau--><g id="link_ToTableau_TableauToTableau"><path codeLine="81" d="M374.02,547.08 C374.02,575.25 374.02,605.06 374.02,636.95 " fill="none" id="ToTableau-backto-TableauToTableau" style="stroke:#181818;stroke-width:1.0;"/><polygon fill="none" points="374.02,529.08,368.02,547.08,380.02,547.08,374.02,529.08" style="stroke:#181818;stroke-width:1.0;"/></g><!--SRC=[ZLJ9QiCm4BthAmOV2n6uoScqkHHoAMq3SUbPiKKmSIombQPR_hs9jOqgoJINQ6QUthnPhAfbmm2FhUZgPiz9DPhhbdtodcXh8qMrr-StDaY3AjcsvUoehPKuTZMJZUZClGVMruGOQhYPrUBKpPQ6NVq1lNhf4h85V40-1qhXEOCdySuFl9E4iEqWUrP9KAGcy4tWygikAORNWTTm3pav4sB2O9AzzCskwTPDoyDOoVeTb_5ObbDwkyXq4Nz4E58bGuns0IFLEO2xF0ekHpi9N_NYeFhiyi3TZrA6elO4CnMxo5PseHM5IWGQavFbs7q0CcnZaAlGbKGhCDkHgi74qHaDHjaJTPZhyI9iL5Xgso97RjIZDIz5klCU89RN0s335ZOwNLbHZ1cXhsxqbcAy4Ux-wHhTD5_NTN9hOONXor7b7W0RWVAeAZpBUEfm82c4puosCKsUMja9dF-4_OCYXiIhEmaCdaZKij0N_zJqoaGQ6ACD2jI7oBD9QJxNQvCkPc9-0UON]--></g></svg>