<?xml version="1.0" encoding="us-ascii" standalone="no"?><svg xmlns="http://www.w3.org/2000/svg" xmlns:xlink="http://www.w3.org/1999/xlink" contentStyleType="text/css" height="424px" preserveAspectRatio="none" style="width:1197px;height:424px;background:#FFFFFF;" version="1.1" viewBox="0 0 1197 424" width="1197px" zoomAndPan="magnify"><defs/><g><g id="elem_klondike"><rect fill="#F1F1F1" height="38.6211" style="stroke:#181818;stroke-width:0.5;" width="72" x="383" y="7"/><text fill="#000000" font-family="sans-serif" font-size="14" lengthAdjust="spacing" textLength="58" x="390" y="24.1074">:Klondike</text><line style="stroke:#181818;stroke-width:0.5;" x1="384" x2="454" y1="29.6211" y2="29.6211"/></g><g id="elem_stock"><rect fill="#F1F1F1" height="38.6211" style="stroke:#181818;stroke-width:0.5;" width="53" x="191.5" y="143"/><text fill="#000000" font-family="sans-serif" font-size="14" lengthAdjust="spacing" textLength="39" x="198.5" y="160.1074">:Stock</text><line style="stroke:#181818;stroke-width:0.5;" x1="192.5" x2="243.5" y1="165.6211" y2="165.6211"/></g><g id="elem_cs1"><rect fill="#F1F1F1" height="86.4844" style="stroke:#181818;stroke-width:0.5;" width="118" x="7" y="243"/><text fill="#000000" font-family="sans-serif" font-size="14" lengthAdjust="spacing" textLength="35" x="48.5" y="260.1074">:Card</text><line style="stroke:#181818;stroke-width:0.5;" x1="8" x2="124" y1="265.6211" y2="265.6211"/><text fill="#000000" font-family="sans-serif" font-size="14" lengthAdjust="spacing" textLength="106" x="13" y="284.7285">displayed = false</text><text fill="#000000" font-family="sans-serif" font-size="14" lengthAdjust="spacing" textLength="92" x="13" y="303.3496">rank = random</text><text fill="#000000" font-family="sans-serif" font-size="14" lengthAdjust="spacing" textLength="94" x="13" y="321.9707">suite = random</text></g><g id="elem_cs2"><rect fill="#F1F1F1" height="86.4844" style="stroke:#181818;stroke-width:0.5;" width="118" x="160" y="243"/><text fill="#000000" font-family="sans-serif" font-size="14" lengthAdjust="spacing" textLength="35" x="201.5" y="260.1074">:Card</text><line style="stroke:#181818;stroke-width:0.5;" x1="161" x2="277" y1="265.6211" y2="265.6211"/><text fill="#000000" font-family="sans-serif" font-size="14" lengthAdjust="spacing" textLength="106" x="166" y="284.7285">displayed = false</text><text fill="#000000" font-family="sans-serif" font-size="14" lengthAdjust="spacing" textLength="92" x="166" y="303.3496">rank = random</text><text fill="#000000" font-family="sans-serif" font-size="14" lengthAdjust="spacing" textLength="94" x="166" y="321.9707">suite = random</text></g><g id="elem_waste"><rect fill="#F1F1F1" height="38.6211" style="stroke:#181818;stroke-width:0.5;" width="58" x="280" y="143"/><text fill="#000000" font-family="sans-serif" font-size="14" lengthAdjust="spacing" textLength="44" x="287" y="160.1074">:Waste</text><line style="stroke:#181818;stroke-width:0.5;" x1="281" x2="337" y1="165.6211" y2="165.6211"/></g><g id="elem_foundation"><rect fill="#F1F1F1" height="38.6211" style="stroke:#181818;stroke-width:0.5;" width="94" x="373" y="143"/><text fill="#000000" font-family="sans-serif" font-size="14" lengthAdjust="spacing" textLength="80" x="380" y="160.1074">: Foundation</text><line style="stroke:#181818;stroke-width:0.5;" x1="374" x2="466" y1="165.6211" y2="165.6211"/></g><g id="elem_tableau1"><rect fill="#F1F1F1" height="38.6211" style="stroke:#181818;stroke-width:0.5;" width="129" x="534.5" y="143"/><text fill="#000000" font-family="sans-serif" font-size="14" lengthAdjust="spacing" textLength="115" x="541.5" y="160.1074">tableau1: Tableau</text><line style="stroke:#181818;stroke-width:0.5;" x1="535.5" x2="662.5" y1="165.6211" y2="165.6211"/></g><g id="elem_ct1d"><rect fill="#F1F1F1" height="86.4844" style="stroke:#181818;stroke-width:0.5;" width="113" x="314.5" y="243"/><text fill="#000000" font-family="sans-serif" font-size="14" lengthAdjust="spacing" textLength="35" x="353.5" y="260.1074">:Card</text><line style="stroke:#181818;stroke-width:0.5;" x1="315.5" x2="426.5" y1="265.6211" y2="265.6211"/><text fill="#000000" font-family="sans-serif" font-size="14" lengthAdjust="spacing" textLength="101" x="320.5" y="284.7285">displayed = true</text><text fill="#000000" font-family="sans-serif" font-size="14" lengthAdjust="spacing" textLength="92" x="320.5" y="303.3496">rank = random</text><text fill="#000000" font-family="sans-serif" font-size="14" lengthAdjust="spacing" textLength="94" x="320.5" y="321.9707">suite = random</text></g><g id="elem_tableau7"><rect fill="#F1F1F1" height="38.6211" style="stroke:#181818;stroke-width:0.5;" width="129" x="762.5" y="143"/><text fill="#000000" font-family="sans-serif" font-size="14" lengthAdjust="spacing" textLength="115" x="769.5" y="160.1074">tableau7: Tableau</text><line style="stroke:#181818;stroke-width:0.5;" x1="763.5" x2="890.5" y1="165.6211" y2="165.6211"/></g><g id="elem_ct2d"><rect fill="#F1F1F1" height="86.4844" style="stroke:#181818;stroke-width:0.5;" width="113" x="770.5" y="243"/><text fill="#000000" font-family="sans-serif" font-size="14" lengthAdjust="spacing" textLength="35" x="809.5" y="260.1074">:Card</text><line style="stroke:#181818;stroke-width:0.5;" x1="771.5" x2="882.5" y1="265.6211" y2="265.6211"/><text fill="#000000" font-family="sans-serif" font-size="14" lengthAdjust="spacing" textLength="101" x="776.5" y="284.7285">displayed = true</text><text fill="#000000" font-family="sans-serif" font-size="14" lengthAdjust="spacing" textLength="92" x="776.5" y="303.3496">rank = random</text><text fill="#000000" font-family="sans-serif" font-size="14" lengthAdjust="spacing" textLength="94" x="776.5" y="321.9707">suite = random</text></g><g id="elem_ct2h1"><rect fill="#F1F1F1" height="86.4844" style="stroke:#181818;stroke-width:0.5;" width="118" x="919" y="243"/><text fill="#000000" font-family="sans-serif" font-size="14" lengthAdjust="spacing" textLength="35" x="960.5" y="260.1074">:Card</text><line style="stroke:#181818;stroke-width:0.5;" x1="920" x2="1036" y1="265.6211" y2="265.6211"/><text fill="#000000" font-family="sans-serif" font-size="14" lengthAdjust="spacing" textLength="106" x="925" y="284.7285">displayed = false</text><text fill="#000000" font-family="sans-serif" font-size="14" lengthAdjust="spacing" textLength="92" x="925" y="303.3496">rank = random</text><text fill="#000000" font-family="sans-serif" font-size="14" lengthAdjust="spacing" textLength="94" x="925" y="321.9707">suite = random</text></g><g id="elem_ct2h2"><rect fill="#F1F1F1" height="86.4844" style="stroke:#181818;stroke-width:0.5;" width="118" x="1072" y="243"/><text fill="#000000" font-family="sans-serif" font-size="14" lengthAdjust="spacing" textLength="35" x="1113.5" y="260.1074">:Card</text><line style="stroke:#181818;stroke-width:0.5;" x1="1073" x2="1189" y1="265.6211" y2="265.6211"/><text fill="#000000" font-family="sans-serif" font-size="14" lengthAdjust="spacing" textLength="106" x="1078" y="284.7285">displayed = false</text><text fill="#000000" font-family="sans-serif" font-size="14" lengthAdjust="spacing" textLength="92" x="1078" y="303.3496">rank = random</text><text fill="#000000" font-family="sans-serif" font-size="14" lengthAdjust="spacing" textLength="94" x="1078" y="321.9707">suite = random</text></g><g id="elem_tableauNote"><path d="M462.5,255 L462.5,316.873 L735.5,316.873 L735.5,265 L725.5,255 L462.5,255 " fill="#FEFFDD" style="stroke:#181818;stroke-width:0.5;"/><path d="M725.5,255 L725.5,265 L735.5,265 L725.5,255 " fill="#FEFFDD" style="stroke:#181818;stroke-width:1.0;"/><text fill="#000000" font-family="sans-serif" font-size="13" lengthAdjust="spacing" textLength="252" x="468.5" y="274.0283">All 7 tableaus have 1 displayed card on top.</text><text fill="#000000" font-family="sans-serif" font-size="13" lengthAdjust="spacing" textLength="222" x="468.5" y="291.3193">Under the displayed: each tableau has</text><text fill="#000000" font-family="sans-serif" font-size="13" lengthAdjust="spacing" textLength="203" x="468.5" y="308.6104">+1 hidden card vs previous tableau.</text></g><g id="elem_stockNote"><path d="M45.5,390 L45.5,417.291 L212.5,417.291 L212.5,400 L202.5,390 L45.5,390 " fill="#FEFFDD" style="stroke:#181818;stroke-width:0.5;"/><path d="M202.5,390 L202.5,400 L212.5,400 L202.5,390 " fill="#FEFFDD" style="stroke:#181818;stroke-width:1.0;"/><text fill="#000000" font-family="sans-serif" font-size="13" lengthAdjust="spacing" textLength="146" x="51.5" y="409.0283">The same for all 24 cards</text></g><g id="elem_hiddenNote"><path d="M963,390 L963,417.291 L1147,417.291 L1147,400 L1137,390 L963,390 " fill="#FEFFDD" style="stroke:#181818;stroke-width:0.5;"/><path d="M1137,390 L1137,400 L1147,400 L1137,390 " fill="#FEFFDD" style="stroke:#181818;stroke-width:1.0;"/><text fill="#000000" font-family="sans-serif" font-size="13" lengthAdjust="spacing" textLength="163" x="969" y="409.0283">tableau7 has 6 hidden cards</text></g><!--link klondike to stock--><g id="link_klondike_stock"><path codeLine="47" d="M379.121,52.5887 C365.031,61.5087 358.15,65.99 343,76 C308.78,98.61 274.7791,121.9989 249.5791,139.4889 " fill="none" id="klondike-stock" style="stroke:#181818;stroke-width:1.0;"/><polygon fill="#181818" points="389.26,46.17,382.0509,45.9997,379.121,52.5887,386.3301,52.759,389.26,46.17" style="stroke:#181818;stroke-width:1.0;"/><polygon fill="#181818" points="244.65,142.91,254.3244,141.0645,248.7576,140.0591,249.763,134.4923,244.65,142.91" style="stroke:#181818;stroke-width:1.0;"/></g><!--link klondike to waste--><g id="link_klondike_waste"><path codeLine="48" d="M396.0883,55.4069 C375.1983,80.8669 349.3364,112.352 328.3264,137.952 " fill="none" id="klondike-waste" style="stroke:#181818;stroke-width:1.0;"/><polygon fill="#181818" points="403.7,46.13,396.8018,48.2312,396.0883,55.4069,402.9864,53.3057,403.7,46.13" style="stroke:#181818;stroke-width:1.0;"/><polygon fill="#181818" points="324.52,142.59,333.3216,138.1706,327.692,138.725,327.1376,133.0954,324.52,142.59" style="stroke:#181818;stroke-width:1.0;"/></g><!--link klondike to foundation--><g id="link_klondike_foundation"><path codeLine="49" d="M416.7458,58.3423 C416.1358,67.3123 416.3,66.22 416,76 C415.49,92.44 415.32,96.57 416,113 C416.4,122.79 416.7138,127.6949 417.5338,136.6649 " fill="none" id="klondike-foundation" style="stroke:#181818;stroke-width:1.0;"/><polygon fill="#181818" points="417.56,46.37,413.1621,52.0848,416.7458,58.3423,421.1437,52.6276,417.56,46.37" style="stroke:#181818;stroke-width:1.0;"/><polygon fill="#181818" points="418.08,142.64,421.2441,133.3132,417.6248,137.6608,413.2773,134.0415,418.08,142.64" style="stroke:#181818;stroke-width:1.0;"/><path d="M421,81 L421,108 L568,108 L568,91 L558,81 L421,81 " fill="#FEFFDD" style="stroke:#181818;stroke-width:0.5;"/><path d="M558,81 L558,91 L568,91 L558,81 " fill="#FEFFDD" style="stroke:#181818;stroke-width:0.5;"/><text fill="#000000" font-family="sans-serif" font-size="13" lengthAdjust="spacing" textLength="126" x="427" y="100.0283">idem all 4 foundations</text></g><!--link klondike to tableau1--><g id="link_klondike_tableau1"><path codeLine="53" d="M467.2302,29.9024 C503.1102,33.1824 545.19,42.7 577,76 C594.15,93.96 598.1442,117.4355 598.9642,136.6555 " fill="none" id="klondike-tableau1" style="stroke:#181818;stroke-width:1.0;"/><polygon fill="#181818" points="455.28,28.81,460.8909,33.3396,467.2302,29.9024,461.6192,25.3728,455.28,28.81" style="stroke:#181818;stroke-width:1.0;"/><polygon fill="#181818" points="599.22,142.65,602.8327,133.4877,599.0069,137.6545,594.84,133.8287,599.22,142.65" style="stroke:#181818;stroke-width:1.0;"/></g><!--link klondike to tableau7--><g id="link_klondike_tableau7"><path codeLine="54" d="M467.053,37.6835 C506.153,46.2335 558.25,58.64 612,76 C673.35,95.81 736.7733,122.0076 779.6733,140.5676 " fill="none" id="klondike-tableau7" style="stroke:#181818;stroke-width:1.0;"/><polygon fill="#181818" points="455.33,35.12,460.337,40.3094,467.053,37.6835,462.046,32.4941,455.33,35.12" style="stroke:#181818;stroke-width:1.0;"/><polygon fill="#181818" points="785.18,142.95,778.5082,135.7052,780.5911,140.9647,775.3316,143.0476,785.18,142.95" style="stroke:#181818;stroke-width:1.0;"/></g><!--link tableau1 to tableauNote--><g id="link_tableau1_tableauNote"><path codeLine="61" d="M599,182.22 C599,201.52 599,231.93 599,254.67 " fill="none" id="tableau1-tableauNote" style="stroke:#181818;stroke-width:1.0;stroke-dasharray:7.0,7.0;"/></g><!--link tableau7 to tableauNote--><g id="link_tableau7_tableauNote"><path codeLine="62" d="M791.87,182.22 C755.52,201.59 698.19,232.14 655.47,254.91 " fill="none" id="tableau7-tableauNote" style="stroke:#181818;stroke-width:1.0;stroke-dasharray:7.0,7.0;"/></g><!--link stock to cs1--><g id="link_stock_cs1"><path codeLine="65" d="M185.2073,189.7135 C165.0573,205.8235 149.2861,218.4229 123.4361,239.0929 " fill="none" id="stock-cs1" style="stroke:#181818;stroke-width:1.0;"/><polygon fill="none" points="194.58,182.22,187.3958,182.8425,185.2073,189.7135,192.3915,189.091,194.58,182.22" style="stroke:#181818;stroke-width:1.0;"/><polygon fill="#181818" points="118.75,242.84,128.2772,240.3435,122.6551,239.7174,123.2811,234.0953,118.75,242.84" style="stroke:#181818;stroke-width:1.0;"/></g><!--link stock to cs2--><g id="link_stock_cs2"><path codeLine="66" d="M218.2543,194.2195 C218.3943,210.3295 218.4307,216.1702 218.6007,236.8402 " fill="none" id="stock-cs2" style="stroke:#181818;stroke-width:1.0;"/><polygon fill="none" points="218.15,182.22,214.2023,188.2545,218.2543,194.2195,222.202,188.185,218.15,182.22" style="stroke:#181818;stroke-width:1.0;"/><polygon fill="#181818" points="218.65,242.84,222.5758,233.8074,218.6089,237.8402,214.5761,233.8732,218.65,242.84" style="stroke:#181818;stroke-width:1.0;"/></g><!--link cs1 to stockNote--><g id="link_cs1_stockNote"><path codeLine="71" d="M88.92,329.02 C100.67,350.57 114.15,375.27 122.1,389.84 " fill="none" id="cs1-stockNote" style="stroke:#181818;stroke-width:1.0;stroke-dasharray:7.0,7.0;"/></g><!--link cs2 to stockNote--><g id="link_cs2_stockNote"><path codeLine="72" d="M186.25,329.02 C169.47,350.57 150.22,375.27 138.86,389.84 " fill="none" id="cs2-stockNote" style="stroke:#181818;stroke-width:1.0;stroke-dasharray:7.0,7.0;"/></g><!--link tableau1 to ct1d--><g id="link_tableau1_ct1d"><path codeLine="75" d="M551.3637,187.4698 C520.0337,203.3298 484.69,221.51 445,243 C439.41,246.03 438.8615,246.3 433.0815,249.52 " fill="none" id="tableau1-ct1d" style="stroke:#181818;stroke-width:1.0;"/><polygon fill="none" points="562.07,182.05,554.9102,181.1911,551.3637,187.4698,558.5234,188.3287,562.07,182.05" style="stroke:#181818;stroke-width:1.0;"/><polygon fill="#181818" points="427.84,252.44,437.649,251.5543,432.2079,250.0067,433.7556,244.5656,427.84,252.44" style="stroke:#181818;stroke-width:1.0;"/></g><!--link tableau7 to ct2d--><g id="link_tableau7_ct2d"><path codeLine="77" d="M827,194.22 C827,210.33 827,216.17 827,236.84 " fill="none" id="tableau7-ct2d" style="stroke:#181818;stroke-width:1.0;"/><polygon fill="none" points="827,182.22,823,188.22,827,194.22,831,188.22,827,182.22" style="stroke:#181818;stroke-width:1.0;"/><polygon fill="#181818" points="827,242.84,831,233.84,827,237.84,823,233.84,827,242.84" style="stroke:#181818;stroke-width:1.0;"/></g><!--link tableau7 to ct2h1--><g id="link_tableau7_ct2h1"><path codeLine="78" d="M859.609,189.7431 C879.629,205.8531 895.2353,218.4088 920.9253,239.0788 " fill="none" id="tableau7-ct2h1" style="stroke:#181818;stroke-width:1.0;"/><polygon fill="none" points="850.26,182.22,852.4268,189.0979,859.609,189.7431,857.4422,182.8652,850.26,182.22" style="stroke:#181818;stroke-width:1.0;"/><polygon fill="#181818" points="925.6,242.84,921.0954,234.0816,921.7044,239.7056,916.0804,240.3146,925.6,242.84" style="stroke:#181818;stroke-width:1.0;"/></g><!--link tableau7 to ct2h2--><g id="link_tableau7_ct2h2"><path codeLine="79" d="M900.5078,185.5984 C946.9878,200.2084 1000.27,218.55 1055,243 C1060.51,245.46 1060.795,245.4738 1066.395,248.3038 " fill="none" id="tableau7-ct2h2" style="stroke:#181818;stroke-width:1.0;"/><polygon fill="none" points="889.06,182,893.5844,187.6151,900.5078,185.5984,895.9833,179.9833,889.06,182" style="stroke:#181818;stroke-width:1.0;"/><polygon fill="#181818" points="1071.75,251.01,1065.5216,243.3807,1067.2875,248.7548,1061.9133,250.5207,1071.75,251.01" style="stroke:#181818;stroke-width:1.0;"/></g><!--link ct2h1 to hiddenNote--><g id="link_ct2h1_hiddenNote"><path codeLine="84" d="M1006.02,329.02 C1020.38,350.57 1036.85,375.27 1046.56,389.84 " fill="none" id="ct2h1-hiddenNote" style="stroke:#181818;stroke-width:1.0;stroke-dasharray:7.0,7.0;"/></g><!--link ct2h2 to hiddenNote--><g id="link_ct2h2_hiddenNote"><path codeLine="85" d="M1103.35,329.02 C1089.17,350.57 1072.92,375.27 1063.33,389.84 " fill="none" id="ct2h2-hiddenNote" style="stroke:#181818;stroke-width:1.0;stroke-dasharray:7.0,7.0;"/></g><!--SRC=[jLHHIyCm47xFhpXyAIWBj0m70mKHV15ySU9prcGqjajAasw8-D-zfakJskv1XdjPybtkk_k-kqrlFqHkuMhzN6d5PIckW1aeJnT2j8-_MfsNBcYwKnHvP0rtWToaNmJmmwMfA_OfEDp1ZbL6EBHXgaG0lxZUEyIqqee0VSzoPXTo1j9tPcolxzYTGW2UTAiuir8h5zuDrv1jsROIh4tNiEbFxgL7P-smAP_sRflsxwsVogncYw_cYsSN5f_bBFvXmiXwyOmJlx70HIqK5ogNmYHaWAyNN1_LulwqlLEyNuaf7ks2qbXLAwYaAedaOW-igc0PFJ44QqFtRePfs9Mp8Poagn5c-z9HFM2LbKSC5EmW88tCoj7AhY-hQqhUK7m3jX3XmHe4omjFWFc6tAHGI8uszSa70tKZ3bAtGsKQfFZ6AOsxyZsFKP8uWt-DeSUqbuj_55Ce2-9TpD5jK8TXUu4UDyxjREawZen6Caf31XB5Lv9usUEElAQe0_ovaa5LZ6Ty7YxICtWafNTvP5Wt0BYD_O_LTBIKHccES8Jy0000]--></g></svg>