<?xml version="1.0" encoding="us-ascii" standalone="no"?><svg xmlns="http://www.w3.org/2000/svg" xmlns:xlink="http://www.w3.org/1999/xlink" contentStyleType="text/css" height="441px" preserveAspectRatio="none" style="width:572px;height:441px;background:#FFFFFF;" version="1.1" viewBox="0 0 572 441" width="572px" zoomAndPan="magnify"><defs/><g><g id="elem_klondike"><rect fill="#F1F1F1" height="38.6211" style="stroke:#181818;stroke-width:0.5;" width="66" x="122" y="7"/><text fill="#000000" font-family="sans-serif" font-size="14" lengthAdjust="spacing" textLength="52" x="129" y="24.1074">klondike</text><line style="stroke:#181818;stroke-width:0.5;" x1="123" x2="187" y1="29.6211" y2="29.6211"/></g><g id="elem_deck"><rect fill="#F1F1F1" height="38.6211" style="stroke:#181818;stroke-width:0.5;" width="44" x="7" y="143"/><text fill="#000000" font-family="sans-serif" font-size="14" lengthAdjust="spacing" textLength="30" x="14" y="160.1074">deck</text><line style="stroke:#181818;stroke-width:0.5;" x1="8" x2="50" y1="165.6211" y2="165.6211"/></g><g id="elem_waste"><rect fill="#F1F1F1" height="38.6211" style="stroke:#181818;stroke-width:0.5;" width="50" x="86" y="143"/><text fill="#000000" font-family="sans-serif" font-size="14" lengthAdjust="spacing" textLength="36" x="93" y="160.1074">waste</text><line style="stroke:#181818;stroke-width:0.5;" x1="87" x2="135" y1="165.6211" y2="165.6211"/></g><g id="elem_tableauX"><rect fill="#F1F1F1" height="38.6211" style="stroke:#181818;stroke-width:0.5;" width="69" x="171.5" y="143"/><text fill="#000000" font-family="sans-serif" font-size="14" lengthAdjust="spacing" textLength="55" x="178.5" y="160.1074">tableauX</text><line style="stroke:#181818;stroke-width:0.5;" x1="172.5" x2="239.5" y1="165.6211" y2="165.6211"/></g><g id="elem_foundation1"><rect fill="#F1F1F1" height="38.6211" style="stroke:#181818;stroke-width:0.5;" width="195" x="278.5" y="143"/><text fill="#000000" font-family="sans-serif" font-size="14" lengthAdjust="spacing" textLength="181" x="285.5" y="160.1074">foundationHeart :Foundation</text><line style="stroke:#181818;stroke-width:0.5;" x1="279.5" x2="472.5" y1="165.6211" y2="165.6211"/></g><g id="elem_cA"><rect fill="#F1F1F1" height="86.4844" style="stroke:#181818;stroke-width:0.5;" width="113" x="232.5" y="243"/><text fill="#000000" font-family="sans-serif" font-size="14" lengthAdjust="spacing" textLength="35" x="271.5" y="260.1074">:Card</text><line style="stroke:#181818;stroke-width:0.5;" x1="233.5" x2="344.5" y1="265.6211" y2="265.6211"/><text fill="#000000" font-family="sans-serif" font-size="14" lengthAdjust="spacing" textLength="101" x="238.5" y="284.7285">displayed = true</text><text fill="#000000" font-family="sans-serif" font-size="14" lengthAdjust="spacing" textLength="92" x="238.5" y="303.3496">suite = HEART</text><text fill="#000000" font-family="sans-serif" font-size="14" lengthAdjust="spacing" textLength="53" x="238.5" y="321.9707">rank = A</text></g><g id="elem_cK"><rect fill="#F1F1F1" height="86.4844" style="stroke:#181818;stroke-width:0.5;" width="113" x="380.5" y="243"/><text fill="#000000" font-family="sans-serif" font-size="14" lengthAdjust="spacing" textLength="35" x="419.5" y="260.1074">:Card</text><line style="stroke:#181818;stroke-width:0.5;" x1="381.5" x2="492.5" y1="265.6211" y2="265.6211"/><text fill="#000000" font-family="sans-serif" font-size="14" lengthAdjust="spacing" textLength="101" x="386.5" y="284.7285">displayed = true</text><text fill="#000000" font-family="sans-serif" font-size="14" lengthAdjust="spacing" textLength="92" x="386.5" y="303.3496">suite = HEART</text><text fill="#000000" font-family="sans-serif" font-size="14" lengthAdjust="spacing" textLength="72" x="386.5" y="321.9707">rank = King</text></g><g id="elem_cardNote"><path d="M248.5,390 L248.5,434.582 L475.5,434.582 L475.5,400 L465.5,390 L248.5,390 " fill="#FEFFDD" style="stroke:#181818;stroke-width:0.5;"/><path d="M465.5,390 L465.5,400 L475.5,400 L465.5,390 " fill="#FEFFDD" style="stroke:#181818;stroke-width:1.0;"/><text fill="#000000" font-family="sans-serif" font-size="13" lengthAdjust="spacing" textLength="96" x="254.5" y="409.0283">All suite's cards.</text><text fill="#000000" font-family="sans-serif" font-size="13" lengthAdjust="spacing" textLength="206" x="254.5" y="426.3193">Order: Ace in bottom to King on top</text></g><!--link klondike to deck--><g id="link_klondike_deck"><path codeLine="24" d="M129.2597,54.8722 C105.3197,80.3322 74.96,112.6187 50.89,138.2187 " fill="none" id="klondike-deck" style="stroke:#181818;stroke-width:1.0;"/><polygon fill="#181818" points="137.48,46.13,130.4558,47.761,129.2597,54.8722,136.2839,53.2412,137.48,46.13" style="stroke:#181818;stroke-width:1.0;"/><polygon fill="#181818" points="46.78,142.59,55.8592,138.7731,50.205,138.9473,50.0308,133.2931,46.78,142.59" style="stroke:#181818;stroke-width:1.0;"/></g><!--link klondike to waste--><g id="link_klondike_waste"><path codeLine="25" d="M145.1364,57.5311 C136.7764,82.9911 127.4806,111.2891 119.0806,136.8891 " fill="none" id="klondike-waste" style="stroke:#181818;stroke-width:1.0;"/><polygon fill="#181818" points="148.88,46.13,143.2078,50.5827,145.1364,57.5311,150.8085,53.0784,148.88,46.13" style="stroke:#181818;stroke-width:1.0;"/><polygon fill="#181818" points="117.21,142.59,123.8166,135.2857,118.7689,137.8392,116.2153,132.7915,117.21,142.59" style="stroke:#181818;stroke-width:1.0;"/></g><!--link klondike to tableauX--><g id="link_klondike_tableauX"><path codeLine="26" d="M166.3585,57.3452 C176.0485,82.8052 186.9264,111.3822 196.6664,136.9822 " fill="none" id="klondike-tableauX" style="stroke:#181818;stroke-width:1.0;"/><polygon fill="#181818" points="162.09,46.13,160.4858,53.1604,166.3585,57.3452,167.9626,50.3148,162.09,46.13" style="stroke:#181818;stroke-width:1.0;"/><polygon fill="#181818" points="198.8,142.59,199.3381,132.7559,197.022,137.9168,191.861,135.6007,198.8,142.59" style="stroke:#181818;stroke-width:1.0;"/><path d="M192,81 L192,108 L315,108 L315,91 L305,81 L192,81 " fill="#FEFFDD" style="stroke:#181818;stroke-width:0.5;"/><path d="M305,81 L305,91 L315,91 L305,81 " fill="#FEFFDD" style="stroke:#181818;stroke-width:0.5;"/><text fill="#000000" font-family="sans-serif" font-size="13" lengthAdjust="spacing" textLength="102" x="198" y="100.0283">Idem all 7 tableau</text></g><!--link klondike to foundation1--><g id="link_klondike_foundation1"><path codeLine="31" d="M199.9449,30.4487 C237.4849,34.0587 286.93,43.71 328,76 C349.95,93.26 361.472,117.8324 368.362,137.3424 " fill="none" id="klondike-foundation1" style="stroke:#181818;stroke-width:1.0;"/><polygon fill="#181818" points="188,29.3,193.5896,33.856,199.9449,30.4487,194.3553,25.8927,188,29.3" style="stroke:#181818;stroke-width:1.0;"/><polygon fill="#181818" points="370.36,143,371.1347,133.1817,368.695,138.2854,363.5913,135.8456,370.36,143" style="stroke:#181818;stroke-width:1.0;"/><path d="M362,81 L362,108 L565,108 L565,91 L555,81 L362,81 " fill="#FEFFDD" style="stroke:#181818;stroke-width:0.5;"/><path d="M555,81 L555,91 L565,91 L555,81 " fill="#FEFFDD" style="stroke:#181818;stroke-width:0.5;"/><text fill="#000000" font-family="sans-serif" font-size="13" lengthAdjust="spacing" textLength="182" x="368" y="100.0283">Same schema all 4 foundations</text></g><!--link foundation1 to cK--><g id="link_foundation1_cK"><path codeLine="36" d="M390.7852,192.9438 C398.8752,209.0538 402.7695,216.8071 413.1395,237.4771 " fill="none" id="foundation1-cK" style="stroke:#181818;stroke-width:1.0;"/><polygon fill="none" points="385.4,182.22,384.518,189.377,390.7852,192.9438,391.6672,185.7868,385.4,182.22" style="stroke:#181818;stroke-width:1.0;"/><polygon fill="#181818" points="415.83,242.84,415.3695,233.0019,413.5879,238.3709,408.2189,236.5893,415.83,242.84" style="stroke:#181818;stroke-width:1.0;"/></g><!--link foundation1 to cA--><g id="link_foundation1_cA"><path codeLine="37" d="M355.612,191.9754 C344.072,208.0854 337.483,217.2916 322.683,237.9616 " fill="none" id="foundation1-cA" style="stroke:#181818;stroke-width:1.0;"/><polygon fill="none" points="362.6,182.22,355.8542,184.7683,355.612,191.9754,362.3578,189.427,362.6,182.22" style="stroke:#181818;stroke-width:1.0;"/><polygon fill="#181818" points="319.19,242.84,327.6818,237.8511,322.1008,238.7747,321.1772,233.1937,319.19,242.84" style="stroke:#181818;stroke-width:1.0;"/></g><!--link cA to cardNote--><g id="link_cA_cardNote"><path codeLine="43" d="M313.71,329.15 C325.63,349.47 339.42,372.98 349.2,389.67 " fill="none" id="cA-cardNote" style="stroke:#181818;stroke-width:1.0;stroke-dasharray:7.0,7.0;"/></g><!--link cK to cardNote--><g id="link_cK_cardNote"><path codeLine="44" d="M411.61,329.15 C399.37,349.47 385.2,372.98 375.15,389.67 " fill="none" id="cK-cardNote" style="stroke:#181818;stroke-width:1.0;stroke-dasharray:7.0,7.0;"/></g><!--SRC=[dP31IiGm48RlUOfXBmLX2u8W51I2A2i51VNWDKrcDJRDb2Hb4V7TJLEQLdQzc5k-cNmp-QdvG1cWDMILRf4nce12sURBGVYmb89e38hXDOFDdWQhHD1aToXSWEekWmq83qlzV7bKtGYdKbdoBmRnAErx8pvHmHK4Ds22Vj018zZTygUNH9omRGISVPzorVznrTg-HHqhvXpY_tkq2gtKw0kMyTbMqS5khwTyZl6Kr37FcLcA6v05estBxXLs88o1oxc1nQ4mzh0JadMClppFeaFmyXqxaNGNgrQ_Kgu4GBDLrdzmpgOfOwenteTHmQCzfLXCq9ViqIbq5N29e2qq509r42XbEcuOg5zMaBmiiqpMgyiF]--></g></svg>