<?xml version="1.0" encoding="us-ascii" standalone="no"?><svg xmlns="http://www.w3.org/2000/svg" xmlns:xlink="http://www.w3.org/1999/xlink" contentStyleType="text/css" height="905px" preserveAspectRatio="none" style="width:901px;height:905px;background:#FFFFFF;" version="1.1" viewBox="0 0 901 905" width="901px" zoomAndPan="magnify"><defs/><g><g id="playerChoice"><rect fill="#F1F1F1" height="54.582" rx="12.5" ry="12.5" style="stroke:#181818;stroke-width:0.5;" width="275" x="7" y="469"/><line style="stroke:#181818;stroke-width:0.5;" x1="7" x2="282" y1="497.6211" y2="497.6211"/><text fill="#000000" font-family="sans-serif" font-size="14" lengthAdjust="spacing" textLength="4" x="142.5" y="489.1074">&#160;</text><text fill="#000000" font-family="sans-serif" font-size="12" lengthAdjust="spacing" textLength="255" x="12" y="515.5703">player can chooses which path (if guard = true)</text></g><g id="ONE_CARD_MOVEMENT"><rect fill="#F1F1F1" height="54.582" rx="12.5" ry="12.5" style="stroke:#181818;stroke-width:0.5;" width="182" x="178.5" y="640"/><line style="stroke:#181818;stroke-width:0.5;" x1="178.5" x2="360.5" y1="668.6211" y2="668.6211"/><text fill="#000000" font-family="sans-serif" font-size="14" lengthAdjust="spacing" textLength="162" x="188.5" y="660.1074">ONE_CARD_MOVEMENT</text><text fill="#000000" font-family="sans-serif" font-size="12" lengthAdjust="spacing" textLength="70" x="183.5" y="686.5703">see diagram</text></g><g id="FROM_TABLEAU_MANY_CARDS_MOVEMENT"><rect fill="#F1F1F1" height="54.582" rx="12.5" ry="12.5" style="stroke:#181818;stroke-width:0.5;" width="319" x="459" y="640"/><line style="stroke:#181818;stroke-width:0.5;" x1="459" x2="778" y1="668.6211" y2="668.6211"/><text fill="#000000" font-family="sans-serif" font-size="14" lengthAdjust="spacing" textLength="299" x="469" y="660.1074">FROM_TABLEAU_MANY_CARDS_MOVEMENT</text><text fill="#000000" font-family="sans-serif" font-size="12" lengthAdjust="spacing" textLength="70" x="464" y="686.5703">see diagram</text></g><g id="WASTE_TO_STOCK_MOVEMENT"><rect fill="#F1F1F1" height="54.582" rx="12.5" ry="12.5" style="stroke:#181818;stroke-width:0.5;" width="239" x="531" y="469"/><line style="stroke:#181818;stroke-width:0.5;" x1="531" x2="770" y1="497.6211" y2="497.6211"/><text fill="#000000" font-family="sans-serif" font-size="14" lengthAdjust="spacing" textLength="219" x="541" y="489.1074">WASTE_TO_STOCK_MOVEMENT</text><text fill="#000000" font-family="sans-serif" font-size="12" lengthAdjust="spacing" textLength="70" x="536" y="515.5703">see diagram</text></g><g id="elem_winEvaluation"><polygon fill="#F1F1F1" points="273.5,774,285.5,786,273.5,798,261.5,786,273.5,774" style="stroke:#181818;stroke-width:0.5;"/></g><ellipse cx="779.5" cy="16" fill="#222222" rx="10" ry="10" style="stroke:#222222;stroke-width:1.0;"/><g id="DECK_SUFFLED"><rect fill="#F1F1F1" height="50" rx="12.5" ry="12.5" style="stroke:#181818;stroke-width:0.5;" width="129" x="715" y="105"/><line style="stroke:#181818;stroke-width:0.5;" x1="715" x2="844" y1="133.6211" y2="133.6211"/><text fill="#000000" font-family="sans-serif" font-size="14" lengthAdjust="spacing" textLength="109" x="725" y="125.1074">DECK_SUFFLED</text></g><g id="IN_GAME"><rect fill="#F1F1F1" height="50" rx="12.5" ry="12.5" style="stroke:#181818;stroke-width:0.5;" width="80" x="739.5" y="234"/><line style="stroke:#181818;stroke-width:0.5;" x1="739.5" x2="819.5" y1="262.6211" y2="262.6211"/><text fill="#000000" font-family="sans-serif" font-size="14" lengthAdjust="spacing" textLength="60" x="749.5" y="254.1074">IN_GAME</text></g><ellipse cx="150.5" cy="888" fill="none" rx="11" ry="11" style="stroke:#222222;stroke-width:1.0;"/><ellipse cx="150.5" cy="888" fill="#222222" rx="6" ry="6" style="stroke:#222222;stroke-width:1.0;"/><!--link *start* to DECK_SUFFLED--><g id="link_*start*_DECK_SUFFLED"><path d="M779.5,26.17 C779.5,43.2 779.5,74.23 779.5,98.89 " fill="none" id="*start*-to-DECK_SUFFLED" style="stroke:#181818;stroke-width:1.0;"/><polygon fill="#181818" points="779.5,104.89,783.5,95.89,779.5,99.89,775.5,95.89,779.5,104.89" style="stroke:#181818;stroke-width:1.0;"/><text fill="#000000" font-family="sans-serif" font-size="13" lengthAdjust="spacing" textLength="37" x="780.5" y="71.0283">shuffle</text></g><!--link DECK_SUFFLED to IN_GAME--><g id="link_DECK_SUFFLED_IN_GAME"><path d="M779.5,155.19 C779.5,177.78 779.5,205.33 779.5,227.9 " fill="none" id="DECK_SUFFLED-to-IN_GAME" style="stroke:#181818;stroke-width:1.0;"/><polygon fill="#181818" points="779.5,233.9,783.5,224.9,779.5,228.9,775.5,224.9,779.5,233.9" style="stroke:#181818;stroke-width:1.0;"/><text fill="#000000" font-family="sans-serif" font-size="13" lengthAdjust="spacing" textLength="24" x="780.5" y="200.0283">deal</text></g><!--link IN_GAME to playerChoice--><g id="link_IN_GAME_playerChoice"><path d="M739.3,274.91 C634.13,313.91 355.4256,417.2736 221.6056,466.9036 " fill="none" id="IN_GAME-to-playerChoice" style="stroke:#181818;stroke-width:1.0;"/><polygon fill="#181818" points="215.98,468.99,225.8093,469.6108,220.668,467.2514,223.0275,462.1101,215.98,468.99" style="stroke:#181818;stroke-width:1.0;"/></g><!--link playerChoice to *end*--><g id="link_playerChoice_*end*"><path d="M141.74,524.14 C137.43,569.36 130.04,664.03 134.5,744 C137.3,794.13 144.6854,847.7641 148.1154,871.0441 " fill="none" id="playerChoice-to-*end*" style="stroke:#181818;stroke-width:1.0;"/><polygon fill="#181818" points="148.99,876.98,151.6354,867.4931,148.2612,872.0334,143.7209,868.6592,148.99,876.98" style="stroke:#181818;stroke-width:1.0;"/><text fill="#000000" font-family="sans-serif" font-size="13" lengthAdjust="spacing" textLength="127" x="135.5" y="740.0283">player chooses resign</text></g><!--link playerChoice to ONE_CARD_MOVEMENT--><g id="link_playerChoice_ONE_CARD_MOVEMENT"><path d="M146.55,524.05 C149.62,548.54 157.3,584.8 176.5,610 C185.54,621.87 192.7911,628.5896 205.5011,636.6396 " fill="none" id="playerChoice-to-ONE_CARD_MOVEMENT" style="stroke:#181818;stroke-width:1.0;"/><polygon fill="#181818" points="210.57,639.85,205.107,631.6552,206.346,637.1747,200.8264,638.4136,210.57,639.85" style="stroke:#181818;stroke-width:1.0;"/><path d="M181.5,559 L181.5,586 L397.5,586 L397.5,569 L387.5,559 L181.5,559 " fill="#FEFFDD" style="stroke:#181818;stroke-width:0.5;"/><path d="M387.5,559 L387.5,569 L397.5,569 L387.5,559 " fill="#FEFFDD" style="stroke:#181818;stroke-width:0.5;"/><text fill="#000000" font-family="sans-serif" font-size="13" lengthAdjust="spacing" textLength="94" x="187.5" y="578.0283">for choose move</text><text fill="#000000" font-family="sans-serif" font-size="13" font-weight="bold" lengthAdjust="spacing" textLength="52" x="285.5" y="578.0283">anyPile.</text><text fill="#000000" font-family="sans-serif" font-size="13" lengthAdjust="spacing" textLength="45" x="337.5" y="578.0283">topCard</text><text fill="#000000" font-family="sans-serif" font-size="13" lengthAdjust="spacing" textLength="120" x="229.5" y="606.3193">[originPile.size &gt;= 1]</text></g><!--link playerChoice to FROM_TABLEAU_MANY_CARDS_MOVEMENT--><g id="link_playerChoice_FROM_TABLEAU_MANY_CARDS_MOVEMENT"><path d="M282.26,506.62 C324.96,514.63 370.26,528.89 406.5,554 C430.82,570.85 419.04,591.98 442.5,610 C458.79,622.51 472.3412,630.1171 491.9012,637.7571 " fill="none" id="playerChoice-to-FROM_TABLEAU_MANY_CARDS_MOVEMENT" style="stroke:#181818;stroke-width:1.0;"/><polygon fill="#181818" points="497.49,639.94,490.5621,632.9397,492.8327,638.1209,487.6515,640.3914,497.49,639.94" style="stroke:#181818;stroke-width:1.0;"/><path d="M447.5,559 L447.5,586 L792.5,586 L792.5,569 L782.5,559 L447.5,559 " fill="#FEFFDD" style="stroke:#181818;stroke-width:0.5;"/><path d="M782.5,559 L782.5,569 L792.5,569 L782.5,559 " fill="#FEFFDD" style="stroke:#181818;stroke-width:0.5;"/><text fill="#000000" font-family="sans-serif" font-size="13" lengthAdjust="spacing" textLength="94" x="453.5" y="578.0283">for choose move</text><text fill="#000000" font-family="sans-serif" font-size="13" font-weight="bold" lengthAdjust="spacing" textLength="114" x="551.5" y="578.0283">anyTableau.many</text><text fill="#000000" font-family="sans-serif" font-size="13" lengthAdjust="spacing" textLength="112" x="665.5" y="578.0283">TopDisplayedCards</text><text fill="#000000" font-family="sans-serif" font-size="13" lengthAdjust="spacing" textLength="228" x="506" y="606.3193">[originTableau.displayedCards.size &gt; 1]</text></g><!--link playerChoice to WASTE_TO_STOCK_MOVEMENT--><g id="link_playerChoice_WASTE_TO_STOCK_MOVEMENT"><path d="M282.1,496.5 C359.94,496.5 450.34,496.5 525,496.5 " fill="none" id="playerChoice-to-WASTE_TO_STOCK_MOVEMENT" style="stroke:#181818;stroke-width:1.0;"/><polygon fill="#181818" points="531,496.5,522,492.5,526,496.5,522,500.5,531,496.5" style="stroke:#181818;stroke-width:1.0;"/><path d="M326,442.5 L326,469.5 L487,469.5 L487,452.5 L477,442.5 L326,442.5 " fill="#FEFFDD" style="stroke:#181818;stroke-width:0.5;"/><path d="M477,442.5 L477,452.5 L487,452.5 L477,442.5 " fill="#FEFFDD" style="stroke:#181818;stroke-width:0.5;"/><text fill="#000000" font-family="sans-serif" font-size="13" lengthAdjust="spacing" textLength="140" x="332" y="461.5283">for choose restore stock</text><text fill="#000000" font-family="sans-serif" font-size="13" lengthAdjust="spacing" textLength="212" x="300.5" y="489.8193">[stock.isEmpty AND waste.size &gt; 0]</text></g><!--reverse link IN_GAME to WASTE_TO_STOCK_MOVEMENT--><g id="link_IN_GAME_WASTE_TO_STOCK_MOVEMENT"><path d="M763.2977,289.5823 C738.9677,334.0023 690.39,422.68 665.12,468.8 " fill="none" id="IN_GAME-backto-WASTE_TO_STOCK_MOVEMENT" style="stroke:#181818;stroke-width:1.0;"/><polygon fill="#181818" points="766.18,284.32,758.3483,290.292,763.7781,288.7053,765.3647,294.1351,766.18,284.32" style="stroke:#181818;stroke-width:1.0;"/></g><!--link ONE_CARD_MOVEMENT to winEvaluation--><g id="link_ONE_CARD_MOVEMENT_winEvaluation"><path d="M270.42,695.23 C271.28,720.22 272.3018,750.2836 272.9218,768.1436 " fill="none" id="ONE_CARD_MOVEMENT-to-winEvaluation" style="stroke:#181818;stroke-width:1.0;"/><polygon fill="#181818" points="273.13,774.14,276.8154,765.0066,272.9565,769.143,268.8202,765.2842,273.13,774.14" style="stroke:#181818;stroke-width:1.0;"/></g><!--link winEvaluation to *end*--><g id="link_winEvaluation_*end*"><path d="M267.23,792.1 C246.77,808.73 186.5652,857.6746 163.4452,876.4746 " fill="none" id="winEvaluation-to-*end*" style="stroke:#181818;stroke-width:1.0;"/><polygon fill="#181818" points="158.79,880.26,168.2964,877.6854,162.6693,877.1055,163.2492,871.4785,158.79,880.26" style="stroke:#181818;stroke-width:1.0;"/><text fill="#000000" font-family="sans-serif" font-size="13" lengthAdjust="spacing" textLength="141" x="224.5" y="843.0283">[all cards in foundations]</text></g><!--reverse link IN_GAME to winEvaluation--><g id="link_IN_GAME_winEvaluation"><path d="M825.3482,273.5992 C858.5082,285.8492 894.5,306.77 894.5,345 C894.5,345 894.5,345 894.5,668.5 C894.5,733.36 364.5,777.81 283.76,784.2 " fill="none" id="IN_GAME-backto-winEvaluation" style="stroke:#181818;stroke-width:1.0;"/><polygon fill="#181818" points="819.72,271.52,826.7762,278.3909,824.4102,273.2527,829.5485,270.8866,819.72,271.52" style="stroke:#181818;stroke-width:1.0;"/></g><!--reverse link IN_GAME to FROM_TABLEAU_MANY_CARDS_MOVEMENT--><g id="link_IN_GAME_FROM_TABLEAU_MANY_CARDS_MOVEMENT"><path d="M803.4283,289.2289 C814.9183,305.3789 823.5,322.73 823.5,345 C823.5,345 823.5,345 823.5,497.5 C823.5,548.45 835.56,572.11 801.5,610 C790.27,622.49 776.36,632.25 761.25,639.87 " fill="none" id="IN_GAME-backto-FROM_TABLEAU_MANY_CARDS_MOVEMENT" style="stroke:#181818;stroke-width:1.0;"/><polygon fill="#181818" points="799.95,284.34,801.9081,293.9922,802.8485,288.4141,808.4267,289.3546,799.95,284.34" style="stroke:#181818;stroke-width:1.0;"/></g><!--SRC=[bLFHRe8m57tlLzpiQLk2sruN9M5IbsK2Y-AMnHXIeKXZRGaj6lVrAmIZE7LRUA7bt7FFFVUWDD4Khin35EISR6dHpoIBAJmsHuY9W3YJKb45cup56UH4Pt3DKbYKf4YW1xeewGrIDLVWuwZlZDp82zwnX_tGC2bA8M5aKP1LWngC0YyAdQSXTYQHv_YVTStuSj67Cmvn50RHE0pwh-Um3NZ315uJNXBDf81kDwx7ics4fhSpoxB1nOPZF1aCXjYjAB8oJJb5hUiAz-97puw73IIXXAFTqR8IkH4LuD0srFAm-cgw7NZP-5XGnHRY25ppsISDdCg2BPXuOvns5FkYOFVWOOQ4D8DgcOEPa3EnHAdSzO2LN5FepcqYjdLPzsvk6sZVR0nHaK1LUrh07tRJw0d9d5DITXAcQgQaObUDmdy8tF6ip7kbCvIvsw8yfzYeoBIHV3uPKwLblEmmXLUvteBZkx0XIkziXFlB8isYj2mer2nx5UVwMMM-JmpwkSag4ArWedPCzu6P4ixDhsTc1oOWbQL8QeYQ7PUqMlwwknRy6m00]--></g></svg>