<?xml version="1.0" encoding="us-ascii" standalone="no"?><svg xmlns="http://www.w3.org/2000/svg" xmlns:xlink="http://www.w3.org/1999/xlink" contentStyleType="text/css" height="1308px" preserveAspectRatio="none" style="width:1057px;height:1308px;background:#FFFFFF;" version="1.1" viewBox="0 0 1057 1308" width="1057px" zoomAndPan="magnify"><defs/><g><g id="elem_TOP_CARD_SELECTED"><polygon fill="#F1F1F1" points="390,143,402,155,390,167,378,155,390,143" style="stroke:#181818;stroke-width:0.5;"/></g><g id="STOCK_TOP_CARD_REMOVED"><rect fill="#F1F1F1" height="50" rx="12.5" ry="12.5" style="stroke:#181818;stroke-width:0.5;" width="50" x="292" y="130"/><line style="stroke:#181818;stroke-width:0.5;" x1="292" x2="342" y1="158.6211" y2="158.6211"/><text fill="#000000" font-family="sans-serif" font-size="14" lengthAdjust="spacing" textLength="4" x="315" y="150.1074">&#160;</text></g><g id="CARD_MOVED"><rect fill="#F1F1F1" height="50" rx="12.5" ry="12.5" style="stroke:#181818;stroke-width:0.5;" width="117" x="317.5" y="942"/><line style="stroke:#181818;stroke-width:0.5;" x1="317.5" x2="434.5" y1="970.6211" y2="970.6211"/><text fill="#000000" font-family="sans-serif" font-size="14" lengthAdjust="spacing" textLength="97" x="327.5" y="962.1074">CARD_MOVED</text></g><g id="elem_GMN5"><path d="M274,1053 L274,1097.582 A0,0 0 0 0 274,1097.582 L478,1097.582 A0,0 0 0 0 478,1097.582 L478,1063 L468,1053 L380,1053 L376,992.17 L372,1053 L274,1053 A0,0 0 0 0 274,1053 " fill="#FEFFDD" style="stroke:#181818;stroke-width:0.5;"/><path d="M468,1053 L468,1063 L478,1063 L468,1053 " fill="#FEFFDD" style="stroke:#181818;stroke-width:0.5;"/><text fill="#000000" font-family="sans-serif" font-size="13" lengthAdjust="spacing" textLength="145" x="280" y="1072.0283">targetPile.topCard = card</text><text fill="#000000" font-family="sans-serif" font-size="13" lengthAdjust="spacing" textLength="183" x="280" y="1089.3193">card.visibility.isDisplayed = true</text></g><g id="CARD_NOT_MOVED"><rect fill="#F1F1F1" height="50" rx="12.5" ry="12.5" style="stroke:#181818;stroke-width:0.5;" width="154" x="69" y="602"/><line style="stroke:#181818;stroke-width:0.5;" x1="69" x2="223" y1="630.6211" y2="630.6211"/><text fill="#000000" font-family="sans-serif" font-size="14" lengthAdjust="spacing" textLength="134" x="79" y="622.1074">CARD_NOT_MOVED</text></g><g id="elem_GMN9"><path d="M130.5,818 L130.5,862.582 A0,0 0 0 0 130.5,862.582 L333.5,862.582 A0,0 0 0 0 333.5,862.582 L333.5,828 L323.5,818 L227.15,818 L155.87,652.26 L219.15,818 L130.5,818 A0,0 0 0 0 130.5,818 " fill="#FEFFDD" style="stroke:#181818;stroke-width:0.5;"/><path d="M323.5,818 L323.5,828 L333.5,828 L323.5,818 " fill="#FEFFDD" style="stroke:#181818;stroke-width:0.5;"/><text fill="#000000" font-family="sans-serif" font-size="13" lengthAdjust="spacing" textLength="116" x="136.5" y="837.0283">originPile.top = card</text><text fill="#000000" font-family="sans-serif" font-size="13" lengthAdjust="spacing" textLength="182" x="136.5" y="854.3193">card.visibility.isChanged = false</text></g><g id="OTHER_TOP_CARD_REMOVED"><rect fill="#F1F1F1" height="50" rx="12.5" ry="12.5" style="stroke:#181818;stroke-width:0.5;" width="50" x="411" y="259"/><line style="stroke:#181818;stroke-width:0.5;" x1="411" x2="461" y1="287.6211" y2="287.6211"/><text fill="#000000" font-family="sans-serif" font-size="14" lengthAdjust="spacing" textLength="4" x="434" y="279.1074">&#160;</text></g><g id="elem_targetPileChoice"><polygon fill="#F1F1F1" points="467,388,479,400,467,412,455,400,467,388" style="stroke:#181818;stroke-width:0.5;"/></g><g id="TO_FOUNDATION"><rect fill="#F1F1F1" height="50" rx="12.5" ry="12.5" style="stroke:#181818;stroke-width:0.5;" width="50" x="341" y="602"/><line style="stroke:#181818;stroke-width:0.5;" x1="341" x2="391" y1="630.6211" y2="630.6211"/><text fill="#000000" font-family="sans-serif" font-size="14" lengthAdjust="spacing" textLength="4" x="364" y="622.1074">&#160;</text></g><g id="elem_TO_FOUNDATION_IS_VALID"><polygon fill="#F1F1F1" points="381,828.5,393,840.5,381,852.5,369,840.5,381,828.5" style="stroke:#181818;stroke-width:0.5;"/></g><g id="TO_TABLEAU"><rect fill="#F1F1F1" height="50" rx="12.5" ry="12.5" style="stroke:#181818;stroke-width:0.5;" width="50" x="687" y="602"/><line style="stroke:#181818;stroke-width:0.5;" x1="687" x2="737" y1="630.6211" y2="630.6211"/><text fill="#000000" font-family="sans-serif" font-size="14" lengthAdjust="spacing" textLength="4" x="710" y="622.1074">&#160;</text></g><g id="elem_TO_TABLEAU_IS_VALID"><polygon fill="#F1F1F1" points="704,828.5,716,840.5,704,852.5,692,840.5,704,828.5" style="stroke:#181818;stroke-width:0.5;"/></g><g id="elem_hiddenCardEvaluation"><polygon fill="#F1F1F1" points="218,1063.5,230,1075.5,218,1087.5,206,1075.5,218,1063.5" style="stroke:#181818;stroke-width:0.5;"/></g><g id="elem_displayCardTriggered"><polygon fill="#F1F1F1" points="218,1177,230,1189,218,1201,206,1189,218,1177" style="stroke:#181818;stroke-width:0.5;"/></g><ellipse cx="390" cy="28.5" fill="#222222" rx="10" ry="10" style="stroke:#222222;stroke-width:1.0;"/><g id="MOVEMENT_CANCELED"><rect fill="#F1F1F1" height="50" rx="12.5" ry="12.5" style="stroke:#181818;stroke-width:0.5;" width="180" x="227" y="473"/><line style="stroke:#181818;stroke-width:0.5;" x1="227" x2="407" y1="501.6211" y2="501.6211"/><text fill="#000000" font-family="sans-serif" font-size="14" lengthAdjust="spacing" textLength="160" x="237" y="493.1074">MOVEMENT_CANCELED</text></g><ellipse cx="153" cy="1291" fill="none" rx="11" ry="11" style="stroke:#222222;stroke-width:1.0;"/><ellipse cx="153" cy="1291" fill="#222222" rx="6" ry="6" style="stroke:#222222;stroke-width:1.0;"/><g id="elem_Precondition"><path d="M435.5,6 L435.5,50.582 L568.5,50.582 L568.5,16 L558.5,6 L435.5,6 " fill="#FEFFDD" style="stroke:#181818;stroke-width:0.5;"/><path d="M558.5,6 L558.5,16 L568.5,16 L558.5,6 " fill="#FEFFDD" style="stroke:#181818;stroke-width:1.0;"/><text fill="#000000" font-family="sans-serif" font-size="13" lengthAdjust="spacing" textLength="76" x="441.5" y="25.0283">Precondition:</text><text fill="#000000" font-family="sans-serif" font-size="13" lengthAdjust="spacing" textLength="112" x="441.5" y="42.3193">originPile.size &gt;= 1</text></g><!--link *start* to TOP_CARD_SELECTED--><g id="link_*start*_TOP_CARD_SELECTED"><path d="M390,38.86 C390,61.36 390,112.46 390,136.76 " fill="none" id="*start*-to-TOP_CARD_SELECTED" style="stroke:#181818;stroke-width:1.0;"/><polygon fill="#181818" points="390,142.76,394,133.76,390,137.76,386,133.76,390,142.76" style="stroke:#181818;stroke-width:1.0;"/><text fill="#000000" font-family="sans-serif" font-size="13" lengthAdjust="spacing" textLength="116" x="391" y="96.0283">player removes card</text><text fill="#000000" font-family="sans-serif" font-size="13" font-weight="bold" lengthAdjust="spacing" textLength="80" x="511" y="96.0283">from anypile</text><text fill="#000000" font-family="sans-serif" font-size="13" lengthAdjust="spacing" textLength="49" x="591" y="96.0283">.topCard</text></g><!--reverse link STOCK_TOP_CARD_REMOVED to TOP_CARD_SELECTED--><g id="link_STOCK_TOP_CARD_REMOVED_TOP_CARD_SELECTED"><path d="M348.09,155 C359.95,155 365.8,155 377.65,155 " fill="none" id="STOCK_TOP_CARD_REMOVED-backto-TOP_CARD_SELECTED" style="stroke:#181818;stroke-width:1.0;"/><polygon fill="#181818" points="342.09,155,351.09,159,347.09,155,351.09,151,342.09,155" style="stroke:#181818;stroke-width:1.0;"/></g><!--link STOCK_TOP_CARD_REMOVED to MOVEMENT_CANCELED--><g id="link_STOCK_TOP_CARD_REMOVED_MOVEMENT_CANCELED"><path d="M317,180.25 C317,242.94 317,403.84 317,466.64 " fill="none" id="STOCK_TOP_CARD_REMOVED-to-MOVEMENT_CANCELED" style="stroke:#181818;stroke-width:1.0;"/><polygon fill="#181818" points="317,472.64,321,463.64,317,467.64,313,463.64,317,472.64" style="stroke:#181818;stroke-width:1.0;"/></g><!--link MOVEMENT_CANCELED to CARD_NOT_MOVED--><g id="link_MOVEMENT_CANCELED_CARD_NOT_MOVED"><path d="M227,515.93 C188.73,525.13 150.3,537.76 139,553 C128.76,566.81 129.5346,580.6064 134.1846,595.9964 " fill="none" id="MOVEMENT_CANCELED-to-CARD_NOT_MOVED" style="stroke:#181818;stroke-width:1.0;"/><polygon fill="#181818" points="135.92,601.74,137.146,591.9677,134.4738,596.9537,129.4879,594.2816,135.92,601.74" style="stroke:#181818;stroke-width:1.0;"/><text fill="#000000" font-family="sans-serif" font-size="13" lengthAdjust="spacing" textLength="195" x="140" y="568.0283">player return card to originPile.top</text></g><!--link CARD_NOT_MOVED to *end*--><g id="link_CARD_NOT_MOVED_*end*"><path d="M132.53,652.23 C112.45,690.69 77,768.63 77,839.5 C77,839.5 77,839.5 77,1190 C77,1233.83 118.8932,1267.0991 139.0232,1280.8291 " fill="none" id="CARD_NOT_MOVED-to-*end*" style="stroke:#181818;stroke-width:1.0;"/><polygon fill="#181818" points="143.98,1284.21,138.7987,1275.8342,139.8493,1281.3926,134.2909,1282.4432,143.98,1284.21" style="stroke:#181818;stroke-width:1.0;"/></g><!--link STOCK_TOP_CARD_REMOVED to CARD_MOVED--><g id="link_STOCK_TOP_CARD_REMOVED_CARD_MOVED"><path d="M291.81,160.64 C217.77,174.98 6,221.4 6,283 C6,283 6,283 6,841.5 C6,906.39 207.0992,943.0295 311.4292,957.7895 " fill="none" id="STOCK_TOP_CARD_REMOVED-to-CARD_MOVED" style="stroke:#181818;stroke-width:1.0;"/><polygon fill="#181818" points="317.37,958.63,309.0191,953.4087,312.4193,957.9296,307.8984,961.3298,317.37,958.63" style="stroke:#181818;stroke-width:1.0;"/><text fill="#000000" font-family="sans-serif" font-size="13" lengthAdjust="spacing" textLength="105" x="7" y="503.5283">player moves card</text><text fill="#000000" font-family="sans-serif" font-size="13" font-weight="bold" lengthAdjust="spacing" textLength="53" x="116" y="503.5283">to waste</text><text fill="#000000" font-family="sans-serif" font-size="13" lengthAdjust="spacing" textLength="22" x="169" y="503.5283">.top</text></g><!--link TOP_CARD_SELECTED to OTHER_TOP_CARD_REMOVED--><g id="link_TOP_CARD_SELECTED_OTHER_TOP_CARD_REMOVED"><path d="M393.02,164.33 C399.87,183.26 414.786,224.4489 425.236,253.2889 " fill="none" id="TOP_CARD_SELECTED-to-OTHER_TOP_CARD_REMOVED" style="stroke:#181818;stroke-width:1.0;"/><polygon fill="#181818" points="427.28,258.93,427.9747,249.1057,425.5767,254.2291,420.4532,251.831,427.28,258.93" style="stroke:#181818;stroke-width:1.0;"/><text fill="#000000" font-family="sans-serif" font-size="13" lengthAdjust="spacing" textLength="116" x="417" y="225.0283">[originPile ! = stock]</text></g><!--link OTHER_TOP_CARD_REMOVED to targetPileChoice--><g id="link_OTHER_TOP_CARD_REMOVED_targetPileChoice"><path d="M442.57,309.18 C449.47,334.54 458.3653,367.2503 463.0353,384.4203 " fill="none" id="OTHER_TOP_CARD_REMOVED-to-targetPileChoice" style="stroke:#181818;stroke-width:1.0;"/><polygon fill="#181818" points="464.61,390.21,466.1077,380.4757,463.2977,385.3853,458.3882,382.5753,464.61,390.21" style="stroke:#181818;stroke-width:1.0;"/><text fill="#000000" font-family="sans-serif" font-size="13" lengthAdjust="spacing" textLength="277" x="457" y="354.0283">player chooses target pile (distinct to origin pile)</text></g><!--link targetPileChoice to TO_FOUNDATION--><g id="link_targetPileChoice_TO_FOUNDATION"><path d="M464.48,409.78 C458.52,430.13 442.65,481.89 424,523 C411.37,550.85 396.9122,576.0464 384.4322,596.5264 " fill="none" id="targetPileChoice-to-TO_FOUNDATION" style="stroke:#181818;stroke-width:1.0;"/><polygon fill="#181818" points="381.31,601.65,389.4091,596.046,383.9119,597.3803,382.5776,591.8831,381.31,601.65" style="stroke:#181818;stroke-width:1.0;"/><text fill="#000000" font-family="sans-serif" font-size="13" lengthAdjust="spacing" textLength="163" x="445" y="503.5283">[targetPile = one foundation]</text></g><!--link targetPileChoice to TO_TABLEAU--><g id="link_targetPileChoice_TO_TABLEAU"><path d="M475.77,403.31 C500.52,410.21 572.07,432.68 617,473 C658.19,509.96 685.4378,563.4519 699.8078,596.3419 " fill="none" id="targetPileChoice-to-TO_TABLEAU" style="stroke:#181818;stroke-width:1.0;"/><polygon fill="#181818" points="702.21,601.84,702.2721,591.9913,700.2082,597.2582,694.9413,595.1943,702.21,601.84" style="stroke:#181818;stroke-width:1.0;"/><text fill="#000000" font-family="sans-serif" font-size="13" lengthAdjust="spacing" textLength="146" x="660" y="503.5283">[targetPile = one tableau]</text></g><!--link targetPileChoice to MOVEMENT_CANCELED--><g id="link_targetPileChoice_MOVEMENT_CANCELED"><path d="M460.17,405.37 C441.82,417.11 395.544,446.7362 359.614,469.7262 " fill="none" id="targetPileChoice-to-MOVEMENT_CANCELED" style="stroke:#181818;stroke-width:1.0;"/><polygon fill="#181818" points="354.56,472.96,364.2968,471.4786,358.7716,470.2652,359.9851,464.74,354.56,472.96" style="stroke:#181818;stroke-width:1.0;"/></g><!--link TO_FOUNDATION to TO_FOUNDATION_IS_VALID--><g id="link_TO_FOUNDATION_TO_FOUNDATION_IS_VALID"><path d="M349.71,652.22 C344.59,661.18 339.6,671.68 337,682 C325.51,727.69 320.69,743.8 337,788 C344.57,808.52 359.6941,822.6502 369.9541,830.9002 " fill="none" id="TO_FOUNDATION-to-TO_FOUNDATION_IS_VALID" style="stroke:#181818;stroke-width:1.0;"/><polygon fill="#181818" points="374.63,834.66,370.1228,825.903,370.7334,831.5268,365.1097,832.1375,374.63,834.66" style="stroke:#181818;stroke-width:1.0;"/><text fill="#000000" font-family="sans-serif" font-size="13" lengthAdjust="spacing" textLength="58" x="338" y="740.6104">[see note]</text><path d="M402,687 L402,783 L693,783 L693,697 L683,687 L402,687 " fill="#FEFFDD" style="stroke:#181818;stroke-width:0.5;"/><path d="M683,687 L683,697 L693,697 L683,687 " fill="#FEFFDD" style="stroke:#181818;stroke-width:0.5;"/><text fill="#000000" font-family="sans-serif" font-size="13" lengthAdjust="spacing" textLength="267" x="408" y="706.0283">(targetFoundation.isEmpty &amp; card.rank= ACE)</text><text fill="#000000" font-family="sans-serif" font-size="13" lengthAdjust="spacing" textLength="19" x="408" y="723.3193">OR</text><text fill="#000000" font-family="sans-serif" font-size="13" lengthAdjust="spacing" textLength="156" x="408" y="740.6104">(!targetFoundation.isEmpty</text><text fill="#000000" font-family="sans-serif" font-size="13" lengthAdjust="spacing" textLength="237" x="424" y="757.9014">&amp; targetFoundation.top.suite = card.suite</text><text fill="#000000" font-family="sans-serif" font-size="13" lengthAdjust="spacing" textLength="254" x="424" y="775.1924">&amp; targetFoundation.top.rank = card.rank - 1)</text></g><!--reverse link MOVEMENT_CANCELED to TO_FOUNDATION--><g id="link_MOVEMENT_CANCELED_TO_FOUNDATION"><path d="M332.8711,528.3973 C337.6011,537.6073 340.01,542.97 344,553 C350.35,568.99 355.93,587.57 359.88,601.98 " fill="none" id="MOVEMENT_CANCELED-backto-TO_FOUNDATION" style="stroke:#181818;stroke-width:1.0;"/><polygon fill="#181818" points="330.13,523.06,330.6834,532.8933,332.4142,527.5077,337.7998,529.2385,330.13,523.06" style="stroke:#181818;stroke-width:1.0;"/></g><!--link TO_FOUNDATION_IS_VALID to CARD_MOVED--><g id="link_TO_FOUNDATION_IS_VALID_CARD_MOVED"><path d="M380.57,852.11 C379.78,871.87 378.3008,908.7448 377.2108,935.8848 " fill="none" id="TO_FOUNDATION_IS_VALID-to-CARD_MOVED" style="stroke:#181818;stroke-width:1.0;"/><polygon fill="#181818" points="376.97,941.88,381.3279,933.0478,377.1706,936.884,373.3344,932.7267,376.97,941.88" style="stroke:#181818;stroke-width:1.0;"/><text fill="#000000" font-family="sans-serif" font-size="13" lengthAdjust="spacing" textLength="105" x="380" y="908.0283">player moves card</text><text fill="#000000" font-family="sans-serif" font-size="13" font-weight="bold" lengthAdjust="spacing" textLength="84" x="489" y="908.0283">to foundation</text><text fill="#000000" font-family="sans-serif" font-size="13" lengthAdjust="spacing" textLength="22" x="573" y="908.0283">.top</text></g><!--link TO_TABLEAU to TO_TABLEAU_IS_VALID--><g id="link_TO_TABLEAU_TO_TABLEAU_IS_VALID"><path d="M711.08,652.26 C709.34,698.27 705.8576,790.4843 704.6276,822.8843 " fill="none" id="TO_TABLEAU-to-TO_TABLEAU_IS_VALID" style="stroke:#181818;stroke-width:1.0;"/><polygon fill="#181818" points="704.4,828.88,708.7385,820.0382,704.5897,823.8836,700.7443,819.7347,704.4,828.88" style="stroke:#181818;stroke-width:1.0;"/><text fill="#000000" font-family="sans-serif" font-size="13" lengthAdjust="spacing" textLength="58" x="710" y="740.6104">[see note]</text><path d="M774,687 L774,783 L1050,783 L1050,697 L1040,687 L774,687 " fill="#FEFFDD" style="stroke:#181818;stroke-width:0.5;"/><path d="M1040,687 L1040,697 L1050,697 L1040,687 " fill="#FEFFDD" style="stroke:#181818;stroke-width:0.5;"/><text fill="#000000" font-family="sans-serif" font-size="13" lengthAdjust="spacing" textLength="252" x="780" y="706.0283">(targetTableau.isEmpty &amp; card.rank= KING)</text><text fill="#000000" font-family="sans-serif" font-size="13" lengthAdjust="spacing" textLength="19" x="780" y="723.3193">OR</text><text fill="#000000" font-family="sans-serif" font-size="13" lengthAdjust="spacing" textLength="137" x="780" y="740.6104">(!targetTableau.isEmpty</text><text fill="#000000" font-family="sans-serif" font-size="13" lengthAdjust="spacing" textLength="221" x="796" y="757.9014">&amp; targetTableau.top.color != card.color</text><text fill="#000000" font-family="sans-serif" font-size="13" lengthAdjust="spacing" textLength="239" x="796" y="775.1924">&amp; targetTableau.top.rank = card.rank + 1)</text></g><!--reverse link MOVEMENT_CANCELED to TO_TABLEAU--><g id="link_MOVEMENT_CANCELED_TO_TABLEAU"><path d="M397.4721,524.8764 C487.6121,553.8564 628.54,599.17 686.89,617.93 " fill="none" id="MOVEMENT_CANCELED-backto-TO_TABLEAU" style="stroke:#181818;stroke-width:1.0;"/><polygon fill="#181818" points="391.76,523.04,399.1038,529.6027,396.52,524.5704,401.5524,521.9866,391.76,523.04" style="stroke:#181818;stroke-width:1.0;"/></g><!--link TO_TABLEAU_IS_VALID to CARD_MOVED--><g id="link_TO_TABLEAU_IS_VALID_CARD_MOVED"><path d="M698.19,846.84 C683.55,860 643.51,894.2 604,912 C549.3,936.65 487.8643,949.87 440.5943,957.45 " fill="none" id="TO_TABLEAU_IS_VALID-to-CARD_MOVED" style="stroke:#181818;stroke-width:1.0;"/><polygon fill="#181818" points="434.67,958.4,444.1898,960.9245,439.6069,957.6083,442.9231,953.0255,434.67,958.4" style="stroke:#181818;stroke-width:1.0;"/><text fill="#000000" font-family="sans-serif" font-size="13" lengthAdjust="spacing" textLength="105" x="637" y="908.0283">player moves card</text><text fill="#000000" font-family="sans-serif" font-size="13" font-weight="bold" lengthAdjust="spacing" textLength="64" x="746" y="908.0283">to tableau</text><text fill="#000000" font-family="sans-serif" font-size="13" lengthAdjust="spacing" textLength="22" x="810" y="908.0283">.top</text></g><!--link CARD_MOVED to hiddenCardEvaluation--><g id="link_CARD_MOVED_hiddenCardEvaluation"><path d="M340.15,992.17 C301.91,1017.94 249.1846,1053.4754 229.6846,1066.6254 " fill="none" id="CARD_MOVED-to-hiddenCardEvaluation" style="stroke:#181818;stroke-width:1.0;"/><polygon fill="#181818" points="224.71,1069.98,234.4083,1068.2644,228.8555,1067.1845,229.9354,1061.6317,224.71,1069.98" style="stroke:#181818;stroke-width:1.0;"/></g><!--link hiddenCardEvaluation to *end*--><g id="link_hiddenCardEvaluation_*end*"><path d="M215.37,1085.13 C205.02,1119.15 168.8176,1238.0501 157.7776,1274.3101 " fill="none" id="hiddenCardEvaluation-to-*end*" style="stroke:#181818;stroke-width:1.0;"/><polygon fill="#181818" points="156.03,1280.05,162.478,1272.6053,157.4863,1275.2668,154.8248,1270.2752,156.03,1280.05" style="stroke:#181818;stroke-width:1.0;"/></g><!--link hiddenCardEvaluation to displayCardTriggered--><g id="link_hiddenCardEvaluation_displayCardTriggered"><path d="M218,1087.6 C218,1108.97 218,1149.61 218,1170.95 " fill="none" id="hiddenCardEvaluation-to-displayCardTriggered" style="stroke:#181818;stroke-width:1.0;"/><polygon fill="#181818" points="218,1176.95,222,1167.95,218,1171.95,214,1167.95,218,1176.95" style="stroke:#181818;stroke-width:1.0;"/><text fill="#000000" font-family="sans-serif" font-size="13" lengthAdjust="spacing" textLength="357" x="219" y="1143.0283">[originPile = tableau &amp; !originTableau.top.visibility.isDisplayed]</text></g><!--link displayCardTriggered to *end*--><g id="link_displayCardTriggered_*end*"><path d="M213.53,1196.87 C202,1214.61 174.5308,1256.8799 161.8508,1276.3799 " fill="none" id="displayCardTriggered-to-*end*" style="stroke:#181818;stroke-width:1.0;"/><polygon fill="#181818" points="158.58,1281.41,166.8396,1276.0454,161.3057,1277.2183,160.1329,1271.6843,158.58,1281.41" style="stroke:#181818;stroke-width:1.0;"/><text fill="#000000" font-family="sans-serif" font-size="13" lengthAdjust="spacing" textLength="300" x="193" y="1246.0283">originTableau.top changes visibility to displayed true</text></g><!--SRC=[bLPTRzem57tthxZieMetmTJN2f1OacweBK4qxKk5a4aCM0qsYfrExDVtsWdv80dgG8BOFlVht9ERA4qrWy2Vhvp9mbqzUu-U4tWk38VXJlAGZST4MSWt_585pu7lFAmA_C9xybyzDyVOhMn3I5olfTPoJpHDjapFUSm6MXuScaGmWX3_YFaPV735rppc-ZZWokNg4DCZCn2Tf8mm4O5nLWqnyuEMC3BXMovEORf3E3igjZR0XiQg4I4lr0_-U8kkGikA7CjI9rs1lxhtNsRk99Zwi_oejhUQFgzU9uzJzvABOFBhqPkybFRvnWNZ7OyY9WpNtWUDKwgv54rKbB5jO06ojsK9yb91aRVlI-Ztnoq2kGFRfmGIjfSVJ5csORWURnAv1ogE1sHd-7CzFlMSD7tqOxRHwBr3LEtRDXzpzUJD0ZoPEUZE9OqTYwlBfPgqJXEHvQmbrAL3pgoC8oJYKZwbyiiOTLemob-gT449QUC3FRNh3hs-bKb23yMhj0pVbuHq61XV3PaMkM67fSBiCWIONi4rga5p4UgI4NjmGnf-CabKP6poAr6OdHGCDZ8LaLNUijD5hkHMUqtNCQDfXt5J0gIUKYF9ydR1Q8enUzSlinc2vUuqHeMOYtTodKMyBmh0iU7j3_e8LxQXWuIAzn5C7E-6-0jotUl24y3F5JIEKG03bNBDyZ6LBIwXJSGJs5xtuVQcd5rdfQU7LeOwwFYoWikELcLSDB7Uq_-cEyZwtSxrmtJskqRs6Rh6tUdC41VAM2RGowcpgqviW-GVvoGNfNOpt2Z_o_JcWY-v9HKpuwLjgfFMKN-QMPs7hQE_FcL6fuIGgrwsNoMh_Rcz9AsUytmmGiCH3YFpG5PGEZGJA2hU1Enx07wiSl29E4zOA4N4RVNLnLtr7K3nVmp68xWj-lS9]--></g></svg>