<?xml version="1.0" encoding="us-ascii" standalone="no"?><svg xmlns="http://www.w3.org/2000/svg" xmlns:xlink="http://www.w3.org/1999/xlink" contentStyleType="text/css" height="1190px" preserveAspectRatio="none" style="width:1192px;height:1190px;background:#FFFFFF;" version="1.1" viewBox="0 0 1192 1190" width="1192px" zoomAndPan="magnify"><defs/><g><g id="elem_precondition"><path d="M613,6 L613,50.582 L854,50.582 L854,16 L844,6 L613,6 " fill="#FEFFDD" style="stroke:#181818;stroke-width:0.5;"/><path d="M844,6 L844,16 L854,16 L844,6 " fill="#FEFFDD" style="stroke:#181818;stroke-width:1.0;"/><text fill="#000000" font-family="sans-serif" font-size="13" lengthAdjust="spacing" textLength="76" x="619" y="25.0283">Precondition:</text><text fill="#000000" font-family="sans-serif" font-size="13" lengthAdjust="spacing" textLength="220" x="619" y="42.3193">originTableau.displayedCards.size &gt; 1</text></g><g id="CARDS_REMOVED"><rect fill="#F1F1F1" height="50" rx="12.5" ry="12.5" style="stroke:#181818;stroke-width:0.5;" width="50" x="542.5" y="198.5"/><line style="stroke:#181818;stroke-width:0.5;" x1="542.5" x2="592.5" y1="227.1211" y2="227.1211"/><text fill="#000000" font-family="sans-serif" font-size="14" lengthAdjust="spacing" textLength="4" x="565.5" y="218.6074">&#160;</text></g><g id="elem_GMN4"><path d="M628,184 L628,219.5 L592.64,223.5 L628,227.5 L628,263.1641 A0,0 0 0 0 628,263.1641 L1079,263.1641 A0,0 0 0 0 1079,263.1641 L1079,194 L1069,184 L628,184 A0,0 0 0 0 628,184 " fill="#FEFFDD" style="stroke:#181818;stroke-width:0.5;"/><path d="M1069,184 L1069,194 L1079,194 L1069,184 " fill="#FEFFDD" style="stroke:#181818;stroke-width:0.5;"/><text fill="#000000" font-family="sans-serif" font-size="13" lengthAdjust="spacing" textLength="212" x="634" y="203.0283">order of removed cards don't change:</text><text fill="#000000" font-family="sans-serif" font-size="13" lengthAdjust="spacing" textLength="414" x="650" y="220.3193">cardsRemoved.top = originTableau.top = originTableau.topDisplayeds[1]</text><text fill="#000000" font-family="sans-serif" font-size="13" lengthAdjust="spacing" textLength="12" x="650" y="237.6104">...</text><text fill="#000000" font-family="sans-serif" font-size="13" lengthAdjust="spacing" textLength="324" x="650" y="254.9014">cardsRemoved.bottom = originTableau.topDisplayeds[N]</text></g><g id="elem_targetPileChoice"><polygon fill="#F1F1F1" points="567.5,342,579.5,354,567.5,366,555.5,354,567.5,342" style="stroke:#181818;stroke-width:0.5;"/></g><g id="targetTableauSelected"><rect fill="#F1F1F1" height="50" rx="12.5" ry="12.5" style="stroke:#181818;stroke-width:0.5;" width="50" x="617.5" y="445"/><line style="stroke:#181818;stroke-width:0.5;" x1="617.5" x2="667.5" y1="473.6211" y2="473.6211"/><text fill="#000000" font-family="sans-serif" font-size="14" lengthAdjust="spacing" textLength="4" x="640.5" y="465.1074">&#160;</text></g><g id="elem_toTableauIsValid"><polygon fill="#F1F1F1" points="701.5,674,713.5,686,701.5,698,689.5,686,701.5,674" style="stroke:#181818;stroke-width:0.5;"/></g><g id="CARDS_MOVED"><rect fill="#F1F1F1" height="50" rx="12.5" ry="12.5" style="stroke:#181818;stroke-width:0.5;" width="126" x="638.5" y="804.5"/><line style="stroke:#181818;stroke-width:0.5;" x1="638.5" x2="764.5" y1="833.1211" y2="833.1211"/><text fill="#000000" font-family="sans-serif" font-size="14" lengthAdjust="spacing" textLength="106" x="648.5" y="824.6074">CARDS_MOVED</text></g><g id="elem_GMN11"><path d="M799.5,790 L799.5,825.5 L764.59,829.5 L799.5,833.5 L799.5,869.1641 A0,0 0 0 0 799.5,869.1641 L1185.5,869.1641 A0,0 0 0 0 1185.5,869.1641 L1185.5,800 L1175.5,790 L799.5,790 A0,0 0 0 0 799.5,790 " fill="#FEFFDD" style="stroke:#181818;stroke-width:0.5;"/><path d="M1175.5,790 L1175.5,800 L1185.5,800 L1175.5,790 " fill="#FEFFDD" style="stroke:#181818;stroke-width:0.5;"/><text fill="#000000" font-family="sans-serif" font-size="13" lengthAdjust="spacing" textLength="221" x="805.5" y="809.0283">moved cards are top in target Tableau:</text><text fill="#000000" font-family="sans-serif" font-size="13" lengthAdjust="spacing" textLength="365" x="805.5" y="826.3193">cards.top = targetTableau.top = targetTableau.topDisplayeds[1]</text><text fill="#000000" font-family="sans-serif" font-size="13" lengthAdjust="spacing" textLength="12" x="821.5" y="843.6104">...</text><text fill="#000000" font-family="sans-serif" font-size="13" lengthAdjust="spacing" textLength="273" x="805.5" y="860.9014">cards.bottom = targetTableau.topDisplayeds[N]</text></g><g id="elem_hiddenCardEvaluation"><polygon fill="#F1F1F1" points="701.5,930,713.5,942,701.5,954,689.5,942,701.5,930" style="stroke:#181818;stroke-width:0.5;"/></g><g id="displayCardTriggered"><rect fill="#F1F1F1" height="50" rx="12.5" ry="12.5" style="stroke:#181818;stroke-width:0.5;" width="50" x="575.5" y="1033"/><line style="stroke:#181818;stroke-width:0.5;" x1="575.5" x2="625.5" y1="1061.6211" y2="1061.6211"/><text fill="#000000" font-family="sans-serif" font-size="14" lengthAdjust="spacing" textLength="4" x="598.5" y="1053.1074">&#160;</text></g><g id="CARDS_NOT_MOVED"><rect fill="#F1F1F1" height="50" rx="12.5" ry="12.5" style="stroke:#181818;stroke-width:0.5;" width="163" x="353" y="661"/><line style="stroke:#181818;stroke-width:0.5;" x1="353" x2="516" y1="689.6211" y2="689.6211"/><text fill="#000000" font-family="sans-serif" font-size="14" lengthAdjust="spacing" textLength="143" x="363" y="681.1074">CARDS_NOT_MOVED</text></g><g id="elem_GMN17"><path d="M6,790 L6,869.1641 A0,0 0 0 0 6,869.1641 L457,869.1641 A0,0 0 0 0 457,869.1641 L457,800 L447,790 L290.82,790 L400.06,711 L282.82,790 L6,790 A0,0 0 0 0 6,790 " fill="#FEFFDD" style="stroke:#181818;stroke-width:0.5;"/><path d="M447,790 L447,800 L457,800 L447,790 " fill="#FEFFDD" style="stroke:#181818;stroke-width:0.5;"/><text fill="#000000" font-family="sans-serif" font-size="13" lengthAdjust="spacing" textLength="148" x="12" y="809.0283">order like before removed:</text><text fill="#000000" font-family="sans-serif" font-size="13" lengthAdjust="spacing" textLength="414" x="28" y="826.3193">cardsRemoved.top = originTableau.top = originTableau.topDisplayeds[1]</text><text fill="#000000" font-family="sans-serif" font-size="13" lengthAdjust="spacing" textLength="12" x="28" y="843.6104">...</text><text fill="#000000" font-family="sans-serif" font-size="13" lengthAdjust="spacing" textLength="324" x="28" y="860.9014">cardsRemoved.bottom = originTableau.topDisplayeds[N]</text></g><ellipse cx="567.5" cy="28.5" fill="#222222" rx="10" ry="10" style="stroke:#222222;stroke-width:1.0;"/><g id="MOVEMENT_CANCELED"><rect fill="#F1F1F1" height="50" rx="12.5" ry="12.5" style="stroke:#181818;stroke-width:0.5;" width="180" x="402.5" y="445"/><line style="stroke:#181818;stroke-width:0.5;" x1="402.5" x2="582.5" y1="473.6211" y2="473.6211"/><text fill="#000000" font-family="sans-serif" font-size="14" lengthAdjust="spacing" textLength="160" x="412.5" y="465.1074">MOVEMENT_CANCELED</text></g><ellipse cx="568.5" cy="1173" fill="none" rx="11" ry="11" style="stroke:#222222;stroke-width:1.0;"/><ellipse cx="568.5" cy="1173" fill="#222222" rx="6" ry="6" style="stroke:#222222;stroke-width:1.0;"/><!--link *start* to CARDS_REMOVED--><g id="link_*start*_CARDS_REMOVED"><path d="M567.5,38.55 C567.5,67.02 567.5,149.4 567.5,192.45 " fill="none" id="*start*-to-CARDS_REMOVED" style="stroke:#181818;stroke-width:1.0;"/><polygon fill="#181818" points="567.5,198.45,571.5,189.45,567.5,193.45,563.5,189.45,567.5,198.45" style="stroke:#181818;stroke-width:1.0;"/><text fill="#000000" font-family="sans-serif" font-size="13" lengthAdjust="spacing" textLength="87" x="568.5" y="96.0283">player removes</text><text fill="#000000" font-family="sans-serif" font-size="13" font-weight="bold" lengthAdjust="spacing" textLength="122" x="659.5" y="96.0283">from originTableau</text><text fill="#000000" font-family="sans-serif" font-size="13" lengthAdjust="spacing" textLength="126" x="785.5" y="96.0283">top N displayed cards</text><path d="M658,105.291 L658,149.291 L822,149.291 L822,115.291 L812,105.291 L658,105.291 " fill="#FEFFDD" style="stroke:#181818;stroke-width:0.5;"/><path d="M812,105.291 L812,115.291 L822,115.291 L812,105.291 " fill="#FEFFDD" style="stroke:#181818;stroke-width:0.5;"/><text fill="#000000" font-family="sans-serif" font-size="13" lengthAdjust="spacing" textLength="143" x="664" y="124.3193">N &gt; 1, otherwise it would</text><text fill="#000000" font-family="sans-serif" font-size="13" lengthAdjust="spacing" textLength="135" x="664" y="141.6104">be one card movement.</text></g><!--link CARDS_REMOVED to targetPileChoice--><g id="link_CARDS_REMOVED_targetPileChoice"><path d="M567.5,248.67 C567.5,276.59 567.5,315.31 567.5,335.93 " fill="none" id="CARDS_REMOVED-to-targetPileChoice" style="stroke:#181818;stroke-width:1.0;"/><polygon fill="#181818" points="567.5,341.93,571.5,332.93,567.5,336.93,563.5,332.93,567.5,341.93" style="stroke:#181818;stroke-width:1.0;"/><text fill="#000000" font-family="sans-serif" font-size="13" lengthAdjust="spacing" textLength="149" x="568.5" y="308.0283">player chooses target pile</text></g><!--link targetPileChoice to targetTableauSelected--><g id="link_targetPileChoice_targetTableauSelected"><path d="M571.97,361.79 C582.5,377.8 606.0125,413.5373 623.3725,439.9273 " fill="none" id="targetPileChoice-to-targetTableauSelected" style="stroke:#181818;stroke-width:1.0;"/><polygon fill="#181818" points="626.67,444.94,625.0656,435.2227,623.9221,440.7628,618.382,439.6193,626.67,444.94" style="stroke:#181818;stroke-width:1.0;"/><text fill="#000000" font-family="sans-serif" font-size="13" lengthAdjust="spacing" textLength="146" x="606.5" y="411.0283">[targetPile = one tableau]</text></g><!--link targetPileChoice to MOVEMENT_CANCELED--><g id="link_targetPileChoice_MOVEMENT_CANCELED"><path d="M563.03,361.79 C552.5,377.8 528.9875,413.5373 511.6275,439.9273 " fill="none" id="targetPileChoice-to-MOVEMENT_CANCELED" style="stroke:#181818;stroke-width:1.0;"/><polygon fill="#181818" points="508.33,444.94,516.618,439.6193,511.0779,440.7628,509.9344,435.2227,508.33,444.94" style="stroke:#181818;stroke-width:1.0;"/></g><!--link targetTableauSelected to toTableauIsValid--><g id="link_targetTableauSelected_toTableauIsValid"><path d="M652.16,495.26 C655.66,504.49 659.49,515.15 662.5,525 C679.73,581.32 693.2747,644.7223 698.3847,669.6423 " fill="none" id="targetTableauSelected-to-toTableauIsValid" style="stroke:#181818;stroke-width:1.0;"/><polygon fill="#181818" points="699.59,675.52,701.7006,665.8999,698.5856,670.6219,693.8636,667.507,699.59,675.52" style="stroke:#181818;stroke-width:1.0;"/><text fill="#000000" font-family="sans-serif" font-size="13" lengthAdjust="spacing" textLength="58" x="689.5" y="583.6104">[see note]</text><path d="M753.5,530 L753.5,626 L1080.5,626 L1080.5,540 L1070.5,530 L753.5,530 " fill="#FEFFDD" style="stroke:#181818;stroke-width:0.5;"/><path d="M1070.5,530 L1070.5,540 L1080.5,540 L1070.5,530 " fill="#FEFFDD" style="stroke:#181818;stroke-width:0.5;"/><text fill="#000000" font-family="sans-serif" font-size="13" lengthAdjust="spacing" textLength="303" x="759.5" y="549.0283">(targetTableau.isEmpty &amp; cards.bottom.rank= KING)</text><text fill="#000000" font-family="sans-serif" font-size="13" lengthAdjust="spacing" textLength="19" x="759.5" y="566.3193">OR</text><text fill="#000000" font-family="sans-serif" font-size="13" lengthAdjust="spacing" textLength="137" x="759.5" y="583.6104">(!targetTableau.isEmpty</text><text fill="#000000" font-family="sans-serif" font-size="13" lengthAdjust="spacing" textLength="272" x="775.5" y="600.9014">&amp; targetTableau.top.color != cards.bottom.color</text><text fill="#000000" font-family="sans-serif" font-size="13" lengthAdjust="spacing" textLength="290" x="775.5" y="618.1924">&amp; targetTableau.top.rank = cards.bottom.rank + 1)</text></g><!--reverse link MOVEMENT_CANCELED to targetTableauSelected--><g id="link_MOVEMENT_CANCELED_targetTableauSelected"><path d="M588.73,470 C600.25,470 605.77,470 617.29,470 " fill="none" id="MOVEMENT_CANCELED-backto-targetTableauSelected" style="stroke:#181818;stroke-width:1.0;"/><polygon fill="#181818" points="582.73,470,591.73,474,587.73,470,591.73,466,582.73,470" style="stroke:#181818;stroke-width:1.0;"/></g><!--link toTableauIsValid to CARDS_MOVED--><g id="link_toTableauIsValid_CARDS_MOVED"><path d="M701.5,698.1 C701.5,720.91 701.5,767.47 701.5,798.45 " fill="none" id="toTableauIsValid-to-CARDS_MOVED" style="stroke:#181818;stroke-width:1.0;"/><polygon fill="#181818" points="701.5,804.45,705.5,795.45,701.5,799.45,697.5,795.45,701.5,804.45" style="stroke:#181818;stroke-width:1.0;"/><text fill="#000000" font-family="sans-serif" font-size="13" lengthAdjust="spacing" textLength="112" x="702.5" y="756.0283">player moves cards</text><text fill="#000000" font-family="sans-serif" font-size="13" font-weight="bold" lengthAdjust="spacing" textLength="105" x="818.5" y="756.0283">to targetTableau</text><text fill="#000000" font-family="sans-serif" font-size="13" lengthAdjust="spacing" textLength="22" x="923.5" y="756.0283">.top</text></g><!--link CARDS_MOVED to hiddenCardEvaluation--><g id="link_CARDS_MOVED_hiddenCardEvaluation"><path d="M701.5,854.75 C701.5,878.13 701.5,906.46 701.5,923.92 " fill="none" id="CARDS_MOVED-to-hiddenCardEvaluation" style="stroke:#181818;stroke-width:1.0;"/><polygon fill="#181818" points="701.5,929.92,705.5,920.92,701.5,924.92,697.5,920.92,701.5,929.92" style="stroke:#181818;stroke-width:1.0;"/></g><!--link hiddenCardEvaluation to *end*--><g id="link_hiddenCardEvaluation_*end*"><path d="M711.33,944.27 C741.04,948.32 828.9,962.01 845.5,984 C885.14,1036.5 888.56,1082.28 845.5,1132 C810.11,1172.86 632.9894,1172.9975 585.6694,1172.3075 " fill="none" id="hiddenCardEvaluation-to-*end*" style="stroke:#181818;stroke-width:1.0;"/><polygon fill="#181818" points="579.67,1172.22,588.6107,1176.3508,584.6695,1172.2929,588.7274,1168.3516,579.67,1172.22" style="stroke:#181818;stroke-width:1.0;"/></g><!--link hiddenCardEvaluation to displayCardTriggered--><g id="link_hiddenCardEvaluation_displayCardTriggered"><path d="M691.61,944.31 C672.51,947.41 630.62,957.07 610.5,984 C600.16,997.83 597.8681,1011.3806 598.0781,1026.7606 " fill="none" id="hiddenCardEvaluation-to-displayCardTriggered" style="stroke:#181818;stroke-width:1.0;"/><polygon fill="#181818" points="598.16,1032.76,602.0368,1023.7062,598.0917,1027.7605,594.0375,1023.8155,598.16,1032.76" style="stroke:#181818;stroke-width:1.0;"/><text fill="#000000" font-family="sans-serif" font-size="13" lengthAdjust="spacing" textLength="229" x="611.5" y="999.0283">[!originTableau.top.visibility.isDisplayed]</text></g><!--link displayCardTriggered to *end*--><g id="link_displayCardTriggered_*end*"><path d="M580.69,1083.05 C574.58,1091.92 568.64,1102.39 565.5,1113 C560.56,1129.72 562.2485,1144.382 564.7885,1156.292 " fill="none" id="displayCardTriggered-to-*end*" style="stroke:#181818;stroke-width:1.0;"/><polygon fill="#181818" points="566.04,1162.16,568.0748,1152.5236,564.9971,1157.27,560.2508,1154.1922,566.04,1162.16" style="stroke:#181818;stroke-width:1.0;"/><text fill="#000000" font-family="sans-serif" font-size="13" lengthAdjust="spacing" textLength="274" x="566.5" y="1128.0283">originTableau.top changes visibility to displayed</text></g><!--link MOVEMENT_CANCELED to CARDS_NOT_MOVED--><g id="link_MOVEMENT_CANCELED_CARDS_NOT_MOVED"><path d="M455.41,495.03 C445.82,503.27 436.73,513.39 431.5,525 C411.42,569.59 419.0107,622.646 426.5607,655.106 " fill="none" id="MOVEMENT_CANCELED-to-CARDS_NOT_MOVED" style="stroke:#181818;stroke-width:1.0;"/><polygon fill="#181818" points="427.92,660.95,429.7771,651.2778,426.7873,656.08,421.9851,653.0902,427.92,660.95" style="stroke:#181818;stroke-width:1.0;"/><text fill="#000000" font-family="sans-serif" font-size="13" lengthAdjust="spacing" textLength="225" x="432.5" y="583.5283">player return cards to originTableau.top</text></g><!--link CARDS_NOT_MOVED to *end*--><g id="link_CARDS_NOT_MOVED_*end*"><path d="M457.3,711.46 C479.69,738.11 510.5,783.05 510.5,828.5 C510.5,828.5 510.5,828.5 510.5,1059 C510.5,1103.1 541.8874,1142.7992 557.3774,1160.0192 " fill="none" id="CARDS_NOT_MOVED-to-*end*" style="stroke:#181818;stroke-width:1.0;"/><polygon fill="#181818" points="561.39,1164.48,558.3449,1155.1137,558.0461,1160.7627,552.3972,1160.4639,561.39,1164.48" style="stroke:#181818;stroke-width:1.0;"/></g><!--SRC=[pLLDRzf04BtlhvZqa2Pjuueh0gG8K1MrCH51kI0hMdi7M65sqUv2H7zzPstZ3spQQ-42m-oRvxVl3Kex16vXRp3HIaWdjM8ljIzzferSIxNWSOhy40Xfzoa_eHXp8snWvM-44VGOAW6Am1YpZXFc9teJxlXnFdbzdq-VPs_J2VCDG70RHwW23UWL6Dpf8mf8F1u8hJuxI3PShR7FW5vPVPut1KxlOGXDHbTgapDHk-n56L8G16t4M3kdT_y02AFMypbkrkXUP8hZZPO9mc2GP1z6ewO2UME1-uef9Wx56KGNzIVxnbCfsY2vVYtrwf9nuu7s85Kn2mhGFiiQ2e4QFAxLkaNBOKgb_dQgGwcD50ALjylqoDC3zwwwgbPXBz-ze4TTeo6n6bg4iqLTZvnLOQTKRgc2AqsI5BxwJqt4bbyYU7WODGC2VSYwJS7UmY0UhGn1Du07t-DHTkKXb77C2TKr0P8vbMhBGX_GRw3T1is7j0ZImOS-f8B5I4sO7GK_RuVA1JMMJNAURils9MEwJstnx7VOKmjhTLSG5u4Wd6NLxPLKFcDPJzIDuqazJyF5-_Wn74z_aI6waREPbq6ZSHOnUyoe5gnIixkcoQMTxlRk1BTGpq9WkDeEuUTJ-EEUpURixgRpLEQNstPiWaIdsi3Di0cQLQ-UyIDXsAO1Nw5tNrtT5IbINBbkwIu5ghnvuSpSb_dg8NSwtIJflUc9dirJMQTh3x3EvU2xAH_NV-pQ4lvARrhv2uxIobYcqfteEieqHgmJeXXCKEtjaFydMQW0oLLL_YZIBLLh8fPRgnvnTp2gK9AWMYFPvT6pBdy0]--></g></svg>