<?xml version="1.0" encoding="us-ascii" standalone="no"?><svg xmlns="http://www.w3.org/2000/svg" xmlns:xlink="http://www.w3.org/1999/xlink" contentStyleType="text/css" height="1093px" preserveAspectRatio="none" style="width:1277px;height:1093px;background:#FFFFFF;" version="1.1" viewBox="0 0 1277 1093" width="1277px" zoomAndPan="magnify"><defs/><g><g id="elem_PW"><path d="M503.5,6 L503.5,33.291 L850.5,33.291 L850.5,16 L840.5,6 L503.5,6 " fill="#FEFFDD" style="stroke:#181818;stroke-width:0.5;"/><path d="M840.5,6 L840.5,16 L850.5,16 L840.5,6 " fill="#FEFFDD" style="stroke:#181818;stroke-width:1.0;"/><text fill="#000000" font-family="sans-serif" font-size="13" lengthAdjust="spacing" textLength="326" x="509.5" y="25.0283">PW: player chooses WASTE_TO_STOCK_MOVEMENT</text></g><g id="elem_GMN3"><path d="M522.5,94 L522.5,155.873 L831.5,155.873 L831.5,104 L821.5,94 L522.5,94 " fill="#FEFFDD" style="stroke:#181818;stroke-width:0.5;"/><path d="M821.5,94 L821.5,104 L831.5,104 L821.5,94 " fill="#FEFFDD" style="stroke:#181818;stroke-width:1.0;"/><text fill="#000000" font-family="sans-serif" font-size="13" lengthAdjust="spacing" textLength="280" x="528.5" y="113.0283">P1M: player chooses ONE_CARD_MOVEMENT</text><text fill="#000000" font-family="sans-serif" font-size="13" lengthAdjust="spacing" textLength="216" x="528.5" y="130.3193">originPile is the pile where is the card</text><text fill="#000000" font-family="sans-serif" font-size="13" lengthAdjust="spacing" textLength="288" x="528.5" y="147.6104">AND reaches CARD_MOVED state (see diagram)</text></g><g id="elem_GMN6"><path d="M461.5,217 L461.5,278.873 L892.5,278.873 L892.5,227 L882.5,217 L461.5,217 " fill="#FEFFDD" style="stroke:#181818;stroke-width:0.5;"/><path d="M882.5,217 L882.5,227 L892.5,227 L882.5,217 " fill="#FEFFDD" style="stroke:#181818;stroke-width:1.0;"/><text fill="#000000" font-family="sans-serif" font-size="13" lengthAdjust="spacing" textLength="410" x="467.5" y="236.0283">P2M: player chooses FROM_TABLEAU_MANY_CARDS_MOVEMENT</text><text fill="#000000" font-family="sans-serif" font-size="13" lengthAdjust="spacing" textLength="333" x="467.5" y="253.3193">AND originPile.topSelectedDisplayedCards.includes(card)</text><text fill="#000000" font-family="sans-serif" font-size="13" lengthAdjust="spacing" textLength="297" x="467.5" y="270.6104">AND reaches CARDS_MOVED state (see diagram)</text></g><ellipse cx="414" cy="19.5" fill="#222222" rx="10" ry="10" style="stroke:#222222;stroke-width:1.0;"/><g id="IN_DECK"><rect fill="#F1F1F1" height="50" rx="12.5" ry="12.5" style="stroke:#181818;stroke-width:0.5;" width="78" x="375" y="100"/><line style="stroke:#181818;stroke-width:0.5;" x1="375" x2="453" y1="128.6211" y2="128.6211"/><text fill="#000000" font-family="sans-serif" font-size="14" lengthAdjust="spacing" textLength="58" x="385" y="120.1074">IN_DECK</text></g><g id="elem_dealChoice"><polygon fill="#F1F1F1" points="414,236,426,248,414,260,402,248,414,236" style="stroke:#181818;stroke-width:0.5;"/></g><g id="IN_ONE_TABLEAU"><rect fill="#F1F1F1" height="50" rx="12.5" ry="12.5" style="stroke:#181818;stroke-width:0.5;" width="139" x="513.5" y="701"/><line style="stroke:#181818;stroke-width:0.5;" x1="513.5" x2="652.5" y1="729.6211" y2="729.6211"/><text fill="#000000" font-family="sans-serif" font-size="14" lengthAdjust="spacing" textLength="119" x="523.5" y="721.1074">IN_ONE_TABLEAU</text></g><g id="IN_STOCK"><rect fill="#F1F1F1" height="50" rx="12.5" ry="12.5" style="stroke:#181818;stroke-width:0.5;" width="88" x="204" y="340"/><line style="stroke:#181818;stroke-width:0.5;" x1="204" x2="292" y1="368.6211" y2="368.6211"/><text fill="#000000" font-family="sans-serif" font-size="14" lengthAdjust="spacing" textLength="68" x="214" y="360.1074">IN_STOCK</text></g><g id="IN_WASTE"><rect fill="#F1F1F1" height="50" rx="12.5" ry="12.5" style="stroke:#181818;stroke-width:0.5;" width="89" x="214.5" y="469"/><line style="stroke:#181818;stroke-width:0.5;" x1="214.5" x2="303.5" y1="497.6211" y2="497.6211"/><text fill="#000000" font-family="sans-serif" font-size="14" lengthAdjust="spacing" textLength="69" x="224.5" y="489.1074">IN_WASTE</text></g><ellipse cx="303" cy="1074" fill="none" rx="11" ry="11" style="stroke:#222222;stroke-width:1.0;"/><ellipse cx="303" cy="1074" fill="#222222" rx="6" ry="6" style="stroke:#222222;stroke-width:1.0;"/><g id="elem_wasteToTargetChoice"><polygon fill="#F1F1F1" points="325,598,337,610,325,622,313,610,325,598" style="stroke:#181818;stroke-width:0.5;"/></g><g id="IN_ONE_FOUNDATION"><rect fill="#F1F1F1" height="50" rx="12.5" ry="12.5" style="stroke:#181818;stroke-width:0.5;" width="166" x="534" y="933"/><line style="stroke:#181818;stroke-width:0.5;" x1="534" x2="700" y1="961.6211" y2="961.6211"/><text fill="#000000" font-family="sans-serif" font-size="14" lengthAdjust="spacing" textLength="146" x="544" y="953.1074">IN_ONE_FOUNDATION</text></g><g id="elem_foundationToTargetChoice"><polygon fill="#F1F1F1" points="939,1062,951,1074,939,1086,927,1074,939,1062" style="stroke:#181818;stroke-width:0.5;"/></g><g id="elem_tableauToTargetOneChoice"><polygon fill="#F1F1F1" points="617,830,629,842,617,854,605,842,617,830" style="stroke:#181818;stroke-width:0.5;"/></g><!--link PW to GMN3--><g id="link_PW_GMN3"><path d="M677,33.19 C677,48.2 677,73.68 677,93.84 " fill="none" id="PW-GMN3" style="stroke:#181818;stroke-width:1.0;stroke-dasharray:7.0,7.0;"/></g><!--link GMN3 to GMN6--><g id="link_GMN3_GMN6"><path d="M677,156.22 C677,174.7 677,198.26 677,216.74 " fill="none" id="GMN3-GMN6" style="stroke:#181818;stroke-width:1.0;stroke-dasharray:7.0,7.0;"/></g><!--link *start* to IN_DECK--><g id="link_*start*_IN_DECK"><path d="M414,29.68 C414,45.32 414,71.58 414,93.99 " fill="none" id="*start*-to-IN_DECK" style="stroke:#181818;stroke-width:1.0;"/><polygon fill="#181818" points="414,99.99,418,90.99,414,94.99,410,90.99,414,99.99" style="stroke:#181818;stroke-width:1.0;"/></g><!--link IN_DECK to dealChoice--><g id="link_IN_DECK_dealChoice"><path d="M414,150.2 C414,176.26 414,210.61 414,229.94 " fill="none" id="IN_DECK-to-dealChoice" style="stroke:#181818;stroke-width:1.0;"/><polygon fill="#181818" points="414,235.94,418,226.94,414,230.94,410,226.94,414,235.94" style="stroke:#181818;stroke-width:1.0;"/></g><!--link dealChoice to IN_ONE_TABLEAU--><g id="link_dealChoice_IN_ONE_TABLEAU"><path d="M419.17,254.93 C424.88,261.29 434.53,271.5 444,279 C500.15,323.52 581,292.34 581,364 C581,364 581,364 581,611 C581,642.08 581.5992,671.9119 582.1792,694.9819 " fill="none" id="dealChoice-to-IN_ONE_TABLEAU" style="stroke:#181818;stroke-width:1.0;"/><polygon fill="#181818" points="582.33,700.98,586.1025,691.8823,582.2043,695.9816,578.1051,692.0834,582.33,700.98" style="stroke:#181818;stroke-width:1.0;"/><text fill="#000000" font-family="sans-serif" font-size="13" lengthAdjust="spacing" textLength="90" x="582" y="499.5283">[card in 28 first]</text></g><!--link dealChoice to IN_STOCK--><g id="link_dealChoice_IN_STOCK"><path d="M407.29,253.65 C386.66,267.94 328.1222,308.4934 287.8022,336.4234 " fill="none" id="dealChoice-to-IN_STOCK" style="stroke:#181818;stroke-width:1.0;"/><polygon fill="#181818" points="282.87,339.84,292.5461,338.0033,286.9802,336.9928,287.9906,331.427,282.87,339.84" style="stroke:#181818;stroke-width:1.0;"/></g><!--link IN_STOCK to IN_WASTE--><g id="link_IN_STOCK_IN_WASTE"><path d="M203.87,378.91 C170.49,391.14 133.05,411.69 150,439 C164.09,461.7 185.1757,473.2592 208.6657,481.0592 " fill="none" id="IN_STOCK-to-IN_WASTE" style="stroke:#181818;stroke-width:1.0;"/><polygon fill="#181818" points="214.36,482.95,207.0791,476.3176,209.6148,481.3743,204.558,483.91,214.36,482.95" style="stroke:#181818;stroke-width:1.0;"/><text fill="#000000" font-family="sans-serif" font-size="13" lengthAdjust="spacing" textLength="147" x="151" y="435.0283">[card = stock.top &amp; P1M]</text></g><!--reverse link IN_STOCK to IN_WASTE--><g id="link_IN_STOCK_IN_WASTE"><path d="M285.2915,394.2303 C294.1515,402.6003 298.24,408.65 303,420 C310.21,437.19 299.67,455.15 287.1,468.95 " fill="none" id="IN_STOCK-backto-IN_WASTE" style="stroke:#181818;stroke-width:1.0;"/><polygon fill="#181818" points="280.93,390.11,284.7254,399.1982,284.5646,393.5436,290.2192,393.3828,280.93,390.11" style="stroke:#181818;stroke-width:1.0;"/><text fill="#000000" font-family="sans-serif" font-size="13" lengthAdjust="spacing" textLength="131" x="307" y="435.0283">[stock.isEmpty &amp; PW]</text></g><!--link IN_STOCK to *end*--><g id="link_IN_STOCK_*end*"><path d="M203.89,369.47 C134.09,377.62 6,404.63 6,493 C6,493 6,493 6,959 C6,1021.55 232.5665,1061.705 286.1565,1070.345 " fill="none" id="IN_STOCK-to-*end*" style="stroke:#181818;stroke-width:1.0;"/><polygon fill="#181818" points="292.08,1071.3,283.8314,1065.9185,287.1437,1070.5042,282.5581,1073.8165,292.08,1071.3" style="stroke:#181818;stroke-width:1.0;"/><text fill="#000000" font-family="sans-serif" font-size="13" lengthAdjust="spacing" textLength="111" x="7" y="731.5283">[player.isResigned]</text></g><!--link IN_WASTE to *end*--><g id="link_IN_WASTE_*end*"><path d="M225.61,519.08 C201.08,539.81 172,572.15 172,609 C172,609 172,609 172,959 C172,1022.92 256.1633,1057.2069 287.0433,1067.7769 " fill="none" id="IN_WASTE-to-*end*" style="stroke:#181818;stroke-width:1.0;"/><polygon fill="#181818" points="292.72,1069.72,285.5004,1063.0209,287.9895,1068.1008,282.9096,1070.5898,292.72,1069.72" style="stroke:#181818;stroke-width:1.0;"/><text fill="#000000" font-family="sans-serif" font-size="13" lengthAdjust="spacing" textLength="111" x="173" y="796.0283">[player.isResigned]</text></g><!--link IN_WASTE to wasteToTargetChoice--><g id="link_IN_WASTE_wasteToTargetChoice"><path d="M273,519.18 C288.13,545.32 308.353,580.2479 317.793,596.5479 " fill="none" id="IN_WASTE-to-wasteToTargetChoice" style="stroke:#181818;stroke-width:1.0;"/><polygon fill="#181818" points="320.8,601.74,319.751,591.9472,318.2942,597.4132,312.8281,595.9565,320.8,601.74" style="stroke:#181818;stroke-width:1.0;"/><text fill="#000000" font-family="sans-serif" font-size="13" lengthAdjust="spacing" textLength="149" x="301" y="564.0283">[card = waste.top &amp; P1M]</text></g><!--link wasteToTargetChoice to IN_ONE_TABLEAU--><g id="link_wasteToTargetChoice_IN_ONE_TABLEAU"><path d="M330.22,617.28 C340.67,629.47 365.46,656.4 392,671 C429.59,691.68 469.9294,703.734 507.4794,711.974 " fill="none" id="wasteToTargetChoice-to-IN_ONE_TABLEAU" style="stroke:#181818;stroke-width:1.0;"/><polygon fill="#181818" points="513.34,713.26,505.4065,707.4239,508.4562,712.1883,503.6918,715.238,513.34,713.26" style="stroke:#181818;stroke-width:1.0;"/><text fill="#000000" font-family="sans-serif" font-size="13" lengthAdjust="spacing" textLength="161" x="393" y="667.0283">[targetPile was one tableau]</text></g><!--link wasteToTargetChoice to IN_ONE_FOUNDATION--><g id="link_wasteToTargetChoice_IN_ONE_FOUNDATION"><path d="M323.22,620.52 C318.34,649.06 306.76,735.86 333,800 C356.36,857.08 373.61,870.45 426,903 C458.49,923.19 492.8618,934.679 528.0118,942.739 " fill="none" id="wasteToTargetChoice-to-IN_ONE_FOUNDATION" style="stroke:#181818;stroke-width:1.0;"/><polygon fill="#181818" points="533.86,944.08,525.9817,938.1697,528.9865,942.9625,524.1937,945.9673,533.86,944.08" style="stroke:#181818;stroke-width:1.0;"/><text fill="#000000" font-family="sans-serif" font-size="13" lengthAdjust="spacing" textLength="178" x="334" y="796.0283">[targetPile was one foundation]</text></g><!--link IN_ONE_FOUNDATION to *end*--><g id="link_IN_ONE_FOUNDATION_*end*"><path d="M533.74,968.38 C486.35,976 426.87,989.48 378,1013 C349.75,1026.59 326.7168,1048.2725 314.2568,1061.1225 " fill="none" id="IN_ONE_FOUNDATION-to-*end*" style="stroke:#181818;stroke-width:1.0;"/><polygon fill="#181818" points="310.08,1065.43,319.2168,1061.7533,313.5606,1061.8404,313.4735,1056.1842,310.08,1065.43" style="stroke:#181818;stroke-width:1.0;"/><text fill="#000000" font-family="sans-serif" font-size="13" lengthAdjust="spacing" textLength="300" x="379" y="1028.0283">[foundations.contains(allCards)  | player.isResigned]</text></g><!--link IN_ONE_FOUNDATION to foundationToTargetChoice--><g id="link_IN_ONE_FOUNDATION_foundationToTargetChoice"><path d="M643.88,983.01 C663.59,999.32 691.75,1020.03 720,1032 C795.15,1063.85 889.1967,1070.7672 922.0467,1072.3172 " fill="none" id="IN_ONE_FOUNDATION-to-foundationToTargetChoice" style="stroke:#181818;stroke-width:1.0;"/><polygon fill="#181818" points="928.04,1072.6,919.2385,1068.1803,923.0456,1072.3643,918.8615,1076.1714,928.04,1072.6" style="stroke:#181818;stroke-width:1.0;"/><text fill="#000000" font-family="sans-serif" font-size="13" lengthAdjust="spacing" textLength="174" x="721" y="1028.0283">[card = foundation.top &amp; P1M]</text></g><!--link foundationToTargetChoice to IN_ONE_FOUNDATION--><g id="link_foundationToTargetChoice_IN_ONE_FOUNDATION"><path d="M935.98,1064.46 C930.82,1051.17 918.98,1025.75 900,1013 C867.93,991.46 777.4462,976.9738 706.0162,968.2938 " fill="none" id="foundationToTargetChoice-to-IN_ONE_FOUNDATION" style="stroke:#181818;stroke-width:1.0;"/><polygon fill="#181818" points="700.06,967.57,708.5118,972.6265,705.0235,968.1732,709.4768,964.6849,700.06,967.57" style="stroke:#181818;stroke-width:1.0;"/><text fill="#000000" font-family="sans-serif" font-size="13" lengthAdjust="spacing" textLength="186" x="918" y="1028.0283">[targetPile was other foundation]</text></g><!--link foundationToTargetChoice to IN_ONE_TABLEAU--><g id="link_foundationToTargetChoice_IN_ONE_TABLEAU"><path d="M949.37,1072.19 C983.64,1069.3 1092.29,1058.16 1113,1032 C1198.7,923.76 1049.21,850.63 930,781 C884.13,754.21 745.9205,739.353 658.5005,732.293 " fill="none" id="foundationToTargetChoice-to-IN_ONE_TABLEAU" style="stroke:#181818;stroke-width:1.0;"/><polygon fill="#181818" points="652.52,731.81,661.1688,736.5215,657.5038,732.2125,661.8128,728.5475,652.52,731.81" style="stroke:#181818;stroke-width:1.0;"/><text fill="#000000" font-family="sans-serif" font-size="13" lengthAdjust="spacing" textLength="161" x="1108" y="899.0283">[targetPile was one tableau]</text></g><!--link IN_ONE_TABLEAU to *end*--><g id="link_IN_ONE_TABLEAU_*end*"><path d="M561.6,751.3 C519.03,799.94 421.27,913.16 345,1013 C331.41,1030.78 319.994,1047.4816 312.094,1059.3016 " fill="none" id="IN_ONE_TABLEAU-to-*end*" style="stroke:#181818;stroke-width:1.0;"/><polygon fill="#181818" points="308.76,1064.29,317.0867,1059.0301,311.5384,1060.133,310.4355,1054.5847,308.76,1064.29" style="stroke:#181818;stroke-width:1.0;"/><text fill="#000000" font-family="sans-serif" font-size="13" lengthAdjust="spacing" textLength="111" x="450" y="899.0283">[player.isResigned]</text></g><!--link IN_ONE_TABLEAU to tableauToTargetOneChoice--><g id="link_IN_ONE_TABLEAU_tableauToTargetOneChoice"><path d="M578.97,751.05 C577.5,765.63 577.37,784.38 583,800 C588.52,815.31 597.9625,825.0475 606.1725,832.0775 " fill="none" id="IN_ONE_TABLEAU-to-tableauToTargetOneChoice" style="stroke:#181818;stroke-width:1.0;"/><polygon fill="#181818" points="610.73,835.98,606.4954,827.088,606.9321,832.7279,601.2921,833.1646,610.73,835.98" style="stroke:#181818;stroke-width:1.0;"/><text fill="#000000" font-family="sans-serif" font-size="13" lengthAdjust="spacing" textLength="157" x="584" y="796.0283">[card = tableau.top &amp; P1M]</text></g><!--link tableauToTargetOneChoice to IN_ONE_TABLEAU--><g id="link_tableauToTargetOneChoice_IN_ONE_TABLEAU"><path d="M627.75,840.23 C663.92,837.23 777.24,824.25 746,781 C724.71,751.52 692.5922,738.949 658.6222,732.739 " fill="none" id="tableauToTargetOneChoice-to-IN_ONE_TABLEAU" style="stroke:#181818;stroke-width:1.0;"/><polygon fill="#181818" points="652.72,731.66,660.854,737.2132,657.6385,732.5591,662.2926,729.3437,652.72,731.66" style="stroke:#181818;stroke-width:1.0;"/><text fill="#000000" font-family="sans-serif" font-size="13" lengthAdjust="spacing" textLength="169" x="752" y="796.0283">[targetPile was other tableau]</text></g><!--link tableauToTargetOneChoice to IN_ONE_FOUNDATION--><g id="link_tableauToTargetOneChoice_IN_ONE_FOUNDATION"><path d="M617,854.35 C617,872.48 617,902.41 617,926.57 " fill="none" id="tableauToTargetOneChoice-to-IN_ONE_FOUNDATION" style="stroke:#181818;stroke-width:1.0;"/><polygon fill="#181818" points="617,932.57,621,923.57,617,927.57,613,923.57,617,932.57" style="stroke:#181818;stroke-width:1.0;"/><text fill="#000000" font-family="sans-serif" font-size="13" lengthAdjust="spacing" textLength="178" x="618" y="899.0283">[targetPile was one foundation]</text></g><!--reverse link IN_ONE_TABLEAU to IN_ONE_TABLEAU--><g id="link_IN_ONE_TABLEAU_IN_ONE_TABLEAU"><path d="M658.8379,714.219 C678.4479,714.739 687.5,718.56 687.5,726 C687.5,733.44 672.45,737.42 652.84,737.94 " fill="none" id="IN_ONE_TABLEAU-backto-IN_ONE_TABLEAU" style="stroke:#181818;stroke-width:1.0;"/><polygon fill="#181818" points="652.84,714.06,661.7308,718.2972,657.8382,714.1925,661.9429,710.3,652.84,714.06" style="stroke:#181818;stroke-width:1.0;"/><text fill="#000000" font-family="sans-serif" font-size="13" lengthAdjust="spacing" textLength="231" x="693.5" y="731.5283">[tableau.diplayedCards.size &gt; 1 &amp; P2M]</text></g><!--SRC=[dLJHQjim57tNLzodaGmIQ9vAwG9Ux4BfR8V4NHZ56DM-JSGSALWAfMCVFqjs8YUnCzCN8oVdd7lkkTVYGY40bJ1VaVdg3dOv_S02qeqG4YMid6Na9L6OBADmzfJuuK_FzuA88C-0brIY7_0gb19RCh_nBmJ2m4jcpiArL56mDUDpbYCm2Mg3iDFdzmqMnrzIMcJ42LmeaAQRKkOeuO9Kj2mva8YGCRekw7ROOMToQUTX4Vf9v7p_uJdFYUy4luovfNMdYrg7OoLsIymnLPYvJ1gnR5QQasF6qtoVeHnehyCBiyi-RWbv-Hh3Q3I5no1nlTaJgU2dRndIVBOHB4Mulq_DOJebDSQmBO8qmBMkda3TCTp1YxOBZCFa5jvO8LNSGZ739jPCzNuu751cDuwItyfMHVfR9mPVe5o5-9IWEosnrJp6J2vGiZN7B6xKCOhaA3tQxnf-DBigmQIttQaFNMOLD-1NgrH5tgbK68c85cjKhQ5QhJQixTRys-os3Tu-0cKWvWieII0uWgAlETBzVrKUmkV0TQB7CEWGUXDxdb7516y6UqebbsADxAo27AU2Aygu7D0yDsi_1FWBdUbQwjM8MsftCctW5j9ClPFOExJolYbEOkiZsNEQPoEeMUHCfC_Yrf87Ho77pcYRifqqcsiDQORQoVhi9lOHl1Af6T4nrFCs3xV4XKZLLyQQrxPaVn2cSADRdVZnFm00]--></g></svg>